<svg width="351" height="168" viewBox="0 0 351 168" fill="none" xmlns="http://www.w3.org/2000/svg">
<path d="M54.0992 65.4499L49.6592 71.4347L56.5874 114.077C56.5874 114.077 57.2419 117.898 61.5935 120.381C61.5935 120.381 67.3012 124.65 77.9441 125.369C77.9441 125.369 91.6414 126.713 99.3539 121.165C99.3539 121.165 105.787 117.792 106.058 112.362L111.913 75.6565L107.344 63.3685L100.25 58.8165L95.2382 63.6161L93.0153 62.0654L92.7676 59.3825L80.7921 50.7148L74.5714 59.6714L70.1668 55.1489L66.9769 60.9097L66.0629 60.7682L63.952 58.0794C63.952 58.0794 62.4366 58.3094 60.939 59.9132C60.939 59.9132 57.4955 57.5782 54.736 58.504C54.736 58.504 52.967 60.8625 53.9635 64.9841L54.1051 65.4499H54.0992Z" fill="#291C16"/>
<path d="M58.9228 114.968L51.9297 71.936L55.2376 67.2189L59.1528 71.0692V75.1023L59.4653 70.9984L62.0892 72.7143L62.8439 78.7699V71.1458L65.739 67.8321L66.1636 71.9301L66.4348 66.2342L70.6861 59.0052L74.1237 62.319L73.8819 63.8225L74.6661 64.8485L74.2121 72.0775L75.5801 65.7271L74.9963 63.5808L74.9374 62.2246L76.9834 60.0842L78.1863 63.5218L77.7971 59.0052L81.1993 53.8223L90.7633 60.8036L89.8317 64.8367V67.3191L91.0227 63.339L94.59 66.5997C94.59 66.5997 93.9709 73.8936 93.1395 77.4078L94.7964 73.6341L95.8283 65.9806L100.516 61.7293L105.28 64.8544L109.467 76.0811L103.676 113.505C103.676 113.505 100.18 122.604 81.6298 123.176C81.6298 123.176 67.7615 124.196 58.9287 114.974L58.9228 114.968Z" fill="#7B6C4F"/>
<path d="M64.0579 115.504C65.5025 117.244 67.749 119.49 68.9342 121.395L68.8988 121.442C67.7372 120.805 66.9471 119.75 66.2101 118.694C65.4494 117.662 64.7183 116.613 64.0166 115.546L64.0638 115.51L64.0579 115.504Z" fill="#291C16"/>
<path d="M78.752 58.3331L81.6235 80.4033L85.6625 78.198C85.6625 78.198 84.9019 111.619 78.752 123.128C78.752 123.128 98.0213 124.343 103.67 113.488L109.46 76.0635L105.274 64.8368L100.51 61.7117L95.822 65.963L94.7901 73.6165L93.1332 77.3902L94.5837 66.5822L91.0164 63.3215L89.8254 67.3015V64.8191L90.757 60.786L81.1931 53.8047L78.7637 58.3154L78.752 58.3331Z" fill="#6C5A44"/>
<path d="M92.4023 121.943C93.4578 120.828 94.1182 119.449 95.3564 118.517L95.4095 118.547C95.2916 119.36 94.7786 119.979 94.1889 120.492C93.6406 121.029 93.0568 121.524 92.4495 121.984L92.4082 121.943H92.4023Z" fill="#291C16"/>
<path d="M74.5713 112.762C74.5713 112.762 80.8097 119.838 86.8594 112.762C86.8594 112.762 80.8097 109.879 74.5713 112.762Z" fill="#2E1F21"/>
<path d="M67.844 104.284C71.5596 104.284 74.5718 101.272 74.5718 97.5559C74.5718 93.8403 71.5596 90.8281 67.844 90.8281C64.1283 90.8281 61.1162 93.8403 61.1162 97.5559C61.1162 101.272 64.1283 104.284 67.844 104.284Z" fill="#2E1F21"/>
<path d="M94.4953 104.284C98.211 104.284 101.223 101.272 101.223 97.5559C101.223 93.8403 98.211 90.8281 94.4953 90.8281C90.7797 90.8281 87.7676 93.8403 87.7676 97.5559C87.7676 101.272 90.7797 104.284 94.4953 104.284Z" fill="#2E1F21"/>
<path d="M70.5679 98.7466C72.0724 98.7466 73.292 97.527 73.292 96.0225C73.292 94.518 72.0724 93.2983 70.5679 93.2983C69.0634 93.2983 67.8438 94.518 67.8438 96.0225C67.8438 97.527 69.0634 98.7466 70.5679 98.7466Z" fill="#988C86"/>
<path d="M97.2193 98.7466C98.7237 98.7466 99.9434 97.527 99.9434 96.0225C99.9434 94.518 98.7237 93.2983 97.2193 93.2983C95.7148 93.2983 94.4951 94.518 94.4951 96.0225C94.4951 97.527 95.7148 98.7466 97.2193 98.7466Z" fill="#988C86"/>
<path d="M60.1669 68.5511C58.457 68.1856 54.3177 66.6348 55.8272 60.2019C55.8272 60.2019 62.266 59.9778 61.8061 67.5782C61.7943 67.7433 61.7472 67.9084 61.6469 68.0382C61.6469 68.0382 61.6469 68.0441 61.641 68.05C61.299 68.4981 60.7153 68.675 60.1669 68.557V68.5511Z" fill="#737A65"/>
<path d="M61.3403 68.3508C61.3403 68.3508 57.1008 63.103 55.8271 60.202C55.8271 60.202 60.3733 59.9131 61.694 64.3943C61.694 64.3943 62.72 67.2364 61.3403 68.3508Z" fill="#586645"/>
<path d="M63.457 65.8978C63.457 65.8978 63.8815 62.814 62.2777 61.4343C62.2777 61.4343 62.0831 60.255 63.1975 59.6948C63.1975 59.6948 65.6622 61.4048 64.6421 65.5087C64.6421 65.5087 64.4299 66.1396 63.4629 65.9037L63.457 65.8978Z" fill="#586645"/>
<path d="M177.788 68.162C177.788 68.162 177.558 67.9969 177.617 67.5016C177.676 67.0063 177.446 66.8766 177.387 66.7881V65.0605C177.387 65.0605 177.263 64.347 176.874 64.0227C176.874 64.0227 177.133 62.9142 176.219 61.3575L174.84 58.3327C174.84 58.3327 174.58 57.5485 174.58 56.2513C174.58 56.2513 174.622 55.5142 163.401 56.0744C163.401 56.0744 160.105 56.2041 157.605 57.1829C157.605 57.1829 156.502 57.3952 155.671 57.3067C155.671 57.3067 154.008 57.3657 153.035 57.802L149.845 58.4683C149.845 58.4683 145.517 59.0462 143.754 59.1818L139.845 59.111C139.845 59.111 138.276 58.887 137.81 59.4471L136.613 60.3611C136.613 60.3611 135.924 60.7856 136.112 61.4224L136.077 62.3953C136.077 62.3953 136.142 63.0262 135.67 63.5274C135.67 63.5274 134.615 64.2645 134.225 67.9615L133.129 75.0195L132.816 88.251L132.61 91.2168C132.61 91.2168 132.557 92.178 132.722 94.224C132.722 94.224 132.899 97.2724 132.604 98.3868C132.604 98.3868 132.492 101.064 132.787 102.479L132.798 105.769C132.798 105.769 134.326 108.806 134.615 109.059C134.615 109.059 135.145 109.619 135.941 109.855L138.205 110.752L140.464 111.412C140.464 111.412 141.13 111.577 142.427 111.412C142.427 111.412 144.397 111.577 145.328 111.807C145.328 111.807 146.36 112.249 147.186 112.09L151.95 112.125C151.95 112.125 151.284 114.543 151.449 116.111C151.449 116.111 151.213 118.523 150.847 119.437C150.847 119.437 150.517 120.428 150.623 122.55L150.6 123.753C150.6 123.753 152.522 123.971 154.161 124.496L157.882 125.51L159.373 117.35L160.105 112.638C160.105 112.638 160.14 111.943 160.659 111.76C160.659 111.76 161.372 111.713 161.319 110.722C161.319 110.722 161.107 110.097 161.49 109.354C161.49 109.354 162.328 108.387 162.263 107.308C162.263 107.308 162.068 104.944 162.428 102.703C162.428 102.703 163.106 99.1298 164.214 97.3786C164.214 97.3786 164.639 96.7241 164.539 95.8455L164.527 92.4374C164.527 92.4374 164.609 91.0046 164.916 90.4739L165.641 89.0647C165.641 89.0647 165.824 88.5988 165.288 88.304L165.122 88.2746L165.176 83.9112C165.176 83.9112 165.305 83.4572 164.698 83.4336L158.147 83.6459C158.147 83.6459 156.555 83.3098 155.34 83.87C155.34 83.87 150.729 84.094 149.509 84.4065L148.742 89.843C148.742 89.843 148.111 91.8949 149.185 92.514L148.2 93.316L150.199 93.7228L149.202 94.3124C149.202 94.3124 148.819 94.6721 149.432 94.7016L151.213 94.5247C151.213 94.5247 152.286 94.3007 152.115 95.4858L151.655 99.3774C151.655 99.3774 151.455 101.683 149.745 101.441L147.339 101.311C147.339 101.311 146.378 100.975 143.63 101.164C143.63 101.164 142.186 100.958 141.749 100.073C141.749 100.073 141.342 99.6899 141.667 97.5731L142.156 93.9881C142.156 93.9881 143.736 86.4172 144.32 84.9608C144.32 84.9608 145.529 81.2873 145.529 79.1175C145.529 79.1175 146.903 76.4641 146.944 74.6893C146.944 74.6893 147.138 74.2176 147.374 74.1232C147.374 74.1232 148.695 73.2918 148.536 71.3578C148.536 71.3578 148.884 69.6832 150.8 68.5452L155.104 67.4308L161.909 67.3365L167.676 68.0264C167.676 68.0264 171.779 68.6632 173.495 68.5452C173.495 68.5452 174.993 68.6927 175.754 68.4863C175.783 68.4804 175.807 68.4686 175.83 68.4627C176.567 68.2209 177.116 68.1738 177.676 68.2209C177.676 68.2209 177.794 68.2622 177.8 68.1738L177.788 68.162Z" fill="#221F20"/>
<path fill-rule="evenodd" clip-rule="evenodd" d="M171.083 83.3453C171.066 84.2593 171.956 84.0352 171.956 84.0352L171.985 84.0234L173.353 84.106C174.049 84.5187 173.743 85.5093 173.743 85.5093L173.489 86.6001L171.148 96.1228C170.965 97.5615 170.211 99.3304 170.211 99.3304C169.303 100.869 169.385 104.625 169.385 104.625L168.56 106.424C168.2 107.515 168.465 108.635 168.465 108.635C169.768 109.903 169.651 112.338 169.651 112.338C169.774 112.88 169.303 115.77 169.303 115.77L169.326 117.745C169.326 117.745 168.872 117.951 168.831 118.146C168.79 118.34 169.22 118.382 169.22 118.382C170.158 118.977 171.243 118.311 171.243 118.311L177.404 117.067C178.2 117.067 178.2 116.542 178.2 116.542C178.2 116.088 178.548 115.545 178.548 115.545L180.016 110.669L180.075 109.089C180.199 107.597 181.013 107.986 181.013 107.986L181.909 108.659C183.419 110.05 183.136 112.084 183.136 112.084C183.136 112.084 183.059 118.199 183.077 119.26C183.094 120.322 183.625 120.475 183.625 120.475C184.238 120.994 183.89 122.315 183.89 122.315C183.483 124.443 183.696 127.02 183.696 127.02C183.82 127.651 184.386 127.433 184.386 127.433C185.129 127.185 186.284 127.214 186.284 127.214C186.903 126.672 187.876 126.507 187.876 126.507C189.032 126.507 190.624 126.861 190.624 126.861C194.062 126.778 194.799 125.711 194.799 125.711V120.162C195.353 119.455 195.188 118.629 195.188 118.629C195.023 118.629 194.993 117.568 194.993 117.568C195.046 115.262 194.657 113.405 194.657 113.405C195.017 112.078 194.575 111.843 194.575 111.843C193.826 110.693 194.162 109.49 194.162 109.49C194.852 108.193 193.82 106.465 193.82 106.465C193.336 105.704 193.543 105.439 193.543 105.439C193.843 104.661 191.137 103.086 191.137 103.086C190.382 102.573 191.355 101.96 191.355 101.96C194.003 100.174 194.917 98.275 194.917 98.275C196.579 95.2325 197.299 90.1969 197.299 90.1969C197.9 87.9032 197.877 81.3288 197.877 81.3288C198.077 78.3452 196.727 77.1423 196.727 77.1423C195.86 76.0102 194.303 75.2083 194.303 75.2083C193.731 74.5892 193.03 74.2177 193.03 74.2177C191.196 73.7991 189.327 74.0526 189.327 74.0526C188.431 74.3828 186.862 74.2177 186.862 74.2177C184.374 73.917 182.145 74.3239 182.145 74.3239L179.716 74.2177H173.707C172.905 74.3062 173.047 75.0314 173.047 75.0314C172.84 75.7626 173.684 75.9454 173.684 75.9454C174.368 75.9631 174.55 76.3581 174.55 76.3581C174.94 76.9949 174.55 77.7674 174.55 77.7674C174.55 77.7674 174.291 77.9619 174.291 78.1978C174.291 78.4336 173.99 78.5516 173.99 78.5516L173.224 78.5162L173.766 78.982L172.062 79.9667C171.697 80.1672 171.661 80.4856 171.661 80.4856C171.626 81.0575 171.083 83.3453 171.083 83.3453ZM181.52 88.5988C182.057 89.837 181.261 90.1967 181.261 90.1967L181.255 90.2026L181.125 93.7169H182.941C186.361 93.7876 186.868 93.08 186.868 93.08C189.35 92.2251 189.168 87.7851 189.168 87.7851C189.209 84.7602 187.328 81.8533 187.328 81.8533C186.868 81.1222 186.178 81.2224 186.178 81.2224H182.446C182.446 81.2224 181.667 81.8474 181.479 81.9064C181.29 81.9654 181.479 82.3073 181.479 82.3073C181.815 82.7496 181.555 83.976 181.555 83.976L181.349 86.7414C181.337 87.5905 181.52 88.5988 181.52 88.5988Z" fill="#221F20"/>
<path fill-rule="evenodd" clip-rule="evenodd" d="M201.556 89.9964C202.134 91.8714 201.556 109.077 201.556 109.077L201.544 109.095L201.491 112.538C201.474 114.101 203.608 113.9 203.608 113.9C204.669 114.13 209.168 113.9 209.168 113.9C209.605 113.812 212.323 113.576 212.323 113.576C216.386 113.605 218.078 113.328 218.078 113.328L219.794 112.868C220.525 113.016 222.023 112.108 222.023 112.108C224.446 111.347 224.8 110.427 224.8 110.427C225.254 109.773 225.944 109.083 225.944 109.083C227.034 108.01 227.099 105.881 227.099 105.881C227.135 104.407 227.636 103.234 227.636 103.234C228.526 101.6 227.895 100.551 227.895 100.551C227.471 100.056 227.659 99.637 227.659 99.637C228.102 99.4306 228.113 98.953 228.113 98.953C228.161 98.3221 228.532 98.0862 228.532 98.0862C229.022 98.0803 228.986 97.3728 228.986 97.3728C229.075 96.9246 230.077 95.5744 230.077 95.5744C231.244 93.9882 229.829 92.7736 229.829 92.7736C229.829 92.7736 229.971 92.4434 230.236 91.7299C230.502 91.0165 230.384 89.8784 230.384 89.8784C230.844 89.5424 230.979 88.9586 230.979 88.9586C230.956 87.7381 231.186 85.3382 231.186 85.3382C231.539 84.5127 231.763 83.021 231.763 83.021C231.763 81.9537 232.217 79.4772 232.217 79.4772C232.895 75.7448 230.79 74.8486 230.79 74.8486C229.8 73.9759 229.546 74.7071 229.546 74.7071L225.478 77.9913C224.422 78.1977 224.658 77.6965 224.658 77.6965C225.336 76.7354 225.036 76.4052 225.036 76.4052C224.894 75.7861 223.526 76.0043 223.526 76.0043C222.365 76.2696 222.612 75.3321 222.612 75.3321C222.754 74.5184 222.17 74.4712 222.17 74.4712C221.569 74.2589 220.761 74.312 220.761 74.312C219.481 74.2589 219.015 74.5714 219.015 74.5714C218.031 75.0667 217.376 74.7365 217.376 74.7365L216.663 74.4358C215.23 73.858 214.587 74.5361 214.587 74.5361L212.765 75.4441C212.258 75.8568 209.776 76.2578 209.776 76.2578C209.251 76.4347 208.862 76.3345 208.862 76.3345C206.769 75.9217 206.126 77.3427 206.126 77.3427C205.967 77.6317 205.483 77.8144 205.483 77.8144L204.21 78.3451C203.213 78.8758 203.048 80.6447 203.048 80.6447C202.246 82.2308 202.134 85.5623 202.134 85.5623C201.244 86.4468 201.556 89.9964 201.556 89.9964ZM209.187 101.765C209.257 104.03 210.584 104.366 210.584 104.366H210.578C210.672 104.543 211.28 104.631 211.28 104.631L215.23 104.696C216.498 104.814 216.71 104.613 216.71 104.613C217.807 104.195 218.196 101.5 218.196 101.5C218.078 98.9292 218.957 97.1779 218.957 97.1779C219.358 95.8866 219.782 91.7651 219.782 91.7651C220.089 90.3735 217.483 90.1318 217.483 90.1318L213.013 89.9902C210.944 90.2143 210.271 92.2545 210.271 92.2545L209.187 101.765Z" fill="#221F20"/>
<path fill-rule="evenodd" clip-rule="evenodd" d="M233.144 99.3184V102.007L233.155 102.019C233.497 103.393 232.424 104.13 232.424 104.13C231.422 104.708 231.634 106.37 231.634 106.37V111.801C231.528 113.67 233.338 114.755 233.338 114.755C235.596 116.153 239.005 116.318 239.005 116.318C240.573 116.565 245.007 116.612 245.007 116.612C245.974 116.412 246.935 116.483 246.935 116.483C248.333 116.783 252.307 116.483 252.307 116.483C256.393 116.353 258.351 115.457 258.351 115.457C259.135 115.457 259.158 114.384 259.158 114.384C258.799 113.741 259.223 112.615 259.223 112.615C259.671 112.302 259.719 111.371 259.719 111.371C260.237 109.095 260.285 100.309 260.285 100.309C260.562 99.0943 260.461 98.0388 260.461 98.0388C260.055 97.4197 260.461 95.3383 260.461 95.3383C260.762 94.5836 260.632 92.1778 260.632 92.1778C260.803 90.7686 260.632 88.4041 260.632 88.4041C260.632 85.8274 258.262 85.5444 258.262 85.5444C257.726 85.6034 257.012 85.3085 257.012 85.3085C256.027 84.8191 255.532 84.7956 255.532 84.7956C254.99 84.7366 254.04 85.0019 254.04 85.0019C253.25 85.055 253.05 84.7484 253.05 84.7484C251.811 84.0703 251.145 84.1823 251.145 84.1823C249.925 84.088 249.07 84.4889 249.07 84.4889C248.38 84.884 247.525 84.5774 247.525 84.5774C245.797 84.2826 244.883 84.7838 244.883 84.7838C243.981 85.1317 240.673 84.7838 240.673 84.7838C239.553 84.7543 238.379 85.1434 238.379 85.1434C237.559 85.4906 237.297 85.7133 236.971 85.991C236.915 86.0387 236.856 86.0881 236.793 86.1399C236.363 86.4937 235.98 87.2249 235.921 87.4371C235.862 87.6494 235.679 88.0857 235.679 88.0857C235.437 88.5044 235.437 88.7167 235.437 88.7167L235.178 90.1436C234.936 91.6707 234.34 91.6059 234.34 91.6059C233.651 92.1896 234.211 92.8382 234.211 92.8382C234.358 93.0033 234.211 94.389 234.211 94.389C233.916 94.7074 233.751 95.356 233.751 95.356C233.751 95.356 234.606 96.9952 234.865 97.0482C235.125 97.1013 234.96 97.4728 234.96 97.4728C234.865 97.7263 235.066 97.862 235.066 97.862C235.355 98.0447 235.254 98.2629 235.254 98.2629C234.057 98.2216 233.144 99.3184 233.144 99.3184ZM244.653 99.7665C244.11 100.409 243.414 101.866 243.414 101.866L243.42 101.86L243.355 102.001C242.925 102.862 242.884 105.044 242.884 105.044C242.854 106.819 243.579 107.237 243.579 107.237C244.517 108.198 246.504 108.198 246.504 108.198L249.081 108.44C250.779 108.528 251.327 107.962 251.327 107.962C252.583 107.467 252.866 104.584 252.866 104.584C253.049 103.853 253.196 101.866 253.196 101.866C253.515 96.5765 253.485 93.2333 253.485 93.2333C253.527 91.9007 252.459 91.8535 252.459 91.8535L250.272 91.9655C247.784 92.0304 246.97 92.9267 246.97 92.9267C245.702 93.8052 245.449 95.9692 245.449 95.9692C245.166 96.8006 244.953 98.4044 244.953 98.4044C244.953 99.224 244.653 99.7665 244.653 99.7665Z" fill="#221F20"/>
<path d="M264.223 79.6541L244.706 80.0138L242.902 80.114C242.902 80.114 241.723 80.2438 242.047 79.2944L243.757 76.9536C243.757 76.9536 244.117 76.3286 243.574 76.1988L242.33 75.9925C242.33 75.9925 242.012 75.9276 241.982 75.7625C241.982 75.7625 241.882 75.6446 242.33 75.3675C242.33 75.3675 243.403 74.4476 243.439 74.141C243.439 74.141 243.692 73.7342 243.268 73.5632L240.154 71.6056C240.154 71.6056 245.443 71.4287 248.044 71.1574L259.677 69.8602L263.48 69.3296C263.48 69.3296 264.259 69.0878 265.137 69.418C265.137 69.418 266.859 69.9192 268.398 69.247C268.398 69.247 270.167 68.4628 271.582 68.6102L289.024 68.5925L296.488 68.4805C296.488 68.4805 296.901 68.3861 297.414 68.7989L300.409 68.6633L298.334 72.0301C298.334 72.0301 297.408 72.8792 298.47 73.3509L300.958 74.4358C300.958 74.4358 299.678 74.9488 299.401 75.3616C299.401 75.3616 298.122 76.6588 297.214 76.8592C297.214 76.8592 296.771 76.9831 297.302 77.4194C297.302 77.4194 298.965 78.8699 300.539 79.4301L301.323 79.772L279.477 80.2732H277.779C277.779 80.2732 276.576 79.89 276.24 81.9596L274.613 91.5353C274.613 91.5353 273.298 101.771 272.484 103.104C272.484 103.104 271.883 105.362 272.366 106.058C272.366 106.058 272.478 106.3 272.272 107.102C272.272 107.102 272.071 108.77 272.189 109.372C272.189 109.372 272.219 110.121 272.042 110.952L271.948 117.096C271.948 117.096 270.762 113.653 269.725 113.293C269.725 113.293 268.905 113.075 268.734 114.213L267.914 117.674C267.914 117.674 267.519 117.456 267.49 116.784C267.49 116.784 267.519 115.357 266.953 115.61C266.953 115.61 266.34 115.427 266.281 116.943C266.281 116.943 265.91 118.653 265.739 118.8C265.739 118.8 264.854 118.735 264.701 118.045C264.701 118.045 264.577 116.666 264.901 115.876C264.901 115.876 265.167 114.101 265.167 113.405L265.397 109.649L265.473 102.98L265.42 99.7136C265.42 99.7136 265.497 97.6912 265.786 96.7242C265.786 96.7242 266.228 93.1274 265.992 92.296L265.727 91.3172C265.727 91.3172 265.491 90.9103 265.739 90.2087C265.739 90.2087 266.21 87.8855 266.193 86.6708L266.293 81.1577C266.293 81.1577 266.552 80.061 265.385 79.8664L264.217 79.6718L264.223 79.6541Z" fill="#221F20"/>
</svg>
