<svg width="351" height="169" viewBox="0 0 351 169" fill="none" xmlns="http://www.w3.org/2000/svg">
<path d="M60.1665 59.3373L55.7266 65.3039L62.6548 107.817C62.6548 107.817 63.3093 111.626 67.6608 114.101C67.6608 114.101 73.3685 118.357 84.0115 119.074C84.0115 119.074 97.7088 120.415 105.421 114.883C105.421 114.883 111.854 111.52 112.125 106.106L117.981 69.5129L113.411 57.2622L106.318 52.724L101.306 57.5091L99.0827 55.963L98.835 53.2883L86.8595 44.647L80.6388 53.5764L76.2342 49.0676L73.0442 54.8108L72.1303 54.6698L70.0194 51.9892C70.0194 51.9892 68.504 52.2184 67.0063 53.8174C67.0063 53.8174 63.5629 51.4895 60.8034 52.4124C60.8034 52.4124 59.0344 54.7638 60.0309 58.8729L60.1724 59.3373H60.1665Z" fill="#123D1D"/>
<path d="M64.9902 108.705L57.9971 65.8038L61.3049 61.101L65.2201 64.9396V68.9605L65.5326 64.8691L68.1565 66.5797L68.9113 72.6169V65.016L71.8064 61.7124L72.2309 65.7979L72.5022 60.1193L76.7535 52.9123L80.1911 56.216L79.9493 57.715L80.7335 58.7378L80.2795 65.9448L81.6475 59.6137L81.0637 57.474L81.0048 56.1219L83.0508 53.988L84.2537 57.4152L83.8645 52.9123L87.2667 47.7451L96.8307 54.7052L95.899 58.7261V61.2009L97.0901 57.233L100.657 60.4838C100.657 60.4838 100.038 67.7554 99.2069 71.259L100.864 67.4968L101.896 59.8665L106.583 55.6281L111.348 58.7437L115.534 69.9363L109.744 107.247C109.744 107.247 106.247 116.317 87.6972 116.888C87.6972 116.888 73.8289 117.905 64.9961 108.711L64.9902 108.705Z" fill="#6DB76F"/>
<path d="M70.1253 109.24C71.5699 110.974 73.8164 113.214 75.0016 115.112L74.9662 115.159C73.8046 114.524 73.0145 113.472 72.2774 112.42C71.5168 111.391 70.7857 110.345 70.084 109.281L70.1312 109.246L70.1253 109.24Z" fill="#291C16"/>
<path d="M84.8193 52.2417L87.6909 74.2448L91.7299 72.0463C91.7299 72.0463 90.9693 105.365 84.8193 116.84C84.8193 116.84 104.089 118.051 109.737 107.229L115.528 69.9183L111.341 58.7257L106.577 55.6101L101.889 59.8484L100.858 67.4787L99.2006 71.2409L100.651 60.4657L97.0838 57.2149L95.8927 61.1829V58.708L96.8244 54.6872L87.2604 47.7271L84.8311 52.2241L84.8193 52.2417Z" fill="#4A834E"/>
<path d="M98.4697 115.659C99.5252 114.548 100.186 113.172 101.424 112.244L101.477 112.273C101.359 113.084 100.846 113.702 100.256 114.213C99.708 114.748 99.1242 115.242 98.5169 115.7L98.4756 115.659H98.4697Z" fill="#291C16"/>
<path d="M80.6387 106.506C80.6387 106.506 86.8771 113.56 92.9267 106.506C92.9267 106.506 86.877 103.632 80.6387 106.506Z" fill="#123D1D"/>
<path d="M73.9114 98.0528C77.627 98.0528 80.6391 95.0499 80.6391 91.3455C80.6391 87.6412 77.627 84.6382 73.9114 84.6382C70.1957 84.6382 67.1836 87.6412 67.1836 91.3455C67.1836 95.0499 70.1957 98.0528 73.9114 98.0528Z" fill="#123D1D"/>
<path d="M100.563 98.0528C104.278 98.0528 107.291 95.0499 107.291 91.3455C107.291 87.6412 104.278 84.6382 100.563 84.6382C96.8471 84.6382 93.835 87.6412 93.835 91.3455C93.835 95.0499 96.8471 98.0528 100.563 98.0528Z" fill="#123D1D"/>
<path d="M76.6353 92.5328C78.1398 92.5328 79.3594 91.3168 79.3594 89.8169C79.3594 88.317 78.1398 87.1011 76.6353 87.1011C75.1308 87.1011 73.9111 88.317 73.9111 89.8169C73.9111 91.3168 75.1308 92.5328 76.6353 92.5328Z" fill="#B5D7B2"/>
<path d="M103.287 92.5328C104.791 92.5328 106.011 91.3168 106.011 89.8169C106.011 88.317 104.791 87.1011 103.287 87.1011C101.782 87.1011 100.562 88.317 100.562 89.8169C100.562 91.3168 101.782 92.5328 103.287 92.5328Z" fill="#B5D7B2"/>
<path d="M66.2402 62.4291C64.5302 62.0646 60.391 60.5186 61.9004 54.1052C61.9004 54.1052 68.3393 53.8818 67.8794 61.4591C67.8676 61.6237 67.8204 61.7883 67.7202 61.9177C67.7202 61.9177 67.7202 61.9235 67.7143 61.9294C67.3723 62.3762 66.7885 62.5525 66.2402 62.435V62.4291Z" fill="#437948"/>
<path d="M67.4135 62.2294C67.4135 62.2294 63.174 56.9975 61.9004 54.1053C61.9004 54.1053 66.4465 53.8173 67.7673 58.2849C67.7673 58.2849 68.7933 61.1183 67.4135 62.2294Z" fill="#6E8C60"/>
<path d="M69.5243 59.7838C69.5243 59.7838 69.9489 56.7093 68.3451 55.3338C68.3451 55.3338 68.1505 54.1581 69.2649 53.5996C69.2649 53.5996 71.7296 55.3044 70.7095 59.3958C70.7095 59.3958 70.4972 60.0248 69.5302 59.7896L69.5243 59.7838Z" fill="#6E8C60"/>
<path d="M183.1 66.3795C183.1 66.3795 182.87 66.2149 182.929 65.7211C182.988 65.2273 182.758 65.098 182.699 65.0098V63.2874C182.699 63.2874 182.576 62.5761 182.186 62.2528C182.186 62.2528 182.446 61.1477 181.532 59.5957L180.152 56.5801C180.152 56.5801 179.893 55.7983 179.893 54.505C179.893 54.505 179.934 53.7702 168.713 54.3286C168.713 54.3286 165.417 54.458 162.917 55.4338C162.917 55.4338 161.814 55.6454 160.983 55.5572C160.983 55.5572 159.32 55.616 158.347 56.051L155.157 56.7153C155.157 56.7153 150.829 57.2914 149.066 57.4266L145.157 57.356C145.157 57.356 143.589 57.1327 143.123 57.6911L141.926 58.6023C141.926 58.6023 141.236 59.0255 141.425 59.6604L141.389 60.6303C141.389 60.6303 141.454 61.2593 140.983 61.759C140.983 61.759 139.927 62.4938 139.538 66.1796L138.441 73.2161L138.129 86.4074L137.922 89.3643C137.922 89.3643 137.869 90.3225 138.034 92.3623C138.034 92.3623 138.211 95.4015 137.916 96.5125C137.916 96.5125 137.804 99.1813 138.099 100.592L138.111 103.872C138.111 103.872 139.638 106.9 139.927 107.153C139.927 107.153 140.458 107.711 141.254 107.946L143.518 108.84L145.776 109.498C145.776 109.498 146.443 109.663 147.74 109.498C147.74 109.498 149.709 109.663 150.641 109.892C150.641 109.892 151.673 110.333 152.498 110.174L157.262 110.209C157.262 110.209 156.596 112.62 156.761 114.183C156.761 114.183 156.525 116.587 156.16 117.499C156.16 117.499 155.83 118.486 155.936 120.602L155.912 121.802C155.912 121.802 157.834 122.019 159.474 122.542L163.194 123.553L164.686 115.418L165.417 110.721C165.417 110.721 165.453 110.027 165.971 109.845C165.971 109.845 166.685 109.798 166.632 108.81C166.632 108.81 166.42 108.187 166.803 107.446C166.803 107.446 167.64 106.482 167.575 105.407C167.575 105.407 167.381 103.049 167.74 100.816C167.74 100.816 168.418 97.2532 169.527 95.5073C169.527 95.5073 169.951 94.8548 169.851 93.9789L169.839 90.5811C169.839 90.5811 169.922 89.1527 170.229 88.6236L170.954 87.2186C170.954 87.2186 171.137 86.7543 170.6 86.4603L170.435 86.4309L170.488 82.0809C170.488 82.0809 170.618 81.6282 170.01 81.6047L163.46 81.8163C163.46 81.8163 161.868 81.4813 160.653 82.0397C160.653 82.0397 156.042 82.2631 154.821 82.5747L154.055 87.9946C154.055 87.9946 153.424 90.0403 154.497 90.6576L153.512 91.457L155.511 91.8626L154.515 92.4505C154.515 92.4505 154.131 92.8091 154.745 92.8385L156.525 92.6621C156.525 92.6621 157.599 92.4387 157.428 93.6203L156.968 97.5001C156.968 97.5001 156.767 99.7986 155.057 99.5576L152.651 99.4282C152.651 99.4282 151.69 99.0932 148.943 99.2813C148.943 99.2813 147.498 99.0755 147.062 98.1937C147.062 98.1937 146.655 97.8116 146.979 95.7013L147.469 92.1272C147.469 92.1272 149.049 84.5792 149.633 83.1272C149.633 83.1272 150.841 79.465 150.841 77.3017C150.841 77.3017 152.215 74.6564 152.256 72.887C152.256 72.887 152.451 72.4167 152.687 72.3226C152.687 72.3226 154.008 71.4938 153.848 69.5656C153.848 69.5656 154.196 67.8961 156.113 66.7616L160.417 65.6506L167.221 65.5565L172.988 66.2443C172.988 66.2443 177.092 66.8792 178.808 66.7616C178.808 66.7616 180.306 66.9086 181.066 66.7028C181.096 66.6969 181.119 66.6852 181.143 66.6793C181.88 66.4383 182.428 66.3912 182.988 66.4383C182.988 66.4383 183.106 66.4794 183.112 66.3912L183.1 66.3795Z" fill="#123D1D"/>
<path fill-rule="evenodd" clip-rule="evenodd" d="M176.402 81.5166C176.384 82.4277 177.274 82.2044 177.274 82.2044L177.304 82.1926L178.672 82.2749C179.368 82.6864 179.061 83.674 179.061 83.674L178.807 84.7615L176.467 94.2552C176.284 95.6896 175.529 97.4531 175.529 97.4531C174.621 98.9874 174.704 102.732 174.704 102.732L173.878 104.525C173.518 105.612 173.784 106.729 173.784 106.729C175.087 107.993 174.969 110.421 174.969 110.421C175.093 110.962 174.621 113.842 174.621 113.842L174.645 115.812C174.645 115.812 174.191 116.017 174.149 116.211C174.108 116.405 174.538 116.446 174.538 116.446C175.476 117.04 176.561 116.376 176.561 116.376L182.723 115.136C183.519 115.136 183.519 114.612 183.519 114.612C183.519 114.16 183.867 113.619 183.867 113.619L185.335 108.757L185.394 107.182C185.518 105.695 186.331 106.083 186.331 106.083L187.227 106.753C188.737 108.14 188.454 110.168 188.454 110.168C188.454 110.168 188.377 116.264 188.395 117.322C188.413 118.38 188.943 118.533 188.943 118.533C189.557 119.051 189.209 120.367 189.209 120.367C188.802 122.489 189.014 125.058 189.014 125.058C189.138 125.687 189.704 125.47 189.704 125.47C190.447 125.223 191.603 125.252 191.603 125.252C192.222 124.712 193.195 124.547 193.195 124.547C194.35 124.547 195.942 124.9 195.942 124.9C199.38 124.817 200.117 123.753 200.117 123.753V118.222C200.671 117.516 200.506 116.693 200.506 116.693C200.341 116.693 200.312 115.635 200.312 115.635C200.365 113.337 199.975 111.485 199.975 111.485C200.335 110.162 199.893 109.927 199.893 109.927C199.144 108.781 199.48 107.582 199.48 107.582C200.17 106.288 199.138 104.566 199.138 104.566C198.655 103.808 198.861 103.543 198.861 103.543C199.162 102.767 196.455 101.198 196.455 101.198C195.701 100.686 196.673 100.075 196.673 100.075C199.321 98.2937 200.235 96.4009 200.235 96.4009C201.898 93.3676 202.617 88.3473 202.617 88.3473C203.218 86.0606 203.195 79.5061 203.195 79.5061C203.395 76.5316 202.045 75.3324 202.045 75.3324C201.178 74.2038 199.622 73.4043 199.622 73.4043C199.05 72.7871 198.348 72.4167 198.348 72.4167C196.514 71.9993 194.645 72.2521 194.645 72.2521C193.749 72.5813 192.18 72.4167 192.18 72.4167C189.692 72.1169 187.463 72.5225 187.463 72.5225L185.034 72.4167H179.026C178.224 72.5049 178.365 73.2279 178.365 73.2279C178.159 73.9569 179.002 74.1391 179.002 74.1391C179.686 74.1567 179.869 74.5506 179.869 74.5506C180.258 75.1855 179.869 75.9556 179.869 75.9556C179.869 75.9556 179.609 76.1495 179.609 76.3847C179.609 76.6198 179.309 76.7374 179.309 76.7374L178.542 76.7021L179.085 77.1665L177.38 78.1482C177.015 78.3481 176.98 78.6655 176.98 78.6655C176.944 79.2357 176.402 81.5166 176.402 81.5166ZM186.833 86.7541C187.369 87.9886 186.573 88.3472 186.573 88.3472L186.567 88.353L186.438 91.8566H188.254C191.673 91.9271 192.181 91.2217 192.181 91.2217C194.663 90.3693 194.48 85.9429 194.48 85.9429C194.521 82.9272 192.64 80.0291 192.64 80.0291C192.181 79.3002 191.491 79.4001 191.491 79.4001H187.758C187.758 79.4001 186.98 80.0232 186.791 80.082C186.603 80.1408 186.791 80.4818 186.791 80.4818C187.127 80.9227 186.868 82.1454 186.868 82.1454L186.662 84.9024C186.65 85.7489 186.833 86.7541 186.833 86.7541Z" fill="#123D1D"/>
<path fill-rule="evenodd" clip-rule="evenodd" d="M206.875 88.1476C207.452 90.0169 206.875 107.17 206.875 107.17L206.863 107.188L206.81 110.621C206.792 112.179 208.926 111.979 208.926 111.979C209.988 112.208 214.487 111.979 214.487 111.979C214.923 111.891 217.641 111.656 217.641 111.656C221.704 111.685 223.396 111.409 223.396 111.409L225.112 110.95C225.843 111.097 227.341 110.192 227.341 110.192C229.764 109.434 230.118 108.516 230.118 108.516C230.572 107.864 231.262 107.176 231.262 107.176C232.353 106.106 232.418 103.984 232.418 103.984C232.453 102.515 232.954 101.345 232.954 101.345C233.845 99.7164 233.214 98.6701 233.214 98.6701C232.789 98.1763 232.978 97.7589 232.978 97.7589C233.42 97.5531 233.432 97.077 233.432 97.077C233.479 96.448 233.851 96.2129 233.851 96.2129C234.34 96.207 234.305 95.5016 234.305 95.5016C234.393 95.0548 235.395 93.7086 235.395 93.7086C236.563 92.1273 235.148 90.9164 235.148 90.9164C235.148 90.9164 235.289 90.5872 235.555 89.8759C235.82 89.1646 235.702 88.03 235.702 88.03C236.162 87.695 236.298 87.113 236.298 87.113C236.274 85.8961 236.504 83.5036 236.504 83.5036C236.858 82.6806 237.082 81.1934 237.082 81.1934C237.082 80.1294 237.536 77.6604 237.536 77.6604C238.214 73.9393 236.109 73.0458 236.109 73.0458C235.118 72.1758 234.865 72.9047 234.865 72.9047L230.796 76.179C229.741 76.3848 229.977 75.8851 229.977 75.8851C230.655 74.9269 230.354 74.5977 230.354 74.5977C230.212 73.9805 228.844 74.198 228.844 74.198C227.683 74.4625 227.931 73.5279 227.931 73.5279C228.072 72.7166 227.488 72.6696 227.488 72.6696C226.887 72.458 226.079 72.5109 226.079 72.5109C224.8 72.458 224.334 72.7695 224.334 72.7695C223.349 73.2633 222.695 72.9341 222.695 72.9341L221.981 72.6343C220.548 72.0582 219.906 72.7343 219.906 72.7343L218.084 73.6395C217.576 74.051 215.094 74.4508 215.094 74.4508C214.569 74.6271 214.18 74.5272 214.18 74.5272C212.087 74.1157 211.444 75.5324 211.444 75.5324C211.285 75.8205 210.802 76.0027 210.802 76.0027L209.528 76.5318C208.531 77.0608 208.366 78.8244 208.366 78.8244C207.564 80.4057 207.452 83.727 207.452 83.727C206.562 84.6088 206.875 88.1476 206.875 88.1476ZM214.505 99.8809C214.576 102.138 215.902 102.473 215.902 102.473H215.896C215.991 102.65 216.598 102.738 216.598 102.738L220.549 102.802C221.816 102.92 222.029 102.72 222.029 102.72C223.125 102.303 223.515 99.6164 223.515 99.6164C223.397 97.0534 224.275 95.3075 224.275 95.3075C224.676 94.0201 225.101 89.911 225.101 89.911C225.407 88.5237 222.801 88.2827 222.801 88.2827L218.332 88.1416C216.262 88.365 215.59 90.3989 215.59 90.3989L214.505 99.8809Z" fill="#123D1D"/>
<path fill-rule="evenodd" clip-rule="evenodd" d="M238.462 97.4413V100.122L238.474 100.134C238.816 101.503 237.743 102.238 237.743 102.238C236.74 102.814 236.952 104.472 236.952 104.472V109.886C236.846 111.749 238.656 112.831 238.656 112.831C240.915 114.224 244.323 114.389 244.323 114.389C245.891 114.636 250.325 114.683 250.325 114.683C251.292 114.483 252.254 114.553 252.254 114.553C253.651 114.853 257.625 114.553 257.625 114.553C261.711 114.424 263.669 113.531 263.669 113.531C264.453 113.531 264.477 112.461 264.477 112.461C264.117 111.82 264.542 110.697 264.542 110.697C264.99 110.386 265.037 109.457 265.037 109.457C265.556 107.188 265.603 98.4289 265.603 98.4289C265.88 97.2179 265.78 96.1656 265.78 96.1656C265.373 95.5484 265.78 93.4733 265.78 93.4733C266.081 92.7209 265.951 90.3224 265.951 90.3224C266.122 88.9175 265.951 86.5602 265.951 86.5602C265.951 83.9913 263.58 83.7092 263.58 83.7092C263.044 83.768 262.33 83.474 262.33 83.474C261.346 82.9861 260.85 82.9626 260.85 82.9626C260.308 82.9038 259.359 83.1683 259.359 83.1683C258.569 83.2213 258.368 82.9156 258.368 82.9156C257.13 82.2396 256.464 82.3512 256.464 82.3512C255.243 82.2572 254.388 82.6569 254.388 82.6569C253.698 83.0508 252.843 82.7451 252.843 82.7451C251.116 82.4512 250.202 82.9508 250.202 82.9508C249.299 83.2977 245.992 82.9508 245.992 82.9508C244.871 82.9215 243.698 83.3094 243.698 83.3094C242.878 83.6556 242.616 83.8776 242.289 84.1544C242.233 84.202 242.175 84.2512 242.112 84.3029C241.681 84.6556 241.298 85.3845 241.239 85.5962C241.18 85.8078 240.997 86.2428 240.997 86.2428C240.756 86.6602 240.756 86.8718 240.756 86.8718L240.496 88.2944C240.254 89.8169 239.659 89.7522 239.659 89.7522C238.969 90.3342 239.529 90.9808 239.529 90.9808C239.677 91.1454 239.529 92.5269 239.529 92.5269C239.234 92.8443 239.069 93.4909 239.069 93.4909C239.069 93.4909 239.924 95.1252 240.184 95.1781C240.443 95.231 240.278 95.6013 240.278 95.6013C240.184 95.8541 240.384 95.9893 240.384 95.9893C240.673 96.1715 240.573 96.389 240.573 96.389C239.376 96.3479 238.462 97.4413 238.462 97.4413ZM249.971 97.8879C249.428 98.5287 248.733 99.9807 248.733 99.9807L248.739 99.9748L248.674 100.116C248.243 100.974 248.202 103.149 248.202 103.149C248.173 104.919 248.898 105.336 248.898 105.336C249.835 106.294 251.822 106.294 251.822 106.294L254.399 106.535C256.097 106.623 256.646 106.059 256.646 106.059C257.902 105.565 258.185 102.691 258.185 102.691C258.367 101.962 258.515 99.9807 258.515 99.9807C258.833 94.7077 258.804 91.3746 258.804 91.3746C258.845 90.046 257.778 89.999 257.778 89.999L255.59 90.1107C253.102 90.1754 252.288 91.0689 252.288 91.0689C251.021 91.9448 250.767 94.1022 250.767 94.1022C250.484 94.9311 250.272 96.53 250.272 96.53C250.272 97.3471 249.971 97.8879 249.971 97.8879Z" fill="#123D1D"/>
<path d="M269.542 77.8365L250.025 78.195L248.22 78.295C248.22 78.295 247.041 78.4243 247.365 77.4779L249.075 75.1441C249.075 75.1441 249.435 74.521 248.893 74.3917L247.648 74.1859C247.648 74.1859 247.33 74.1213 247.301 73.9567C247.301 73.9567 247.2 73.8391 247.648 73.5628C247.648 73.5628 248.722 72.6458 248.757 72.3401C248.757 72.3401 249.01 71.9345 248.586 71.764L245.473 69.8123C245.473 69.8123 250.762 69.636 253.362 69.3656L264.996 68.0723L268.799 67.5433C268.799 67.5433 269.577 67.3022 270.456 67.6314C270.456 67.6314 272.177 68.1311 273.716 67.461C273.716 67.461 275.485 66.6791 276.9 66.8261L294.342 66.8084L301.807 66.6968C301.807 66.6968 302.219 66.6027 302.732 67.0142L305.728 66.879L303.652 70.2356C303.652 70.2356 302.727 71.0821 303.788 71.5524L306.276 72.634C306.276 72.634 304.997 73.1454 304.72 73.5569C304.72 73.5569 303.44 74.8502 302.532 75.0501C302.532 75.0501 302.09 75.1735 302.62 75.6085C302.62 75.6085 304.283 77.0546 305.858 77.6131L306.642 77.954L284.796 78.4537H283.097C283.097 78.4537 281.895 78.0716 281.559 80.1349L279.931 89.6816C279.931 89.6816 278.616 99.8866 277.803 101.215C277.803 101.215 277.201 103.467 277.685 104.16C277.685 104.16 277.797 104.401 277.59 105.201C277.59 105.201 277.39 106.864 277.508 107.464C277.508 107.464 277.537 108.21 277.36 109.039L277.266 115.165C277.266 115.165 276.081 111.732 275.043 111.373C275.043 111.373 274.223 111.156 274.052 112.29L273.233 115.741C273.233 115.741 272.838 115.523 272.808 114.853C272.808 114.853 272.838 113.431 272.272 113.683C272.272 113.683 271.658 113.501 271.6 115.012C271.6 115.012 271.228 116.717 271.057 116.864C271.057 116.864 270.173 116.799 270.019 116.111C270.019 116.111 269.895 114.736 270.22 113.948C270.22 113.948 270.485 112.178 270.485 111.485L270.715 107.74L270.792 101.092L270.739 97.835C270.739 97.835 270.815 95.8187 271.104 94.8546C271.104 94.8546 271.546 91.2687 271.311 90.4399L271.045 89.4641C271.045 89.4641 270.809 89.0584 271.057 88.3589C271.057 88.3589 271.529 86.0428 271.511 84.8318L271.611 79.3355C271.611 79.3355 271.871 78.2421 270.703 78.0481L269.536 77.8541L269.542 77.8365Z" fill="#123D1D"/>
</svg>
