<?xml version="1.0" encoding="UTF-8"?>
<svg id="Layer_1" data-name="Layer 1" xmlns="http://www.w3.org/2000/svg" xmlns:xlink="http://www.w3.org/1999/xlink" viewBox="0 0 849.96 258.03">
  <defs>
    <style>
      .cls-1 {
        fill: url(#linear-gradient);
      }

      .cls-1, .cls-2, .cls-3, .cls-4, .cls-5, .cls-6, .cls-7, .cls-8, .cls-9, .cls-10, .cls-11, .cls-12 {
        stroke-width: 0px;
      }

      .cls-2 {
        fill: url(#linear-gradient-4);
      }

      .cls-3 {
        fill: url(#linear-gradient-2);
      }

      .cls-4 {
        fill: url(#linear-gradient-3);
      }

      .cls-5 {
        fill: url(#linear-gradient-5);
      }

      .cls-6 {
        fill: #4ca455;
      }

      .cls-7 {
        fill: #291c16;
      }

      .cls-8 {
        fill: #548e44;
      }

      .cls-9 {
        fill: #316b3d;
      }

      .cls-10 {
        fill: #3d7f4a;
      }

      .cls-11 {
        fill: #35615f;
      }

      .cls-12 {
        fill: #153736;
      }
    </style>
    <linearGradient id="linear-gradient" x1="399.01" y1="72.96" x2="403.22" y2="140.99" gradientUnits="userSpaceOnUse">
      <stop offset="0" stop-color="#153736"/>
      <stop offset="1" stop-color="#3d7f4a"/>
    </linearGradient>
    <linearGradient id="linear-gradient-2" x1="450.71" y1="101.73" x2="449.26" y2="151.8" gradientUnits="userSpaceOnUse">
      <stop offset="0" stop-color="#153736"/>
      <stop offset="1" stop-color="#3d7f4a"/>
    </linearGradient>
    <linearGradient id="linear-gradient-3" x1="505.78" y1="109.51" x2="507.66" y2="161.8" gradientUnits="userSpaceOnUse">
      <stop offset="0" stop-color="#153736"/>
      <stop offset=".77" stop-color="#3d7f4a"/>
    </linearGradient>
    <linearGradient id="linear-gradient-4" x1="555.55" y1="125.97" x2="556.99" y2="164.61" gradientUnits="userSpaceOnUse">
      <stop offset="0" stop-color="#153736"/>
      <stop offset=".78" stop-color="#3d7f4a"/>
    </linearGradient>
    <linearGradient id="linear-gradient-5" x1="598.06" y1="98.17" x2="598.67" y2="141.5" gradientUnits="userSpaceOnUse">
      <stop offset="0" stop-color="#153736"/>
      <stop offset=".96" stop-color="#3d7f4a"/>
    </linearGradient>
  </defs>
  <path class="cls-12" d="m232.05,83.69l-7.53,10.15,11.75,72.32s1.11,6.48,8.49,10.69c0,0,9.68,7.24,27.73,8.46,0,0,23.23,2.28,36.31-7.13,0,0,10.91-5.72,11.37-14.93l9.93-62.25-7.75-20.84-12.03-7.72-8.5,8.14-3.77-2.63-.42-4.55-20.31-14.7-10.55,15.19-7.47-7.67-5.41,9.77-1.55-.24-3.58-4.56s-2.57.39-5.11,3.11c0,0-5.84-3.96-10.52-2.39,0,0-3,4-1.31,10.99l.24.79Z"/>
  <path class="cls-6" d="m240.23,167.66l-11.86-72.98,5.61-8,6.64,6.53v6.84l.53-6.96,4.45,2.91,1.28,10.27v-12.93l4.91-5.62.72,6.95.46-9.66,7.21-12.26,5.83,5.62-.41,2.55,1.33,1.74-.77,12.26,2.32-10.77-.99-3.64-.1-2.3,3.47-3.63,2.04,5.83-.66-7.66,5.77-8.79,16.22,11.84-1.58,6.84v4.21l2.02-6.75,6.05,5.53s-1.05,12.37-2.46,18.33l2.81-6.4,1.75-12.98,7.95-7.21,8.08,5.3,7.1,19.04-9.82,63.47s-5.93,15.43-37.39,16.4c0,0-23.52,1.73-38.5-13.91Z"/>
  <path class="cls-7" d="m248.94,168.57c2.45,2.95,6.26,6.76,8.27,9.99,0,0-.06.08-.06.08-1.97-1.08-3.31-2.87-4.56-4.66-1.29-1.75-2.53-3.53-3.72-5.34l.08-.06h0Z"/>
  <path class="cls-10" d="m273.2,71.26l5.53,37.78,6.85-3.74s-1.29,56.68-11.72,76.2c0,0,32.68,2.06,42.26-16.35l9.82-63.47-7.1-19.04-8.08-5.3-7.95,7.21-1.75,12.98-2.81,6.4,3.08-18.21-6.68-5.64-2.02,6.75v-4.21l1.58-6.84-16.22-11.84-4.79,7.3Z"/>
  <path class="cls-7" d="m297.01,179.5c1.79-1.89,2.91-4.23,5.01-5.81,0,0,.09.05.09.05-.2,1.38-1.07,2.43-2.07,3.3-.93.91-1.92,1.75-2.95,2.53l-.07-.07h0Z"/>
  <path class="cls-12" d="m266.77,163.93s10.58,12,20.84,0c0,0-10.26-4.89-20.84,0Z"/>
  <circle class="cls-12" cx="255.36" cy="138.13" r="11.41"/>
  <circle class="cls-12" cx="300.56" cy="138.13" r="11.41"/>
  <circle class="cls-11" cx="259.98" cy="135.54" r="4.62"/>
  <circle class="cls-11" cx="305.18" cy="135.54" r="4.62"/>
  <path class="cls-9" d="m242.35,88.95c-2.9-.62-9.92-3.25-7.36-14.16,0,0,10.92-.38,10.14,12.51-.02.28-.1.56-.27.78,0,0,0,.01-.01.02-.58.76-1.57,1.06-2.5.86Z"/>
  <path class="cls-8" d="m244.34,88.6s-7.19-8.9-9.35-13.82c0,0,7.71-.49,9.95,7.11,0,0,1.74,4.82-.6,6.71Z"/>
  <path class="cls-8" d="m247.92,84.45s.72-5.23-2-7.57c0,0-.33-2,1.56-2.95,0,0,4.18,2.9,2.45,9.86,0,0-.36,1.07-2,.67Z"/>
  <g>
    <path class="cls-1" d="m440.54,95.66s-.39-.28-.29-1.12-.29-1.06-.39-1.21v-2.93s-.21-1.21-.87-1.76c0,0,.44-1.88-1.11-4.52l-2.34-5.13s-.44-1.33-.44-3.53c0,0,.07-1.25-18.96-.3,0,0-5.59.22-9.83,1.88,0,0-1.87.36-3.28.21,0,0-2.82.1-4.47.84l-5.41,1.13s-7.34.98-10.33,1.21l-6.63-.12s-2.66-.38-3.45.57l-2.03,1.55s-1.17.72-.85,1.8l-.06,1.65s.11,1.07-.69,1.92c0,0-1.79,1.25-2.45,7.52l-1.86,11.97-.53,22.44-.35,5.03s-.09,1.63.19,5.1c0,0,.3,5.17-.2,7.06,0,0-.19,4.54.31,6.94l.02,5.58s2.59,5.15,3.08,5.58c0,0,.9.95,2.25,1.35l3.84,1.52,3.83,1.12s1.13.28,3.33,0c0,0,3.34.28,4.92.67,0,0,1.75.75,3.15.48l8.08.06s-1.13,4.1-.85,6.76c0,0-.4,4.09-1.02,5.64,0,0-.56,1.68-.38,5.28l-.04,2.04s3.26.37,6.04,1.26l6.31,1.72,2.53-13.84,1.24-7.99s.06-1.18.94-1.49c0,0,1.21-.08,1.12-1.76,0,0-.36-1.06.29-2.32,0,0,1.42-1.64,1.31-3.47,0,0-.33-4.01.28-7.81,0,0,1.15-6.06,3.03-9.03,0,0,.72-1.11.55-2.6l-.02-5.78s.14-2.43.66-3.33l1.23-2.39s.31-.79-.6-1.29l-.28-.05.09-7.4s.22-.77-.81-.81l-11.11.36s-2.7-.57-4.76.38c0,0-7.82.38-9.89.91l-1.3,9.22s-1.07,3.48.75,4.53l-1.67,1.36,3.39.69-1.69,1s-.65.61.39.66l3.02-.3s1.82-.38,1.53,1.63l-.78,6.6s-.34,3.91-3.24,3.5l-4.08-.22s-1.63-.57-6.29-.25c0,0-2.45-.35-3.19-1.85,0,0-.69-.65-.14-4.24l.83-6.08s2.68-12.84,3.67-15.31c0,0,2.05-6.23,2.05-9.91,0,0,2.33-4.5,2.4-7.51,0,0,.33-.8.73-.96,0,0,2.24-1.41,1.97-4.69,0,0,.59-2.84,3.84-4.77l7.3-1.89,11.54-.16,9.78,1.17s6.96,1.08,9.87.88c0,0,2.54.25,3.83-.1.05-.01.09-.03.13-.04,1.25-.41,2.18-.49,3.13-.41,0,0,.2.07.21-.08Z"/>
    <path class="cls-3" d="m472.64,110.92c-1.46-1.92-4.1-3.29-4.1-3.29-.97-1.05-2.16-1.68-2.16-1.68-3.11-.7-6.27-.28-6.27-.28-1.53.56-4.19.28-4.19.28-4.22-.51-8,.18-8,.18l-4.11-.18h-10.2c-1.36.14-1.12,1.38-1.12,1.38-.35,1.24,1.08,1.55,1.08,1.55,1.17.03,1.48.7,1.48.7.66,1.07,0,2.39,0,2.39,0,0-.44.33-.44.73s-.5.6-.5.6l-1.3-.07.92.8-2.9,1.66c-.62.35-.68.88-.68.88-.06.98-.98,4.86-.98,4.86-.03,1.54,1.48,1.16,1.48,1.16l2.33.14c1.17.7.66,2.37.66,2.37l-.43,1.86-3.97,16.15c-.31,2.44-1.59,5.44-1.59,5.44-1.55,2.62-1.4,8.99-1.4,8.99l-1.4,3.05c-.61,1.84-.16,3.75-.16,3.75,2.21,2.15,2.01,6.28,2.01,6.28.21.92-.59,5.82-.59,5.82l.05,3.35s-.78.36-.84.69c-.07.33.66.4.66.4,1.59,1.01,3.43-.12,3.43-.12l10.45-2.11c1.35,0,1.35-.89,1.35-.89,0-.78.59-1.7.59-1.7l2.49-8.26.1-2.69c.21-2.53,1.6-1.87,1.6-1.87l1.52,1.14c2.56,2.35,2.07,5.8,2.07,5.8,0,0-.14,10.37-.1,12.17.03,1.8.93,2.06.93,2.06,1.04.88.45,3.12.45,3.12-.69,3.6-.33,7.98-.33,7.98.21,1.07,1.17.69,1.17.69,1.27-.41,3.23-.37,3.23-.37,1.04-.92,2.7-1.2,2.7-1.2,1.95,0,4.65.6,4.65.6,5.84-.14,7.09-1.95,7.09-1.95v-9.41c.94-1.2.65-2.6.65-2.6-.28,0-.33-1.81-.33-1.81.1-3.9-.56-7.05-.56-7.05.61-2.26-.14-2.66-.14-2.66-1.27-1.95-.7-3.99-.7-3.99,1.17-2.19-.58-5.12-.58-5.12-.82-1.28-.47-1.74-.47-1.74.51-1.32-4.08-3.99-4.08-3.99-1.28-.86.37-1.91.37-1.91,4.5-3.03,6.04-6.25,6.04-6.25,2.82-5.16,4.04-13.7,4.04-13.7,1.02-3.89.98-15.04.98-15.04.35-5.05-1.95-7.09-1.95-7.09Zm-16.69,27s-.86,1.2-6.66,1.08h-3.08l.22-5.96s1.35-.61.44-2.71c0,0-.31-1.71-.29-3.15l.36-4.69s.44-2.09-.13-2.84c0,0-.33-.58,0-.68.32-.1,1.64-1.16,1.64-1.16h6.33s1.17-.17,1.95,1.07c0,0,3.19,4.93,3.11,10.06,0,0,.31,7.53-3.89,8.98Z"/>
    <path class="cls-4" d="m530.44,107c-1.68-1.48-2.11-.24-2.11-.24l-6.89,5.57c-1.8.35-1.39-.5-1.39-.5,1.15-1.63.63-2.19.63-2.19-.23-1.05-2.55-.68-2.55-.68-1.97.44-1.55-1.15-1.55-1.15.23-1.37-.75-1.45-.75-1.45-1.03-.37-2.39-.28-2.39-.28-2.17-.09-2.96.44-2.96.44-1.68.84-2.79.28-2.79.28l-1.2-.5c-2.44-.98-3.52.17-3.52.17l-3.1,1.54c-.85.7-5.07,1.38-5.07,1.38-.89.29-1.55.13-1.55.13-3.55-.7-4.64,1.71-4.64,1.71-.26.49-1.09.8-1.09.8l-2.16.9c-1.69.9-1.97,3.9-1.97,3.9-1.37,2.7-1.55,8.34-1.55,8.34-1.51,1.5-.98,7.53-.98,7.53.98,3.17,0,32.35,0,32.35l-.09,5.85c-.03,2.66,3.59,2.31,3.59,2.31,1.81.39,9.44,0,9.44,0,.73-.15,5.34-.55,5.34-.55,6.89.05,9.76-.42,9.76-.42l2.91-.78c1.24.25,3.78-1.28,3.78-1.28,4.11-1.29,4.71-2.85,4.71-2.85.78-1.1,1.95-2.28,1.95-2.28,1.85-1.81,1.96-5.42,1.96-5.42.06-2.5.91-4.49.91-4.49,1.51-2.77.44-4.56.44-4.56-.72-.83-.4-1.54-.4-1.54.74-.35.76-1.16.76-1.16.08-1.07.71-1.47.71-1.47.83-.02.77-1.21.77-1.21.15-.76,1.85-3.05,1.85-3.05,1.98-2.69-.42-4.75-.42-4.75,0,0,.23-.55.68-1.77.46-1.21.26-3.14.26-3.14.77-.57,1-1.56,1-1.56-.04-2.08.35-6.15.35-6.15.6-1.4.98-3.93.98-3.93,0-1.81.77-6.01.77-6.01,1.14-6.33-2.43-7.84-2.43-7.84Zm-18.67,28.7s-.72,6.99-1.4,9.18c0,0-.97,2.69-.77,7.05,0,0-1.18,4.86-3.04,5.56,0,0-.35.34-2.5.15l-6.7-.11s-1.03-.15-1.19-.46c0,0-2.26-.57-2.37-4.41l1.83-16.13s1.14-3.45,4.66-3.83l7.58.24s4.42.41,3.9,2.76Z"/>
    <path class="cls-2" d="m581.03,136.36c.3-2.38,0-6.4,0-6.4,0-4.36-4.01-4.84-4.01-4.84-.91.1-2.12-.4-2.12-.4-1.68-.83-2.51-.87-2.51-.87-.92-.11-2.53.35-2.53.35-1.34.08-1.68-.43-1.68-.43-2.09-1.15-3.23-.96-3.23-.96-2.06-.16-3.51.52-3.51.52-1.17.68-2.62.16-2.62.16-2.93-.5-4.48.35-4.48.35-1.54.59-7.14,0-7.14,0-1.9-.05-3.89.61-3.89.61-1.64.69-1.97,1.09-2.69,1.7-.73.6-1.37,1.84-1.48,2.2-.1.35-.41,1.1-.41,1.1-.42.71-.42,1.07-.42,1.07l-.44,2.42c-.41,2.59-1.42,2.48-1.42,2.48-1.17.99-.22,2.09-.22,2.09.24.27,0,2.63,0,2.63-.5.54-.78,1.64-.78,1.64,0,0,1.45,2.79,1.89,2.87.44.09.16.72.16.72-.16.42.18.66.18.66.5.31.32.68.32.68-2.03-.07-3.58,1.79-3.58,1.79v4.56c.58,2.34-1.24,3.58-1.24,3.58-1.7.99-1.35,3.8-1.35,3.8v9.22c-.17,3.17,2.9,5.01,2.9,5.01,3.83,2.36,9.61,2.64,9.61,2.64,2.67.43,10.18.51,10.18.51,1.65-.35,3.27-.23,3.27-.23,2.37.51,9.12,0,9.12,0,6.92-.21,10.24-1.74,10.24-1.74,1.34,0,1.37-1.82,1.37-1.82-.61-1.09.12-3,.12-3,.76-.53.84-2.11.84-2.11.88-3.86.96-18.76.96-18.76.47-2.06.3-3.85.3-3.85-.69-1.06,0-4.59,0-4.59.52-1.28.29-5.36.29-5.36Zm-12.6,16.46s-.25,3.37-.56,4.61c0,0-.48,4.9-2.61,5.74,0,0-.94.95-3.82.81l-4.37-.41s-2.85-.28-4.44-1.92c0,0-1.75-.42-1.7-3.43,0,0,.07-3.69.8-5.16l.11-.24s1.18-2.47,2.1-3.55c0,0,.51-.93.51-2.31,0,0,.36-2.72.84-4.13,0,0,.44-3.67,2.59-5.16,0,0,1.38-1.52,5.59-1.63l3.71-.19s1.82.08,1.74,2.33c0,0,.05,5.67-.49,14.64Z"/>
    <path class="cls-5" d="m587.14,115.15l-33.1.61-3.06.17s-2,.22-1.45-1.39l2.9-3.97s.61-1.06-.31-1.28l-2.11-.35s-.54-.11-.59-.39c0,0-.17-.2.59-.67,0,0,1.82-1.56,1.88-2.08,0,0,.43-.69-.29-.98l-5.28-3.32s8.97-.3,13.38-.76l19.73-2.2,6.45-.9s1.32-.41,2.81.15c0,0,2.92.85,5.53-.29,0,0,3-1.33,5.4-1.08l29.58-.03,12.66-.19s.7-.16,1.57.54l5.08-.23-3.52,5.71s-1.57,1.44.23,2.24l4.22,1.84s-2.17.87-2.64,1.57c0,0-2.17,2.2-3.71,2.54,0,0-.75.21.15.95,0,0,2.82,2.46,5.49,3.41l1.33.58-37.05.85h-2.88s-2.04-.65-2.61,2.86l-2.76,16.24s-2.23,17.36-3.61,19.62c0,0-1.02,3.83-.2,5.01,0,0,.19.41-.16,1.77,0,0-.34,2.83-.14,3.85,0,0,.05,1.27-.25,2.68l-.16,10.42s-2.01-5.84-3.77-6.45c0,0-1.39-.37-1.68,1.56l-1.39,5.87s-.67-.37-.72-1.51c0,0,.05-2.42-.91-1.99,0,0-1.04-.31-1.14,2.26,0,0-.63,2.9-.92,3.15,0,0-1.5-.11-1.76-1.28,0,0-.21-2.34.34-3.68,0,0,.45-3.01.45-4.19l.39-6.37.13-11.31-.09-5.54s.13-3.43.62-5.07c0,0,.75-6.1.35-7.51l-.45-1.66s-.4-.69.02-1.88c0,0,.8-3.94.77-6l.17-9.35s.44-1.86-1.54-2.19l-1.98-.33Z"/>
  </g>
</svg>