<svg width="772" height="752" viewBox="0 0 772 752" fill="none" xmlns="http://www.w3.org/2000/svg">
<path d="M496.757 188C496.757 188 492.894 186.544 493.002 181.588C493.002 181.588 499.519 174.483 500.422 167.964C500.422 167.964 502.101 161.446 502.209 156.384C502.209 156.384 501.722 151.819 506.072 151.428C506.072 151.428 508.744 151.428 508.437 156.384C508.437 156.384 509.231 161.446 512.589 161.446C512.589 161.446 517.03 160.86 520.298 157.36L534.631 147.431C534.631 147.431 536.617 145.868 538.495 148.693C538.495 148.693 540.173 151.019 537.411 152.973C537.411 152.973 514.467 169.705 513.979 171.357C513.979 171.357 500.332 183.719 499.934 185.069C499.537 186.419 496.775 187.982 496.775 187.982L496.757 188Z" fill="#909B49"/>
<path d="M237.665 186.025L229.711 199.998C229.711 199.998 226.834 205.17 227.154 213.919L226 238.182C226 238.182 227.154 258.177 228.344 266.625L240.47 331.392C240.47 331.392 247.43 351.989 247.75 359.658C247.75 359.658 255.491 390.864 271.204 409.318C271.204 409.318 278.519 423.38 299.346 436.203C299.346 436.203 339.561 460.979 371.751 459.97C371.751 459.97 399.342 457.101 437.622 440.311C437.622 440.311 469.705 425.948 491.526 382.699C495.947 373.933 497.651 373.596 499.143 363.891C500.386 355.779 502.392 351.511 503.901 337.361L509.032 299.053C509.032 299.053 518.585 257.876 523.556 248.915C523.556 248.915 526.805 240.573 523.556 236.624C523.556 236.624 513.933 245.443 510.63 260.568C510.63 260.568 503.848 280.28 503.244 281.661C503.244 281.661 501.149 286.939 501.043 281.962C501.043 281.962 503.937 264.057 505.73 260.568C505.73 260.568 507.328 252.014 509.015 249.729C509.015 249.729 513.205 239.882 513.311 237.084C513.311 237.084 514.714 230.814 518.3 228.725C518.3 228.725 522.189 223.146 519.206 216.682C519.206 216.682 517.004 211.315 514.217 210.111C514.217 210.111 515.548 220.649 510.027 225.625C510.027 225.625 501.788 233.737 502.161 239.634C502.161 239.634 501.966 244.841 497.705 244.965C497.705 244.965 495.698 245.709 496.888 240.006C496.888 240.006 497.9 230.726 500.776 227.591C500.776 227.591 505.304 220.578 508.322 217.691C508.322 217.691 511.589 212.608 511.145 206.409C511.145 206.409 511.713 201.327 506.493 201.451C506.493 201.451 503.422 201.84 498.965 206.516C498.965 206.516 496.32 209.42 493.887 208.074C493.887 208.074 492.272 208.003 491.668 205.506L482.79 169.66L477.198 149.435C477.198 149.435 476.789 145.556 474.073 148.921C474.073 148.921 454.897 170.032 449.802 173.681C449.802 173.681 445.079 177.099 443.41 177.843C443.41 177.843 441.599 177.612 442.824 176.302C442.824 176.302 466.438 146.46 470.238 142.599C470.238 142.599 473.505 139.677 470.895 138.543C470.895 138.543 457.348 131.671 451.311 130.024L442.416 126.589C442.416 126.589 439.557 125.703 439.788 129.369C439.788 129.369 440.196 141.536 437.267 148.036L428.513 200.919L422.637 226.723C422.637 226.723 421.234 228.654 420.914 226.351C420.914 226.351 421.749 207.702 422.281 201.397L427.803 148.78C427.803 148.78 429.259 138.756 430.324 136.276C430.324 136.276 431.035 132.468 431.177 129.759C431.177 129.759 432.597 124.764 425.389 126.004C425.389 126.004 409.107 129.316 403.745 131.831C403.745 131.831 391.459 136.099 387.659 147.558C387.659 147.558 384.605 157.139 379.669 163.019L374.574 170.475C374.574 170.475 372.869 173.822 371.804 170.245L361.808 117.45L359.819 104.592C359.819 104.592 358.008 92.2657 351.741 92L340.644 93.1866C340.644 93.1866 335.939 93.1866 336.401 100.111L339.099 156.254L340.218 181.314C340.218 181.314 339.241 193.215 344.106 201.397L351.847 214.981C351.847 214.981 360.103 226.192 359.802 234.711V249.056C359.802 249.056 359.5 255.149 357.067 248.915L353.818 236.057C353.818 236.057 352.469 224.014 344.728 214.946C344.728 214.946 342.437 211.793 342.384 216.079L342.615 230.301C342.615 230.301 341.834 236.269 339.88 230.584C339.88 230.584 337.821 223.11 337.253 220.047L334.572 198.776L331.358 142.209L331.607 101.546L331.571 97.5788C331.571 97.5788 331.482 94.2669 328.677 94.6034C328.677 94.6034 324.398 94.7982 324.451 99.3321L322.729 144.122L321.806 156.714C321.806 156.714 319.782 160.628 319.018 156.413C319.018 156.413 317.651 140.651 318.486 131.193V102.378C318.486 102.378 318.734 96.5339 312.928 98.4289C312.928 98.4289 289.971 106.948 287.699 109.374C287.699 109.374 282.994 110.578 282.638 117.716C282.638 117.716 275.519 150.657 275.519 158.892C275.519 158.892 272.589 192.046 274.152 206.445L276.708 238.324C276.708 238.324 276.442 242.486 274.542 238.589C274.542 238.589 271.701 229.486 271.63 223.872C271.63 223.872 270.068 207.437 267.564 201.539C267.564 201.539 261.155 183.829 255.864 179.277L251.62 175.044C251.62 175.044 248.442 170.847 246.152 174.07C246.152 174.07 244.838 173.663 246.01 188.805L247.128 221.304C247.128 221.304 246.578 228.512 244.643 221.463C244.643 221.463 243.08 212.768 243.009 210.908C243.009 210.908 241.536 199.272 240.914 197.094L239.778 189.372C239.778 189.372 238.801 184.909 237.487 186.06L237.665 186.025Z" fill="#DAB27A"/>
<path d="M403.17 392C384.255 392 355.676 393.251 343 393.251C343 393.251 345.104 413.878 371.108 418C371.108 418 396.188 416.951 403.188 397.097C403.188 397.097 404.24 395.146 403.949 392.607L403.188 392H403.17Z" fill="#5D1412" stroke="#221F20" stroke-width="2" stroke-linecap="round" stroke-linejoin="round"/>
<path d="M500.167 184C500.167 184 497.983 179.396 497 179.327C497 179.327 500.667 173.681 500.833 171.944C500.833 171.944 501.883 178.597 507.217 174.063C507.217 174.063 511.65 168.208 516 168L500.167 183.983V184Z" fill="#DAB27A"/>
<path d="M377.609 165.854C377.609 165.854 373.789 174.966 385.283 172.611C385.283 172.611 394.325 173.438 400.188 161.128C400.188 161.128 400.099 156.311 407.329 158.72C407.329 158.72 417.491 161.631 422.074 158.037C422.074 158.037 425.449 155.485 426.373 157.228L427.261 157.983L428.7 146.104C428.7 146.104 430.263 135.519 431.045 134.638L431.898 128.025C431.898 128.025 433.017 123.694 427.847 124.017C427.847 124.017 418.485 125.868 415.306 126.713C415.306 126.713 404.718 128.205 399.051 132.931C399.051 132.931 392.265 137.064 389.707 142.869C389.707 142.869 385.319 154.838 383.88 156.473L377.627 165.836L377.609 165.854Z" fill="#909B49"/>
<path d="M439.548 146.649C439.548 146.649 437.306 163.786 441.892 167.228C441.892 167.228 447.831 171.133 455.36 161.379L471.31 141.175C471.31 141.175 474.647 137.626 471.943 137.091L449.593 127.123L445.469 125.464C445.469 125.464 441.995 123.432 441.961 127.872C441.961 127.872 442.372 141.638 439.531 146.667L439.548 146.649Z" fill="#909B49"/>
<path d="M455.034 169.252C455.034 169.252 474.161 149.757 474.952 147.481C474.952 147.481 476.689 144.148 478.255 147.481L482.899 166.565L490.123 196.811L491.396 202.187L491.998 204.713C491.998 204.713 493.511 210.071 498.396 206.362C498.396 206.362 503.109 200.951 506.343 200.61C506.343 200.61 511.984 200.306 510.849 208.011C510.849 208.011 511.176 214.676 505.225 220.518C505.225 220.518 500.615 222.919 500.443 217.006C500.443 217.006 493.597 220.715 492.754 214.157C492.754 214.157 492.256 211.146 490.243 209.39C490.243 209.39 486.562 208.817 485.84 204.803C485.84 204.803 482.538 193.532 478.736 188.587L460.865 170.955C460.865 170.955 459.283 168.643 455 169.235L455.034 169.252Z" fill="#909B49"/>
<path d="M508 229.228C508 229.228 510.54 230.475 509.755 234.877C509.755 234.877 508.351 244.542 512.178 245L514.385 236.931C514.385 236.931 516.123 230.035 519.081 228.275C519.081 228.275 522.407 223.965 520.301 216.794C520.301 216.794 519.098 211.476 515.237 209C515.237 209 516.257 218.206 512.496 223.616L508.017 229.228H508Z" fill="#909B49"/>
<path d="M508 269.155L511.868 257.049C511.868 257.049 515.147 244.504 523.838 236C523.838 236 527.845 242.923 520.976 255.327L514.8 276.833C514.8 276.833 511.07 283.51 508.833 279.96C508.833 279.96 506.716 279.363 510.238 270.104C510.238 270.104 509.509 267.486 508 269.155Z" fill="#909B49"/>
<path d="M339.377 146.166C339.377 146.166 346.902 152.588 347.936 141.397C347.936 141.397 347.047 132.273 355.117 137.386C355.117 137.386 358.199 143.343 361.917 144.927C361.917 144.927 366.794 146.338 365.888 136.525L364.292 123.217L360.937 104.055C360.937 104.055 358.489 92.6583 354.7 92.3311C354.7 92.3311 352.179 91.4359 345.162 92.5894L341.354 92.9853C341.354 92.9853 336.657 92.6238 337.02 99.7169L339.359 146.183L339.377 146.166Z" fill="#909B49"/>
<path d="M324 145.872C324 145.872 327.661 150.845 331.959 145.587V97.4998C331.959 97.4998 332.595 92.3845 328.871 93.0618C328.871 93.0618 325.52 93.4539 325.691 97.7315L325.35 107.962L324 145.854V145.872Z" fill="#909B49"/>
<path d="M319 99.3289C319 99.3289 317.622 95.528 313.136 97.6377L290.158 107.175C290.158 107.175 283.853 108.779 283.5 117.113L278.925 139.918L277.406 148.949L277 151.878C277 151.878 285.601 153.447 295.315 145.323C295.315 145.323 302.68 156.167 309.939 143.422C309.939 143.422 316.315 148.478 319 139.848V99.3289Z" fill="#909B49"/>
<path d="M247.671 197.323C247.671 197.323 259.935 202.305 262 185.244C262 185.244 258.312 178.506 252.012 173.005C252.012 173.005 248.147 169.833 247 174.761L247.688 197.323H247.671Z" fill="#909B49"/>
<path d="M294.5 368C315.211 368 332 351.435 332 331C332 310.565 315.211 294 294.5 294C273.789 294 257 310.565 257 331C257 351.435 273.789 368 294.5 368Z" fill="#100F0E"/>
<path d="M448.5 368C469.763 368 487 351.435 487 331C487 310.565 469.763 294 448.5 294C427.237 294 410 310.565 410 331C410 351.435 427.237 368 448.5 368Z" fill="#100F0E"/>
<path d="M284 335C290.075 335 295 329.404 295 322.5C295 315.596 290.075 310 284 310C277.925 310 273 315.596 273 322.5C273 329.404 277.925 335 284 335Z" fill="white"/>
<path d="M439 335C445.627 335 451 329.404 451 322.5C451 315.596 445.627 310 439 310C432.373 310 427 315.596 427 322.5C427 329.404 432.373 335 439 335Z" fill="white"/>
<path d="M304 356C307.314 356 310 353.314 310 350C310 346.686 307.314 344 304 344C300.686 344 298 346.686 298 350C298 353.314 300.686 356 304 356Z" fill="white"/>
<path d="M456.5 356C459.538 356 462 353.314 462 350C462 346.686 459.538 344 456.5 344C453.462 344 451 346.686 451 350C451 353.314 453.462 356 456.5 356Z" fill="white"/>
<path d="M367 466.914C367 466.914 374.197 464.857 379 466.914C379 466.914 373.104 472.94 372.168 477L367 466.914Z" fill="#DAB27A"/>
<path d="M382.957 516.026C382.957 516.026 375.86 516.884 375.963 512.401C375.963 512.401 375.74 511.018 376.702 509.004C376.702 509.004 378.524 499.811 375.946 496.186C375.946 496.186 371.908 492.229 375.465 487.624C375.465 487.624 380.328 473.23 391.651 466.541L410.639 465L421 506.203C421 506.203 418.371 512.244 407.494 517.112C407.494 517.112 401.944 519.948 405.759 515.483C405.759 515.483 407.769 512.314 408.096 511.473C408.096 511.473 408.405 509.722 405.484 512.104C405.484 512.104 401.343 517.865 393.421 517.567L382.957 515.991V516.026Z" fill="#DAB27A"/>
<path d="M324.793 512.218C324.793 512.218 321.363 509.857 323.571 507.016C323.571 507.016 326.18 504.353 326.088 502.88C326.088 502.88 325.523 501.744 322.622 503.466C322.622 503.466 320.323 504.052 321.199 500.892L325.067 484.718C325.067 484.718 326.508 476.356 328.643 473.143L332.091 464L344.807 464.941C344.807 464.941 353.674 465.154 358.947 469.752C358.947 469.752 368.124 476.534 369.602 482.925C369.602 482.925 371.025 484.647 368.16 490.08C368.16 490.08 366.354 495.761 369.948 499.169C369.948 499.169 376.644 510.354 365.843 514.934C365.843 514.934 358.491 516.799 354.97 516.799C354.97 516.799 353.966 516.692 354.495 515.609C354.495 515.609 356.028 513.621 355.699 512.911C355.371 512.2 354.751 512.236 353.911 512.822C353.911 512.822 347.781 518.609 341.925 519C341.925 519 334.791 518.947 332.273 517.1L324.793 512.236V512.218Z" fill="#DAB27A"/>
<path d="M317 527.092L319.951 514.559C319.951 514.559 320.057 513.302 321.444 514.559C322.83 515.815 330.26 521.355 330.26 521.355C330.26 521.355 333.406 524.662 336.019 523.256C336.019 523.256 337.974 522.281 338.579 524.05L341.138 530.515C341.138 530.515 344.142 536.237 338.934 537.493C338.934 537.493 334.935 539.031 330.473 536.749C330.473 536.749 327.025 535.592 322.972 532.466C322.972 532.466 319.062 529.771 317.018 527.059L317 527.092Z" fill="#DAB27A"/>
<path d="M316.111 534.645C316.111 534.645 315.108 546.511 315.108 550.55C315.108 550.55 313.944 555.437 319.264 554.968L335.674 553.796C335.674 553.796 340.152 554.337 340.923 550.063V546.114C340.923 546.114 341.997 540.993 336.139 541.768C336.139 541.768 330.281 542.616 327.343 539.442L320.178 534.627C320.178 534.627 316.38 530.966 316.093 534.627L316.111 534.645Z" fill="#DAB27A"/>
<path d="M381.039 565.409C381.039 565.409 359.36 561.362 355.135 558.514C355.135 558.514 347.509 555.935 344.573 552.64C344.573 552.64 340.438 548.772 345.576 547.679L360.094 549.703C360.094 549.703 363.961 549.327 354.025 547.214L348.977 546.014C348.977 546.014 342.998 545.19 344.484 540.498C344.484 540.498 347.062 534.069 344.752 532.744C344.752 532.744 340.295 524.613 346.65 522.5C346.65 522.5 355.672 519.008 369.636 519.008C369.636 519.008 392.138 518.739 396.094 521.389C396.094 521.389 401.143 523.771 394.806 528.195C394.806 528.195 393.893 529.305 384.423 528.66C384.423 528.66 379.285 529.574 384.423 531.15L392.317 531.329C392.317 531.329 396.435 530.702 396.757 534.176C396.757 534.176 397.491 537.74 391.261 536.522L370.495 535.072C370.495 535.072 367.112 535.484 371.318 536.773C371.318 536.773 380.198 539.352 387.323 538.958C387.323 538.958 398.798 538.546 397.186 544.528L389.113 560.359L386.535 564.245C386.535 564.245 383.993 567.236 381.057 565.409H381.039Z" fill="#DAB27A"/>
<path d="M394.658 579.1C394.658 579.1 404.866 571.472 407.701 564.078C407.701 564.078 409.961 558.536 410.212 554.093L402.013 568.179C402.013 568.179 395.985 576.815 392.146 574.638C392.146 574.638 386.297 572.281 390.549 565.157L399.591 547.958C399.591 547.958 403.879 541.211 400.991 533.529C400.991 533.529 397.725 525.146 406.839 522.213C406.839 522.213 414.697 519.946 420.385 515.665C420.385 515.665 423.058 513.488 423.901 517.014C423.901 517.014 424.493 519.443 420.474 522.213C420.474 522.213 415.2 526.657 417.622 528.582C417.622 528.582 419.38 530.183 423.147 525.973C423.147 525.973 425.157 523.203 425.157 527.394L426 535.958C426 535.958 425.587 542.327 421.82 544.27C421.82 544.27 414.913 551.61 416.133 563.754C416.133 563.754 416.151 581.529 407.485 583.562C407.485 583.562 398.407 588.761 395.16 583.975C395.16 583.975 392.953 581.151 394.64 579.082L394.658 579.1Z" fill="#DAB27A"/>
<path d="M429 583L426.771 546C426.771 546 419.803 547.811 419.073 560.008V573.342C419.073 573.342 417.499 581.757 429 583Z" fill="#DAB27A"/>
<path d="M315.55 572.174L337.272 579.569C337.272 579.569 345.342 583.266 349.195 578.775L357.041 569.017C357.041 569.017 360.808 564.923 353.412 561.135L346.24 557.6C346.24 557.6 339.225 555.002 333.194 556.427L317.296 558.087C317.296 558.087 313.045 559.584 316.363 561.243C316.363 561.243 330.999 562.181 333.937 563.444C333.937 563.444 336.805 565.229 333.488 565.752H318.402C318.402 565.752 312.751 565.337 314.254 570.045C314.254 570.045 314.635 571.38 315.533 572.174H315.55Z" fill="#DAB27A"/>
<path d="M363.348 591.956L356.18 587.328C356.18 587.328 351.148 585.277 353.744 580.352L362.394 569.133C362.394 569.133 363.206 564.294 373.852 566.643C373.852 566.643 384.056 569.448 388.699 578.984C388.699 578.984 392.548 587.416 387.005 587.994L378.142 591.956C378.142 591.956 374.293 593.569 370.974 591.956C370.974 591.956 365.802 594.305 363.365 591.956H363.348Z" fill="#DAB27A"/>
<path d="M379.847 606.915C379.847 606.915 377.941 600.686 379.847 597.616C379.847 597.616 383.352 594.387 386.13 597.054C386.13 597.054 389.29 600.23 389.762 602.055C389.762 602.055 391.487 605.055 391.959 602.23C391.959 602.23 390.47 593.931 399.277 590.773L413.476 586.246C413.476 586.246 421.556 581.736 420.176 589.878C420.176 589.878 417.761 605.897 416.254 608.845C416.254 608.845 415.02 612.618 417.562 610.547C417.562 610.547 420.431 608.599 421.538 601.669L423.027 593.018C423.027 593.018 422.991 588.93 426.623 588.825C426.623 588.825 429.691 588.351 430 593.001V606.073C430 606.073 422.61 618.566 413.367 619.303C413.367 619.303 400.457 621.917 392.939 617.022L381.391 610.003C381.391 610.003 379.829 608.529 379.866 606.897L379.847 606.915Z" fill="#DAB27A"/>
<path d="M326.188 618.257C326.188 618.257 332.925 621.339 332.976 614.949C332.976 614.949 331.351 609.259 334.093 605.302C334.093 605.302 339.645 594.676 337.512 589.634C337.512 589.634 336.632 584.277 329.692 582.649L317.843 578.43C317.843 578.43 313.442 576.224 314.136 581.808L314.728 592.295C314.728 592.295 320.382 599.56 320.45 604.322C320.45 604.322 320.517 607.421 318.621 604.935C318.621 604.935 316.573 599.035 315.033 599.035C315.033 599.035 313.729 598.737 314.051 603.639C314.051 603.639 315.456 609.959 319.823 613.758C319.823 613.758 324.004 617.627 326.154 618.257H326.188Z" fill="#DAB27A"/>
<path d="M339.072 618.998C339.072 618.998 333.864 617.254 337.01 611.027L340.016 604.337C340.016 604.337 341.764 597.647 341.117 594.018C341.117 594.018 340.278 585.442 345.346 586.029L358.227 592.986C358.227 592.986 363.33 594.587 362.84 599.978C362.84 599.978 364.151 607.006 359.258 609.799C359.258 609.799 347.024 617.699 346.71 618.98C346.71 618.98 341.676 621.275 339.072 618.98V618.998Z" fill="#DAB27A"/>
<path d="M325.714 633.898C325.714 633.898 322.163 638.81 323.335 650.378C323.335 650.378 322.251 653.239 314.936 650.378C314.936 650.378 309.645 648.671 311.332 638.311L312.095 623.641L312.184 620.21C312.184 620.21 311.598 614.918 315.54 618.09C315.54 618.09 322.518 623.882 330.65 624.865L344.925 625.433C344.925 625.433 351.637 625.175 354.584 620.951C354.584 620.951 358.685 615.573 361.473 617.366L361.988 632.932V640.345C361.988 640.345 362.663 650.86 353.927 652.084C353.927 652.084 347.038 654.36 345.28 648.016C345.28 648.016 343.682 636.518 341.498 635.794L341.338 650.55C341.338 650.55 340.167 654.118 334.361 652.498C334.361 652.498 330.082 651.705 328.981 652.929C328.981 652.929 326.371 653.653 326.193 650.481L325.714 633.915V633.898Z" fill="#DAB27A"/>
<path d="M387.054 650.863C387.054 650.863 396.138 638.983 393.529 629.382C393.529 629.382 389.876 619.43 380 617V645.719C380 645.719 381.971 651.935 387.054 650.879V650.863Z" fill="#DAB27A"/>
<path d="M392.026 660H398.597C398.597 660 401.753 658.543 398.597 654.861C398.597 654.861 394.961 650.512 391.288 655.11C391.288 655.11 387.947 658.876 392.026 660Z" fill="#DAB27A"/>
<path d="M406.409 653C406.409 653 418.64 652.547 427.467 649.252C427.467 649.252 431.52 648.419 430.944 640.507L430.998 616.353C430.998 616.353 430.494 611.772 427.719 615.393C427.719 615.393 421.991 623.541 413.993 623.813L402.987 623.686C402.987 623.686 394.736 622.871 395.006 633.771C395.006 633.771 396.231 649.759 406.409 653Z" fill="#DAB27A"/>
<path d="M420.785 589.774C420.785 589.774 420.855 597.732 416.729 595.654C416.729 595.654 405.99 584.089 405.32 583.734C405.32 583.734 404.315 583.485 405.867 581.353L407.842 577.161C407.842 577.161 410.416 575.828 409.781 574.354C409.781 574.354 409.323 574.087 409.64 573.377L412.268 567.497C412.268 567.497 413.608 564.654 415.847 566.804C415.847 566.804 420.555 577.054 420.397 582.117L420.238 587.34C420.238 587.34 421.49 589.045 420.785 589.791V589.774Z" fill="#DAB27A"/>
<path d="M455.121 454.545C455.121 454.545 454.816 469.224 452.716 474.088C452.716 474.088 450.617 480.294 446.616 481.515C446.616 481.515 445.647 482.003 446.454 479.301L447.908 468.178C447.908 468.178 447.405 465.981 445.718 469.886L443.888 474.663C443.888 474.663 442.202 477.296 443.224 481.079C443.224 481.079 443.224 490.092 434.558 492.393L429.713 493.701C429.713 493.701 427.255 495.148 427.865 491.678C427.865 491.678 430.485 476.668 427.416 468.317C427.416 468.317 425.443 462.948 430.09 459.88L445.126 445.48L451.855 438.907C451.855 438.907 455.48 435.926 456 440.772L455.121 454.51V454.545Z" fill="#DAB27A"/>
<path d="M466.895 476.206L471.782 454.011C471.782 454.011 472.986 450.268 469.74 451.129C469.74 451.129 460.787 453.835 459.025 458.65C459.025 458.65 456.843 461.163 458.431 465.855C458.431 465.855 459.042 469.317 457.053 471.778L453.527 479.721C453.527 479.721 451.276 484.642 456.075 482.427L465.621 477.349C465.621 477.349 466.703 477.085 466.895 476.206Z" fill="#DAB27A"/>
<path d="M416.856 468.012H421.065C421.065 468.012 423.564 467.688 423.866 470.476L424 484.366C424 484.366 423.933 487.964 422.927 490.771C422.927 490.771 422.323 495.916 419.925 490.573L416.302 476.791L415.346 471.286C415.346 471.286 413.921 468.029 416.856 468.012Z" fill="#DAB27A"/>
<path d="M512.461 447.619C512.461 447.619 496.994 441.895 489.97 443.191C489.97 443.191 478.078 445.313 475.581 452.047L471.216 471.511C471.216 471.511 469.851 474.508 473.983 471.999C473.983 471.999 504.521 451.576 508.761 450.481C508.761 450.481 514.832 449.134 512.443 447.619H512.461Z" fill="#DAB27A"/>
<path d="M541.343 434.242C541.343 434.242 526.333 443.426 520.917 445.011C520.917 445.011 519.644 445.93 517.743 444.885C517.743 444.885 505.386 438.996 496.438 440.113C496.438 440.113 479.634 442.004 469.286 447.659L462.848 451.242C462.848 451.242 458.544 453.638 458.096 449.91C458.096 449.91 456.661 444.255 464.91 440.203L493.532 424.21C493.532 424.21 497.854 422.464 495.81 421.095C495.81 421.095 496.169 419.42 490.466 422.031C490.466 422.031 470.039 430.946 465.287 436.043C465.287 436.043 460.66 441.571 458.669 438.06C458.669 438.06 455.083 432.693 464.516 426.93L485.677 410.073C485.677 410.073 494.59 403.68 501.567 406.111C501.567 406.111 509.565 407.156 515.662 403.41L528.144 398.241C528.144 398.241 535.425 394.405 537.147 400.222L541.989 409.443C541.989 409.443 543.8 412.937 540.124 414.936C540.124 414.936 527.301 421.041 525.795 423.04C525.795 423.04 523.123 425.561 527.301 424.679C527.301 424.679 535.748 422.193 540.77 419.132C540.77 419.132 544.625 417.673 545.54 422.031C546.455 426.39 546.437 430.027 541.361 434.224L541.343 434.242Z" fill="#DAB27A"/>
<path d="M527.127 395.296C527.127 395.296 513.514 402.625 499.919 402.992C499.919 402.992 496.525 403.377 502.785 398.941C502.785 398.941 515.682 389.395 524.846 392.693C524.846 392.693 532.407 393.908 527.127 395.277V395.296Z" fill="#DAB27A"/>
<path d="M244.569 546.203C244.569 546.203 250.876 556.29 251.998 543.582C251.998 543.582 252.372 535.271 243.549 533.064C243.549 533.064 238.346 531.995 240.539 538.599C240.539 538.599 241.678 542.875 244.552 546.186L244.569 546.203Z" fill="#909B49"/>
<path d="M287.941 470.652C287.941 470.652 279.991 463.196 271.124 466.309C271.124 466.309 261.006 470.124 257.339 469.263C257.339 469.263 250.711 469.263 256.564 466.15L270.278 459.152L256.176 450.606C256.176 450.606 252.985 449.288 253.056 448.268C253.056 448.268 252.192 444.382 257.269 445.085C257.269 445.085 276.906 452.628 283.199 456.813L293.564 463.108C293.564 463.108 294.428 463.759 293.723 464.779C293.723 464.779 293.159 466.291 290.867 465.078L278.211 457.341C278.211 457.341 275.161 455.758 275.214 457.341C275.214 457.341 274.509 457.991 277.664 459.574L288.823 467.012C288.823 467.012 291.502 468.524 290.109 470.265C290.109 470.265 289.14 471.619 287.959 470.652H287.941Z" fill="#DAB27A"/>
<path d="M280.617 499.195C280.617 499.195 295.183 471.051 305.014 460.884C305.014 460.884 308.817 454.533 312.889 458.074L323.581 461.176C323.581 461.176 326.774 461.414 323.581 467.93L319.993 482.476C319.993 482.476 321.249 492.022 308.225 495.928L285.747 502.225L281.155 502.809C281.155 502.809 276.688 504.251 280.617 499.213V499.195Z" fill="#DAB27A"/>
<path d="M297.756 564.538C297.756 564.538 296.48 561.443 296.131 556.881C296.131 556.881 294.611 535.758 292.864 532.988C292.864 532.988 288.671 521.151 292.864 510.634C292.864 510.634 294.017 501.71 300.9 501.548C300.9 501.548 303.556 501.711 304.569 506.326L304.901 507.485L309.164 500.407C309.164 500.407 310.911 496.678 314.248 497.022C314.248 497.022 316.817 496.642 315.733 501.222C315.733 501.222 312.274 522.309 307.906 534.871L299.45 564.52C299.45 564.52 298.734 567.85 297.738 564.52L297.756 564.538Z" fill="#DAB27A"/>
<path d="M270.146 550.323C270.146 550.323 262.821 532.33 267.644 520.746C267.644 520.746 272.393 509.162 278.148 507.449C278.148 507.449 283.957 504.687 281.308 512.864L276.303 537.45L272.996 550.747C272.996 550.747 271.334 556.088 270.165 550.323H270.146Z" fill="#DAB27A"/>
<path d="M273.98 604.696C273.98 604.696 274.013 595.299 275.008 591.748C275.008 591.748 277.473 583.696 275.008 575.5C275.008 575.5 270.911 566.677 274.421 556.491C274.421 556.491 282.044 530.684 281.571 525.627C281.571 525.627 280.934 512.948 285.08 509.056C285.08 509.056 288.182 504.43 288.949 509.056C288.949 509.056 289.504 509.505 287.414 514.418C287.414 514.418 284.395 523.027 288.182 534.558C288.182 534.558 292.23 549.281 292.148 560.669C292.148 560.669 292.997 574.317 294.891 580.862C294.891 580.862 295.462 586.045 293.993 590.582C293.993 590.582 293.013 596.339 292.883 598.312C292.883 598.312 292.932 603.028 290.565 602.652C290.565 602.652 288.378 602.795 288.541 599.298L288.198 589.488C288.198 589.488 286.272 588.735 285.358 599.675C285.358 599.675 286.223 608.803 281.375 607.601C281.375 607.601 278.812 606.992 276.788 607.96C276.788 607.96 273.376 608.606 273.947 604.714L273.98 604.696Z" fill="#DAB27A"/>
<path d="M261.837 585.313C261.837 585.313 261.485 593.537 262.364 594.719C262.364 594.719 263.279 601.098 261.766 603.516C261.766 603.516 261.309 604.753 259.848 603.749C258.388 602.746 253.268 601.51 249.802 595.938C249.802 595.938 245.808 592.354 247.357 583.647C247.357 583.647 250.488 564.19 253.814 557.418C253.814 557.418 257.473 545.271 261.238 538.588C261.238 538.588 263.385 532.765 265.004 538.588L265.672 550.43C265.672 550.43 268.47 571.303 270.475 573.471C272.481 575.639 272.252 590.491 271.249 594.128C271.249 594.128 269.349 602.979 269.807 605.702C269.807 605.702 268.821 608.622 266.464 605.702C266.464 605.702 263.596 598.661 263.895 590.527C263.895 590.527 263.878 584.901 261.837 585.313Z" fill="#DAB27A"/>
<path d="M331.983 577.982C331.983 577.982 327.542 572.887 331.571 567.002H317.816C317.816 567.002 312.945 566.763 316.016 571.728L332 578L331.983 577.982Z" fill="#909B49"/>
<path d="M314.216 581.798C314.216 581.798 312.796 577.506 317.241 578.047L328.295 582.122C328.295 582.122 332.131 584.773 328.295 586.666C324.458 588.56 314.233 581.78 314.233 581.78L314.216 581.798Z" fill="#909B49"/>
<path d="M254.627 468.105L270.787 459.498L255.287 449.613C255.287 449.613 250.615 447.633 254.627 445.097C254.627 445.097 258.273 443.616 275.074 452.223C275.074 452.223 278.592 455.796 276.119 457.036C276.119 457.036 274.946 457.832 276.705 458.887C276.705 458.887 276.155 462.163 270.567 460.331C270.567 460.331 267.709 462.737 273.004 465.754C273.004 465.754 265.455 469.826 261.388 469.975C261.388 469.975 251.567 470.363 254.609 468.105H254.627Z" fill="#909B49"/>
<path d="M454.477 489.943C454.477 489.943 457.973 477.609 446.888 485.819C446.888 485.819 439.916 491.477 444.645 500.187C444.645 500.187 447.617 505.161 451.318 498.633C451.318 498.633 453.916 494.639 454.477 489.943Z" fill="#909B49"/>
</svg>
