<svg width="530" height="494" viewBox="0 0 530 494" fill="none" xmlns="http://www.w3.org/2000/svg">
<path d="M313.306 180.758C313.306 180.758 311.915 180.232 311.954 178.44C311.954 178.44 314.3 175.872 314.625 173.516C314.625 173.516 315.229 171.16 315.268 169.33C315.268 169.33 315.093 167.68 316.659 167.539C316.659 167.539 317.621 167.539 317.51 169.33C317.51 169.33 317.796 171.16 319.005 171.16C319.005 171.16 320.603 170.948 321.779 169.683L326.939 166.094C326.939 166.094 327.654 165.529 328.33 166.55C328.33 166.55 328.934 167.391 327.94 168.097C327.94 168.097 319.68 174.145 319.505 174.742C319.505 174.742 314.592 179.211 314.449 179.699C314.306 180.187 313.312 180.752 313.312 180.752L313.306 180.758Z" fill="#909B49"/>
<path d="M218.761 179.712L215.85 184.777C215.85 184.777 214.797 186.652 214.914 189.824L214.491 198.62C214.491 198.62 214.914 205.868 215.349 208.931L219.788 232.41C219.788 232.41 222.335 239.877 222.452 242.657C222.452 242.657 225.285 253.969 231.036 260.659C231.036 260.659 233.714 265.757 241.336 270.405C241.336 270.405 256.055 279.387 267.837 279.021C267.837 279.021 277.935 277.981 291.945 271.895C291.945 271.895 303.688 266.688 311.674 251.009C313.293 247.831 313.916 247.709 314.462 244.191C314.917 241.251 315.651 239.703 316.204 234.573L318.082 220.686C318.082 220.686 321.578 205.759 323.398 202.51C323.398 202.51 324.587 199.486 323.398 198.055C323.398 198.055 319.875 201.252 318.667 206.735C318.667 206.735 316.184 213.881 315.963 214.381C315.963 214.381 315.197 216.295 315.158 214.491C315.158 214.491 316.217 208 316.873 206.735C316.873 206.735 317.458 203.634 318.075 202.806C318.075 202.806 319.609 199.236 319.648 198.221C319.648 198.221 320.161 195.949 321.474 195.191C321.474 195.191 322.897 193.169 321.805 190.825C321.805 190.825 321 188.88 319.979 188.443C319.979 188.443 320.467 192.263 318.446 194.068C318.446 194.068 315.431 197.008 315.567 199.146C315.567 199.146 315.496 201.034 313.936 201.079C313.936 201.079 313.202 201.348 313.637 199.281C313.637 199.281 314.007 195.917 315.06 194.78C315.06 194.78 316.717 192.238 317.822 191.191C317.822 191.191 319.018 189.349 318.855 187.101C318.855 187.101 319.063 185.259 317.153 185.304C317.153 185.304 316.028 185.445 314.397 187.14C314.397 187.14 313.429 188.193 312.539 187.705C312.539 187.705 311.947 187.679 311.726 186.774L308.477 173.779L306.43 166.447C306.43 166.447 306.281 165.041 305.287 166.261C305.287 166.261 298.268 173.914 296.403 175.237C296.403 175.237 294.675 176.476 294.064 176.745C294.064 176.745 293.401 176.662 293.849 176.187C293.849 176.187 302.492 165.369 303.883 163.969C303.883 163.969 305.079 162.91 304.123 162.499C304.123 162.499 299.165 160.008 296.956 159.411L293.7 158.165C293.7 158.165 292.654 157.844 292.738 159.173C292.738 159.173 292.888 163.584 291.815 165.94L288.612 185.111L286.461 194.466C286.461 194.466 285.947 195.165 285.83 194.331C285.83 194.331 286.136 187.57 286.331 185.285L288.352 166.21C288.352 166.21 288.885 162.576 289.275 161.677C289.275 161.677 289.535 160.297 289.587 159.314C289.587 159.314 290.106 157.504 287.468 157.953C287.468 157.953 281.509 159.154 279.547 160.065C279.547 160.065 275.05 161.613 273.659 165.767C273.659 165.767 272.541 169.24 270.735 171.372L268.87 174.075C268.87 174.075 268.246 175.288 267.856 173.991L264.197 154.852L263.47 150.191C263.47 150.191 262.807 145.722 260.513 145.626L256.451 146.056C256.451 146.056 254.729 146.056 254.898 148.567L255.886 168.919L256.295 178.004C256.295 178.004 255.938 182.318 257.719 185.285L260.552 190.209C260.552 190.209 263.574 194.273 263.463 197.361V202.562C263.463 202.562 263.353 204.77 262.462 202.51L261.273 197.849C261.273 197.849 260.779 193.483 257.946 190.196C257.946 190.196 257.108 189.053 257.088 190.607L257.173 195.763C257.173 195.763 256.887 197.926 256.172 195.865C256.172 195.865 255.418 193.156 255.21 192.045L254.229 184.334L253.053 163.828L253.144 149.087L253.131 147.649C253.131 147.649 253.098 146.448 252.071 146.57C252.071 146.57 250.505 146.641 250.525 148.284L249.895 164.521L249.557 169.086C249.557 169.086 248.816 170.505 248.536 168.977C248.536 168.977 248.036 163.263 248.341 159.834V149.388C248.341 149.388 248.432 147.27 246.307 147.957C246.307 147.957 237.905 151.045 237.073 151.924C237.073 151.924 235.351 152.361 235.221 154.948C235.221 154.948 232.615 166.89 232.615 169.876C232.615 169.876 231.543 181.895 232.115 187.114L233.051 198.671C233.051 198.671 232.953 200.18 232.258 198.767C232.258 198.767 231.218 195.467 231.192 193.432C231.192 193.432 230.62 187.474 229.704 185.336C229.704 185.336 227.358 178.916 225.422 177.266L223.869 175.731C223.869 175.731 222.705 174.209 221.867 175.378C221.867 175.378 221.386 175.23 221.815 180.72L222.225 192.501C222.225 192.501 222.023 195.114 221.315 192.559C221.315 192.559 220.743 189.406 220.717 188.732C220.717 188.732 220.178 184.514 219.95 183.724L219.534 180.925C219.534 180.925 219.177 179.307 218.696 179.724L218.761 179.712Z" fill="#DAB27A"/>
<path d="M279.098 254.374C271.937 250.817 264.054 250.855 257.537 254.81C257.537 254.81 259.142 262.457 268.46 263.895C268.46 263.895 276.59 263.08 279.098 256.152C279.098 256.152 279.475 255.472 279.371 254.586L279.098 254.374Z" fill="#5D1412" stroke="#221F20" stroke-width="2" stroke-linecap="round" stroke-linejoin="round"/>
<path d="M314.28 179.326C314.28 179.326 313.429 177.625 313.046 177.599C313.046 177.599 314.475 175.513 314.54 174.871C314.54 174.871 314.95 177.33 317.029 175.654C317.029 175.654 318.758 173.49 320.454 173.413L314.28 179.32V179.326Z" fill="#DAB27A"/>
<path d="M269.773 172.823C269.773 172.823 268.376 176.078 272.58 175.237C272.58 175.237 275.888 175.532 278.032 171.134C278.032 171.134 278 169.413 280.645 170.274C280.645 170.274 284.362 171.314 286.038 170.03C286.038 170.03 287.273 169.118 287.611 169.741L287.936 170.011L288.462 165.767C288.462 165.767 289.034 161.985 289.32 161.671L289.632 159.308C289.632 159.308 290.041 157.761 288.15 157.876C288.15 157.876 284.726 158.537 283.563 158.839C283.563 158.839 279.689 159.372 277.617 161.061C277.617 161.061 275.134 162.537 274.198 164.611C274.198 164.611 272.593 168.887 272.067 169.471L269.779 172.816L269.773 172.823Z" fill="#909B49"/>
<path d="M291.848 165.94C291.848 165.94 290.997 172.11 292.738 173.349C292.738 173.349 294.993 174.755 297.852 171.243L303.909 163.969C303.909 163.969 305.176 162.691 304.149 162.499L295.662 158.91L294.096 158.313C294.096 158.313 292.777 157.581 292.764 159.179C292.764 159.179 292.92 164.136 291.841 165.946L291.848 165.94Z" fill="#909B49"/>
<path d="M297.781 174.068C297.781 174.068 305.007 167.083 305.306 166.267C305.306 166.267 305.962 165.073 306.554 166.267L308.308 173.105L311.038 183.943L311.518 185.869L311.746 186.774C311.746 186.774 312.318 188.694 314.163 187.365C314.163 187.365 315.944 185.426 317.166 185.304C317.166 185.304 319.297 185.195 318.868 187.955C318.868 187.955 318.992 190.344 316.743 192.437C316.743 192.437 315.002 193.297 314.937 191.178C314.937 191.178 312.35 192.507 312.032 190.158C312.032 190.158 311.843 189.079 311.083 188.45C311.083 188.45 309.692 188.244 309.42 186.806C309.42 186.806 308.172 182.768 306.736 180.996L299.984 174.678C299.984 174.678 299.386 173.85 297.768 174.062L297.781 174.068Z" fill="#909B49"/>
<path d="M317.185 195.525C317.185 195.525 318.173 195.962 317.867 197.502C317.867 197.502 317.322 200.886 318.81 201.046L319.667 198.221C319.667 198.221 320.343 195.807 321.493 195.191C321.493 195.191 322.787 193.682 321.968 191.172C321.968 191.172 321.5 189.31 319.999 188.443C319.999 188.443 320.395 191.666 318.933 193.56L317.192 195.525H317.185Z" fill="#909B49"/>
<path d="M317.484 210.163L318.933 205.74C318.933 205.74 320.161 201.156 323.417 198.048C323.417 198.048 324.918 200.578 322.345 205.111L320.031 212.969C320.031 212.969 318.634 215.409 317.796 214.112C317.796 214.112 317.003 213.894 318.322 210.51C318.322 210.51 318.049 209.553 317.484 210.163Z" fill="#909B49"/>
<path d="M255.789 165.882C255.789 165.882 258.485 168.277 258.856 164.104C258.856 164.104 258.537 160.701 261.429 162.608C261.429 162.608 262.534 164.829 263.866 165.42C263.866 165.42 265.614 165.946 265.289 162.287L264.717 157.324L263.515 150.178C263.515 150.178 262.638 145.928 261.28 145.806C261.28 145.806 260.376 145.472 257.862 145.902L256.497 146.05C256.497 146.05 254.814 145.915 254.944 148.56L255.782 165.889L255.789 165.882Z" fill="#909B49"/>
<path d="M249.862 165.613C249.862 165.613 251.396 167.404 253.196 165.51V148.188C253.196 148.188 253.462 146.345 251.903 146.589C251.903 146.589 250.499 146.73 250.57 148.271L250.427 151.957L249.862 165.606V165.613Z" fill="#909B49"/>
<path d="M248.276 148.656C248.276 148.656 247.77 147.257 246.119 148.034L237.665 151.546C237.665 151.546 235.345 152.136 235.215 155.205L233.532 163.603L232.973 166.929L232.823 168.007C232.823 168.007 235.988 168.585 239.562 165.593C239.562 165.593 242.272 169.587 244.943 164.894C244.943 164.894 247.289 166.755 248.276 163.577V148.656Z" fill="#909B49"/>
<path d="M221.997 184.071C221.997 184.071 226.513 185.856 227.274 179.744C227.274 179.744 225.916 177.33 223.596 175.359C223.596 175.359 222.173 174.222 221.75 175.988L222.004 184.071H221.997Z" fill="#909B49"/>
<path d="M239.686 246.021C247.147 246.021 253.196 240.045 253.196 232.673C253.196 225.301 247.147 219.325 239.686 219.325C232.224 219.325 226.176 225.301 226.176 232.673C226.176 240.045 232.224 246.021 239.686 246.021Z" fill="#100F0E"/>
<path d="M295.747 246.079C303.409 246.079 309.621 240.077 309.621 232.673C309.621 225.269 303.409 219.267 295.747 219.267C288.085 219.267 281.873 225.269 281.873 232.673C281.873 240.077 288.085 246.079 295.747 246.079Z" fill="#100F0E"/>
<path d="M235.78 233.392C238.16 233.392 240.088 231.486 240.088 229.135C240.088 226.785 238.16 224.879 235.78 224.879C233.401 224.879 231.472 226.785 231.472 229.135C231.472 231.486 233.401 233.392 235.78 233.392Z" fill="white"/>
<path d="M291.92 233.392C294.299 233.392 296.228 231.486 296.228 229.135C296.228 226.785 294.299 224.879 291.92 224.879C289.54 224.879 287.611 226.785 287.611 229.135C287.611 231.486 289.54 233.392 291.92 233.392Z" fill="white"/>
<path d="M242.584 241.45C243.854 241.45 244.884 240.432 244.884 239.177C244.884 237.922 243.854 236.904 242.584 236.904C241.313 236.904 240.283 237.922 240.283 239.177C240.283 240.432 241.313 241.45 242.584 241.45Z" fill="white"/>
<path d="M298.704 241.732C299.974 241.732 301.004 240.715 301.004 239.459C301.004 238.204 299.974 237.187 298.704 237.187C297.433 237.187 296.403 238.204 296.403 239.459C296.403 240.715 297.433 241.732 298.704 241.732Z" fill="white"/>
<path d="M266.004 281.198C266.004 281.198 268.701 280.472 270.501 281.198C270.501 281.198 268.291 283.323 267.941 284.755L266.004 281.198Z" fill="#DAB27A"/>
<path d="M271.508 299.008C271.508 299.008 268.824 299.323 268.863 297.679C268.863 297.679 268.779 297.172 269.143 296.433C269.143 296.433 269.832 293.063 268.857 291.734C268.857 291.734 267.33 290.283 268.675 288.594C268.675 288.594 270.514 283.317 274.796 280.864L281.977 280.299L285.895 295.406C285.895 295.406 284.901 297.621 280.788 299.406C280.788 299.406 278.689 300.446 280.131 298.809C280.131 298.809 280.892 297.647 281.015 297.339C281.015 297.339 281.132 296.697 280.027 297.57C280.027 297.57 278.461 299.682 275.466 299.573L271.508 298.995V299.008Z" fill="#DAB27A"/>
<path d="M250.941 297.518C250.941 297.518 249.719 296.665 250.505 295.637C250.505 295.637 251.435 294.674 251.402 294.141C251.402 294.141 251.201 293.73 250.167 294.353C250.167 294.353 249.349 294.565 249.661 293.422L251.038 287.573C251.038 287.573 251.552 284.549 252.312 283.387L253.54 280.081L258.069 280.421C258.069 280.421 261.228 280.498 263.106 282.161C263.106 282.161 266.374 284.614 266.901 286.925C266.901 286.925 267.408 287.548 266.387 289.512C266.387 289.512 265.744 291.567 267.024 292.799C267.024 292.799 269.409 296.844 265.562 298.501C265.562 298.501 262.943 299.175 261.689 299.175C261.689 299.175 261.332 299.136 261.52 298.745C261.52 298.745 262.066 298.026 261.949 297.769C261.832 297.512 261.611 297.525 261.312 297.737C261.312 297.737 259.129 299.83 257.043 299.971C257.043 299.971 254.502 299.952 253.605 299.284L250.941 297.525V297.518Z" fill="#DAB27A"/>
<path d="M247.731 303.033L248.809 298.167C248.809 298.167 248.848 297.679 249.355 298.167C249.862 298.655 252.578 300.806 252.578 300.806C252.578 300.806 253.729 302.09 254.684 301.544C254.684 301.544 255.399 301.165 255.62 301.852L256.555 304.362C256.555 304.362 257.654 306.584 255.75 307.072C255.75 307.072 254.287 307.669 252.656 306.783C252.656 306.783 251.396 306.334 249.914 305.12C249.914 305.12 248.484 304.074 247.737 303.021L247.731 303.033Z" fill="#DAB27A"/>
<path d="M247.282 305.794C247.282 305.794 246.918 310.019 246.918 311.457C246.918 311.457 246.496 313.197 248.426 313.03L254.378 312.613C254.378 312.613 256.003 312.805 256.282 311.284V309.878C256.282 309.878 256.672 308.054 254.547 308.33C254.547 308.33 252.422 308.632 251.357 307.502L248.757 305.788C248.757 305.788 247.38 304.484 247.276 305.788L247.282 305.794Z" fill="#DAB27A"/>
<path d="M271.157 316.927C271.157 316.927 263.288 315.476 261.754 314.455C261.754 314.455 258.986 313.531 257.92 312.349C257.92 312.349 256.419 310.963 258.284 310.571L263.554 311.296C263.554 311.296 264.958 311.162 261.351 310.404L259.519 309.974C259.519 309.974 257.348 309.679 257.888 307.996C257.888 307.996 258.823 305.692 257.985 305.216C257.985 305.216 256.367 302.302 258.674 301.544C258.674 301.544 261.949 300.292 267.018 300.292C267.018 300.292 275.186 300.196 276.622 301.146C276.622 301.146 278.455 302 276.154 303.586C276.154 303.586 275.823 303.984 272.385 303.753C272.385 303.753 270.52 304.08 272.385 304.645L275.251 304.709C275.251 304.709 276.746 304.484 276.863 305.73C276.863 305.73 277.129 307.008 274.868 306.571L267.33 306.051C267.33 306.051 266.101 306.199 267.629 306.661C267.629 306.661 270.852 307.586 273.438 307.444C273.438 307.444 277.604 307.297 277.019 309.441L274.088 315.117L273.152 316.51C273.152 316.51 272.229 317.582 271.164 316.927H271.157Z" fill="#DAB27A"/>
<path d="M275.888 321.627C275.888 321.627 279.586 318.905 280.612 316.266C280.612 316.266 281.431 314.288 281.522 312.703L278.552 317.73C278.552 317.73 276.369 320.811 274.978 320.035C274.978 320.035 272.86 319.193 274.4 316.651L277.675 310.513C277.675 310.513 279.228 308.106 278.182 305.364C278.182 305.364 276.999 302.372 280.3 301.326C280.3 301.326 283.147 300.517 285.207 298.989C285.207 298.989 286.175 298.212 286.48 299.47C286.48 299.47 286.695 300.337 285.239 301.326C285.239 301.326 283.329 302.911 284.206 303.598C284.206 303.598 284.843 304.17 286.207 302.668C286.207 302.668 286.935 301.679 286.935 303.175L287.241 306.231C287.241 306.231 287.091 308.504 285.727 309.197C285.727 309.197 283.225 311.817 283.667 316.15C283.667 316.15 283.673 322.494 280.534 323.219C280.534 323.219 277.246 325.075 276.07 323.367C276.07 323.367 275.271 322.359 275.882 321.62L275.888 321.627Z" fill="#DAB27A"/>
<path d="M288.397 323.546L287.624 310.167C287.624 310.167 285.207 310.821 284.953 315.232V320.054C284.953 320.054 284.407 323.097 288.397 323.546Z" fill="#DAB27A"/>
<path d="M247.074 319.425L255.243 322.057C255.243 322.057 258.277 323.373 259.727 321.774L262.677 318.301C262.677 318.301 264.093 316.844 261.312 315.495L258.615 314.237C258.615 314.237 255.977 313.312 253.709 313.82L247.731 314.41C247.731 314.41 246.132 314.943 247.38 315.534C247.38 315.534 252.884 315.868 253.989 316.317C253.989 316.317 255.067 316.953 253.82 317.139H248.146C248.146 317.139 246.022 316.991 246.587 318.667C246.587 318.667 246.73 319.142 247.068 319.425H247.074Z" fill="#DAB27A"/>
<path d="M264.75 326.609L262.112 324.914C262.112 324.914 260.259 324.163 261.215 322.359L264.399 318.25C264.399 318.25 264.698 316.478 268.616 317.338C268.616 317.338 272.372 318.365 274.081 321.858C274.081 321.858 275.498 324.946 273.458 325.158L270.195 326.609C270.195 326.609 268.779 327.2 267.557 326.609C267.557 326.609 265.653 327.469 264.756 326.609H264.75Z" fill="#DAB27A"/>
<path d="M270.728 331.655C270.728 331.655 270.046 329.376 270.728 328.253C270.728 328.253 271.983 327.071 272.977 328.047C272.977 328.047 274.107 329.209 274.276 329.877C274.276 329.877 274.894 330.975 275.063 329.941C275.063 329.941 274.53 326.904 277.682 325.749L282.763 324.092C282.763 324.092 285.655 322.442 285.161 325.421C285.161 325.421 284.297 331.283 283.758 332.362C283.758 332.362 283.316 333.742 284.225 332.984C284.225 332.984 285.252 332.272 285.649 329.736L286.181 326.57C286.181 326.57 286.168 325.074 287.468 325.036C287.468 325.036 288.566 324.863 288.677 326.564V331.347C288.677 331.347 286.032 335.918 282.724 336.188C282.724 336.188 278.104 337.145 275.414 335.353L271.281 332.785C271.281 332.785 270.722 332.246 270.735 331.649L270.728 331.655Z" fill="#DAB27A"/>
<path d="M250.993 336.098C250.993 336.098 253.579 337.228 253.599 334.885C253.599 334.885 252.975 332.798 254.027 331.347C254.027 331.347 256.159 327.45 255.34 325.601C255.34 325.601 255.002 323.636 252.338 323.039L247.789 321.492C247.789 321.492 246.099 320.683 246.366 322.731L246.593 326.577C246.593 326.577 248.764 329.241 248.79 330.988C248.79 330.988 248.816 332.124 248.088 331.212C248.088 331.212 247.302 329.049 246.71 329.049C246.71 329.049 246.21 328.94 246.333 330.737C246.333 330.737 246.873 333.055 248.549 334.448C248.549 334.448 250.154 335.867 250.98 336.098H250.993Z" fill="#DAB27A"/>
<path d="M255.535 336.368C255.535 336.368 253.599 335.739 254.768 333.492L255.886 331.078C255.886 331.078 256.536 328.663 256.295 327.354C256.295 327.354 255.984 324.259 257.868 324.471L262.657 326.981C262.657 326.981 264.555 327.559 264.373 329.505C264.373 329.505 264.86 332.041 263.041 333.049C263.041 333.049 258.492 335.899 258.375 336.361C258.375 336.361 256.503 337.19 255.535 336.361V336.368Z" fill="#DAB27A"/>
<path d="M250.759 341.273C250.759 341.273 249.459 343.103 249.888 347.411C249.888 347.411 249.492 348.477 246.814 347.411C246.814 347.411 244.878 346.775 245.495 342.917L245.775 337.453L245.807 336.175C245.807 336.175 245.593 334.204 247.035 335.386C247.035 335.386 249.589 337.543 252.565 337.909L257.79 338.121C257.79 338.121 260.246 338.024 261.325 336.451C261.325 336.451 262.826 334.448 263.847 335.116L264.035 340.913V343.674C264.035 343.674 264.282 347.591 261.085 348.046C261.085 348.046 258.563 348.894 257.92 346.531C257.92 346.531 257.335 342.249 256.536 341.979L256.477 347.475C256.477 347.475 256.048 348.804 253.924 348.201C253.924 348.201 252.357 347.905 251.955 348.361C251.955 348.361 250.999 348.631 250.934 347.449L250.759 341.279V341.273Z" fill="#DAB27A"/>
<path d="M273.302 347.957C273.302 347.957 276.356 343.405 275.479 339.726C275.479 339.726 274.25 335.912 270.93 334.981V345.986C270.93 345.986 271.593 348.367 273.302 347.963V347.957Z" fill="#DAB27A"/>
<path d="M275.037 348.31H277.35C277.35 348.31 278.461 347.86 277.35 346.724C277.35 346.724 276.07 345.382 274.777 346.801C274.777 346.801 273.601 347.963 275.037 348.31Z" fill="#DAB27A"/>
<path d="M280.378 348.31C280.378 348.31 284.791 348.149 287.975 346.981C287.975 346.981 289.437 346.685 289.229 343.88L289.249 335.315C289.249 335.315 289.067 333.691 288.066 334.975C288.066 334.975 285.999 337.864 283.114 337.96L279.144 337.915C279.144 337.915 276.167 337.626 276.265 341.491C276.265 341.491 276.707 347.16 280.378 348.31Z" fill="#DAB27A"/>
<path d="M285.532 325.473C285.532 325.473 285.558 328.349 284.037 327.598C284.037 327.598 280.08 323.418 279.833 323.29C279.833 323.29 279.462 323.2 280.034 322.429L280.762 320.914C280.762 320.914 281.711 320.433 281.477 319.9C281.477 319.9 281.308 319.803 281.425 319.547L282.393 317.421C282.393 317.421 282.887 316.394 283.712 317.171C283.712 317.171 285.447 320.876 285.389 322.705L285.33 324.593C285.33 324.593 285.792 325.209 285.532 325.479V325.473Z" fill="#DAB27A"/>
<path d="M297.878 276.755C297.878 276.755 297.768 282.161 297.008 283.952C297.008 283.952 296.247 286.238 294.798 286.687C294.798 286.687 294.447 286.867 294.74 285.872L295.266 281.776C295.266 281.776 295.084 280.967 294.473 282.405L293.81 284.164C293.81 284.164 293.2 285.134 293.57 286.527C293.57 286.527 293.57 289.846 290.431 290.694L288.677 291.175C288.677 291.175 287.787 291.708 288.007 290.43C288.007 290.43 288.956 284.902 287.845 281.827C287.845 281.827 287.13 279.85 288.813 278.72L294.259 273.416L296.696 270.996C296.696 270.996 298.008 269.898 298.197 271.683L297.878 276.742V276.755Z" fill="#DAB27A"/>
<path d="M302.408 284.864L304.227 276.755C304.227 276.755 304.676 275.388 303.467 275.702C303.467 275.702 300.133 276.691 299.477 278.45C299.477 278.45 298.665 279.368 299.256 281.082C299.256 281.082 299.484 282.347 298.743 283.246L297.43 286.148C297.43 286.148 296.592 287.946 298.379 287.137L301.933 285.281C301.933 285.281 302.336 285.185 302.408 284.864Z" fill="#DAB27A"/>
<path d="M284.024 281.769H285.655C285.655 281.769 286.623 281.654 286.74 282.649L286.792 287.605C286.792 287.605 286.766 288.889 286.376 289.891C286.376 289.891 286.142 291.727 285.213 289.82L283.809 284.902L283.439 282.938C283.439 282.938 282.887 281.776 284.024 281.769Z" fill="#DAB27A"/>
<path d="M318.985 274.213C318.985 274.213 313.39 272.03 310.849 272.524C310.849 272.524 306.547 273.333 305.644 275.901L304.065 283.323C304.065 283.323 303.571 284.466 305.066 283.509C305.066 283.509 316.113 275.721 317.646 275.304C317.646 275.304 319.843 274.79 318.979 274.213H318.985Z" fill="#DAB27A"/>
<path d="M329.545 269.429C329.545 269.429 324.106 272.704 322.143 273.269C322.143 273.269 321.682 273.596 320.993 273.224C320.993 273.224 316.516 271.124 313.273 271.522C313.273 271.522 307.184 272.197 303.435 274.213L301.102 275.49C301.102 275.49 299.542 276.344 299.38 275.015C299.38 275.015 298.86 272.999 301.849 271.555L312.22 265.853C312.22 265.853 313.786 265.231 313.046 264.743C313.046 264.743 313.176 264.146 311.109 265.076C311.109 265.076 303.707 268.255 301.985 270.071C301.985 270.071 300.309 272.043 299.588 270.791C299.588 270.791 298.288 268.877 301.706 266.823L309.374 260.813C309.374 260.813 312.604 258.534 315.132 259.401C315.132 259.401 318.03 259.773 320.239 258.438L324.762 256.595C324.762 256.595 327.401 255.228 328.024 257.301L329.779 260.589C329.779 260.589 330.435 261.834 329.103 262.547C329.103 262.547 324.457 264.723 323.911 265.436C323.911 265.436 322.943 266.335 324.457 266.02C324.457 266.02 327.517 265.134 329.337 264.043C329.337 264.043 330.734 263.523 331.066 265.076C331.397 266.63 331.391 267.927 329.551 269.423L329.545 269.429Z" fill="#DAB27A"/>
<path d="M324.132 255.465C324.132 255.465 319.44 257.905 314.755 258.027C314.755 258.027 313.585 258.155 315.742 256.679C315.742 256.679 320.187 253.501 323.346 254.598C323.346 254.598 325.951 255.003 324.132 255.459V255.465Z" fill="#DAB27A"/>
<path d="M229.691 281.801C229.691 281.801 240.043 286.328 245.092 286.944C245.092 286.944 247.581 287.856 247.952 285.968L250.304 282.739C250.304 282.739 251.162 281.962 248.809 280.877L244.572 277.667C244.572 277.667 242.818 274.752 238.256 276.575L230.477 279.83L229.041 280.691C229.041 280.691 227.456 281.288 229.685 281.801H229.691Z" fill="#DAB27A"/>
<path d="M220.028 259.504C220.028 259.504 220.346 260.659 221.256 262.001C221.256 262.001 225.519 268.222 225.63 269.391C225.63 269.391 227.046 273.641 230.614 275.606C230.614 275.606 232.94 277.821 234.981 276.299C234.981 276.299 235.722 275.644 234.981 274.129L234.818 273.725L237.639 274.72C237.639 274.72 238.977 275.362 239.874 274.501C239.874 274.501 240.706 274.02 239.374 272.993C239.374 272.993 233.668 267.921 229.587 265.423L220.515 259.106C220.515 259.106 219.56 258.342 220.022 259.497L220.028 259.504Z" fill="#DAB27A"/>
<path d="M215.421 269.962C215.421 269.962 217.318 276.479 221.198 278.591C221.198 278.591 225.064 280.723 227.04 279.933C227.04 279.933 229.269 279.419 226.734 277.763L219.957 272.139L216.116 269.224C216.116 269.224 214.478 268.126 215.421 269.962Z" fill="#DAB27A"/>
<path d="M203.834 253.616C203.834 253.616 205.959 256.242 207.07 257C207.07 257 209.65 258.656 210.729 261.565C210.729 261.565 211.437 265.038 214.823 267.041C214.823 267.041 223.004 272.421 223.999 273.962C223.999 273.962 226.656 277.673 228.82 277.757C228.82 277.757 230.828 278.302 230.029 276.813C230.029 276.813 230.101 276.556 228.346 275.683C228.346 275.683 225.467 274.007 224.057 269.84C224.057 269.84 222.01 264.723 219.424 261.545C219.424 261.545 216.623 257.507 215.739 255.208C215.739 255.208 214.751 253.616 213.276 252.704C213.276 252.704 211.671 251.331 211.19 250.804C211.19 250.804 210.144 249.469 209.488 250.149C209.488 250.149 208.773 250.644 209.611 251.581L211.71 254.419C211.71 254.419 211.275 255.099 208.532 252.249C208.532 252.249 206.752 249.475 205.504 250.997C205.504 250.997 204.841 251.793 203.997 252.017C203.997 252.017 202.788 252.672 203.847 253.623L203.834 253.616Z" fill="#DAB27A"/>
<path d="M204.685 261.77C204.685 261.77 202.729 259.542 202.723 259.009C202.723 259.009 201.547 257.013 200.566 256.672C200.566 256.672 200.156 256.428 199.955 257.038C199.753 257.648 198.551 259.157 198.804 261.513C198.804 261.513 198.454 263.426 200.864 265.519C200.864 265.519 206.148 270.277 208.636 271.426C208.636 271.426 212.432 274.014 215.031 275.034C215.031 275.034 216.961 276.184 216.123 274.18L213.653 270.701C213.653 270.701 209.761 264.203 209.858 263.138C209.956 262.072 206.544 257.95 205.433 257.16C205.433 257.16 202.892 255.106 202.405 254.239C202.405 254.239 201.456 253.642 201.436 254.997C201.436 254.997 202.19 257.622 204.114 259.844C204.114 259.844 205.374 261.43 204.692 261.776L204.685 261.77Z" fill="#DAB27A"/>
<path d="M253.449 321.331C253.449 321.331 251.701 319.553 253.287 317.499H247.874C247.874 317.499 245.957 317.415 247.165 319.149L253.456 321.338L253.449 321.331Z" fill="#909B49"/>
<path d="M246.372 322.725C246.372 322.725 245.827 321.197 247.536 321.389L251.786 322.84C251.786 322.84 253.261 323.784 251.786 324.458C250.31 325.132 246.379 322.718 246.379 322.718L246.372 322.725Z" fill="#909B49"/>
<path d="M297.651 289.795C297.651 289.795 298.866 285.512 295.013 288.363C295.013 288.363 292.589 290.328 294.233 293.352C294.233 293.352 295.266 295.079 296.553 292.812C296.553 292.812 297.456 291.426 297.651 289.795Z" fill="#909B49"/>
<path d="M249.082 288.549L249.934 288.581C249.934 288.581 250.44 288.658 250.486 288.132L250.427 285.512C250.427 285.512 250.395 284.832 250.174 284.299C250.174 284.299 250.018 283.323 249.57 284.318L248.92 286.899L248.757 287.933C248.757 287.933 248.491 288.543 249.082 288.562V288.549Z" fill="#DAB27A"/>
<path d="M229.314 283.907C229.314 283.907 223.316 283.079 220.918 285.557C220.918 285.557 218.228 288.472 216.883 288.793C216.883 288.793 214.706 289.885 216.103 287.914L219.437 283.374L213.374 282.925C213.374 282.925 212.1 283.021 211.957 282.681C211.957 282.681 211.021 281.557 212.802 280.948C212.802 280.948 220.515 280.158 223.29 280.479L227.748 280.813C227.748 280.813 228.138 280.883 228.08 281.333C228.08 281.333 228.145 281.917 227.189 281.904L221.731 281.474C221.731 281.474 220.464 281.468 220.749 281.968C220.749 281.968 220.626 282.296 221.926 282.289L229.126 282.488C229.126 282.488 231.335 282.514 231.173 283.317C231.173 283.317 230.724 284.061 229.301 283.907H229.314Z" fill="#DAB27A"/>
<path d="M215.707 288.607L219.443 283.374L212.971 282.784C212.971 282.784 211.177 282.919 212.042 281.493C212.042 281.493 212.958 280.453 219.638 280.44C219.638 280.44 221.321 280.986 220.736 281.763C220.736 281.763 220.496 282.193 221.217 282.238C221.217 282.238 221.568 283.342 219.508 283.663C219.508 283.663 218.988 284.857 221.146 284.954C221.146 284.954 219.404 287.413 218.144 288.1C218.144 288.1 215.102 289.782 215.7 288.601L215.707 288.607Z" fill="#909B49"/>
<path d="M221.809 253.847C221.809 253.847 223.024 249.565 219.17 252.416C219.17 252.416 216.746 254.38 218.39 257.404C218.39 257.404 219.424 259.131 220.71 256.865C220.71 256.865 221.614 255.478 221.809 253.847Z" fill="#909B49"/>
</svg>
