<?xml version="1.0" encoding="UTF-8"?>
<svg id="Layer_2" data-name="Layer 2" xmlns="http://www.w3.org/2000/svg" xmlns:xlink="http://www.w3.org/1999/xlink" viewBox="0 0 23.71 23.71">
  <defs>
    <style>
      .cls-1 {
        fill: url(#linear-gradient);
      }

      .cls-1, .cls-2 {
        stroke-width: 0px;
      }

      .cls-2 {
        fill: url(#linear-gradient-2);
      }
    </style>
    <linearGradient id="linear-gradient" x1="11.86" y1="10.94" x2="14.9" y2="10.94" gradientUnits="userSpaceOnUse">
      <stop offset="0" stop-color="#249446"/>
      <stop offset=".39" stop-color="#355729"/>
      <stop offset="1" stop-color="#77b36d"/>
    </linearGradient>
    <linearGradient id="linear-gradient-2" x1="0" y1="11.86" x2="23.71" y2="11.86" xlink:href="#linear-gradient"/>
  </defs>
  <g id="Layer_1-2" data-name="Layer 1">
    <g>
      <path class="cls-1" d="M11.86,6.99v4.86l3.04,3.04"/>
      <path class="cls-2" d="M4.08,4.08l-.64-.64h0l.64.64ZM2.54,5.62h-.91c0,.5.41.91.91.91v-.91ZM5.63,6.55c.5,0,.91-.4.92-.91,0-.5-.4-.91-.91-.92v1.82ZM3.44,2.52c0-.5-.41-.91-.92-.91-.5,0-.91.41-.91.92h1.82ZM1.82,11.86c0-.5-.41-.91-.91-.91s-.91.41-.91.91h1.82ZM17.78,22.12c.44-.25.58-.81.33-1.25-.25-.44-.81-.58-1.25-.33l.91,1.58ZM20.55,16.87c-.25.44-.1.99.33,1.25.44.25.99.1,1.25-.33l-1.58-.91ZM3.51,3.43c-.36.35-.36.93,0,1.29.35.36.93.36,1.29,0l-1.28-1.3ZM3.43,3.43l-1.54,1.54,1.29,1.29,1.54-1.54-1.29-1.29ZM2.53,6.53l3.1.02v-1.82s-3.09-.02-3.09-.02v1.82ZM3.45,5.61l-.02-3.1h-1.82s.02,3.1.02,3.1h1.82ZM11.86,1.82c5.54,0,10.03,4.49,10.03,10.03h1.82C23.71,5.31,18.4,0,11.86,0v1.82ZM11.86,21.89c-5.54,0-10.03-4.49-10.03-10.03H0c0,6.55,5.31,11.86,11.86,11.86v-1.82ZM16.87,20.55c-1.47.85-3.19,1.34-5.02,1.34v1.82c2.16,0,4.18-.58,5.93-1.59l-.91-1.58ZM21.89,11.86c0,1.83-.49,3.54-1.34,5.02l1.58.91c1.01-1.74,1.59-3.77,1.59-5.93h-1.82ZM4.8,4.73c1.81-1.8,4.31-2.9,7.06-2.9V0c-3.25,0-6.2,1.31-8.34,3.43l1.28,1.3Z"/>
    </g>
  </g>
</svg>