<?xml version="1.0" encoding="UTF-8"?>
<svg id="Layer_2" data-name="Layer 2" xmlns="http://www.w3.org/2000/svg" xmlns:xlink="http://www.w3.org/1999/xlink" viewBox="0 0 26.07 15.31">
  <defs>
    <style>
      .cls-1 {
        fill: url(#linear-gradient);
        stroke-width: 0px;
      }
    </style>
    <linearGradient id="linear-gradient" x1="1.54" y1="3.45" x2="26.02" y2="12.41" gradientUnits="userSpaceOnUse">
      <stop offset="0" stop-color="#249446"/>
      <stop offset=".39" stop-color="#355729"/>
      <stop offset="1" stop-color="#77b36d"/>
    </linearGradient>
  </defs>
  <g id="Layer_1-2" data-name="Layer 1">
    <path class="cls-1" d="M25.88,7.03c-.2-.28-4.79-7.03-12.84-7.03S.39,6.75.19,7.03c-.26.37-.26.88,0,1.28.2.26,4.79,7,12.84,7s12.65-6.75,12.84-7.03c.26-.37.26-.88,0-1.25ZM13.04,13.04c-5.47,0-9.21-3.86-10.49-5.39,1.28-1.56,4.99-5.39,10.49-5.39s9.21,3.86,10.49,5.39c-1.3,1.56-5.02,5.39-10.49,5.39ZM13.69,3.01c-1.25-.17-2.47.14-3.49.91h0c-2.07,1.56-2.5,4.51-.94,6.58.77,1.02,1.84,1.64,3.09,1.84.23.03.45.06.65.06,1.02,0,1.98-.34,2.81-.94,2.07-1.56,2.5-4.51.94-6.58-.71-1.05-1.81-1.7-3.06-1.87ZM14.82,10.07c-.62.48-1.42.68-2.21.57s-1.5-.54-1.98-1.16c-.96-1.33-.71-3.23.62-4.22.62-.48,1.42-.68,2.21-.57s1.5.54,1.98,1.16c.96,1.33.71,3.23-.62,4.22ZM14.71,5.95c.23.2.34.51.34.79s-.11.6-.34.79c-.2.2-.51.34-.79.34-.31,0-.6-.11-.79-.34-.23-.23-.34-.51-.34-.79,0-.31.11-.6.34-.79.2-.23.51-.34.79-.34.31.03.6.14.79.34Z"/>
  </g>
</svg>