<?xml version="1.0" encoding="UTF-8"?>
<svg id="Layer_1" data-name="Layer 1" xmlns="http://www.w3.org/2000/svg" xmlns:xlink="http://www.w3.org/1999/xlink" viewBox="0 0 1075.85 1102.51">
  <defs>
    <style>
      .cls-1 {
        fill: url(#linear-gradient);
        stroke-width: 0px;
      }
    </style>
    <linearGradient id="linear-gradient" x1="328.69" y1="795.23" x2="390.89" y2="976.54" gradientTransform="translate(180.61 -383.43) rotate(-.1) scale(1.14) skewX(-.19)" gradientUnits="userSpaceOnUse">
      <stop offset="0" stop-color="#4ba355"/>
      <stop offset="1" stop-color="#0f2629"/>
    </linearGradient>
  </defs>
  <path class="cls-1" d="m617.86,863.4s-7.55-30.53,4.18-45.85l5.37-22.99s1.54-3.39-1.33-10.23l10.15-44.83s18.24-43.48,34.37-65.72c0,0,8-4.96,8.56-10.82l5.14-23.41s1.74-14.01-7.89-26.49c0,0-10.7-25.5-12.8-41.38,0,0-.62-9.12-6.35-22.42l-7.7-18.05s7.34-18.81,7.02-36.32c0,0,1.57.77-3.07-10.95,0,0-6.09-40.19-4.7-44.72,0,0-.14-3.35-1.68-11.04,0,0-4.48-32.63-3.45-35.73l1.78-22.14s-.65-32.27-3.53-50.37c0,0-2.01-6.33-4.32-.81l.95,44.9.1,23.56,2.6,35.01s-14.58-9.96-20.16-34.27c0,0-3.43-25.96-2.93-31.26,0,0,1.85-7.01-.89-5.48,0,0-1.81,8.58-1.68,20.81,0,0,1.39,37.25,24.97,54.46,0,0,.8,14.48,2.39,23.7,0,0,2.21,24.79,5.82,36.64,0,0-5.2,24.57-4.77,30.51l-10.73-24.28s2.39-4.42-1.01-10.94c0,0-4.37-2.96-5.88-8.83-1.51-5.87,1.94-12.04-5.09-18.9,0,0-4.95-6.54-10.34-19.58,0,0-7.98-21.01-7.14-24.89,0,0,5.25-4.37-3.85-27.33,0,0-5.21-7.59-4.64-12.22,0,0-2.29-25.31-6.03-38.86l-2.15-31.88s1.07-4.57-.86-8.5c0,0-18.04-30.92-13.43-56.62,0,0,1.62-2.53.76-7.31,0,0-3.65-30.33,3.46-43.06,0,0,2.05-3.48,6.05-6.13,0,0-10.21-6.65-14.56,5.22,0,0-4.31,21.88-1.7,40.4,0,0-11.18-1.32-14.17-5.34-2.99-4.02-5.09-10.38-9.13-14.36,0,0-2.7-3.92-11.95-4,0,0,13.22,8.28,16.58,19.38,0,0,4.63,7.97,9.89,8.6l6.28,2.2s2.51.24,2.02,6.05c0,0,.37,22.06,4.32,32.34l8.94,21.28.44,30.6s-3.21-7.07-16.07-15.18c0,0-8.04-7.04-13.36-13.47,0,0-25.26-24.55-39.68-32.63l-4.33-1.85s-21.66-31.05-22.3-37.26c0,0-.71-2.8-2.81-2.03,0,0-2.42.33-.76,4.59l8.83,20.04,4.76,8.38-30.89,5.91s-3.97-.71-11.7,1.78c0,0-9.79-7.45-16-5.62,0,0-3.74.4-1.27,4l17.19,5.14,35.31-1.44,19.32.31s36.99,28.35,46.05,41.48c0,0,3.58,3.13,13.81,11.08,0,0,18.29,15.4,15.85,27.72,0,0,1.06,23.17,4.29,32.13l2.77,26.64s-17.39-18.57-30.2-22.19l-21.24-15.37s-15.96-10.21-32.68-16.31l-52.19-12.12s-52.08-14.08-76.97-2l-11.84,6.38s26.45-9.18,41.68-5.58l27.83,3.49,41.34,9.55,33.6,11.85s27.06,15.88,35.1,19.07c0,0,22.27,13.43,30.62,23.97,0,0,5.25,7.52,14.5,9.03l21.33,44.7,2.54,14.51s-1.63,8.35,6.51,18.9l12.08,27.48s-.61,12.03,6.33,29.81l13.55,31.08s-8.37-7.7-16.13-10.39c0,0-13.15-16.36-16.73-16.63,0,0,.76-6.28-1.34-7.69,0,0-1.54-1.66-5.88,3.2,0,0-13.8-18.52-25.89-26.98,0,0-9.16-8.55-7.38-19.03,0,0,5.47-10.72-1.21-21.61,0,0-2.22-7.61,2.4-14.43,0,0,3.43-5.03.83-16.48l5.21-21.38s.49-2.27-1.9-2.59c0,0-2.16-.4-2.55,2.36l-3.8,13.74-1.91,15.41s1.02,3.34-2.15,9.25c0,0-4.63,5.66.54,15.27,0,0,5.65,13.39-3.1,22.39,0,0-4.96-.14-14.43-16.05,0,0-4.78-17.18-16.4-21.84,0,0-8.63-10.31-13.5-23.65l-9.25-19.31s-4.2-4.28-5.71,1.67l12.83,28.64s-4.77,4.65-32.25-3.12l-69.87-20.33s-11.05-20.69-25.69-28.15c0,0-16.37-11.21-21.64-23.56,0,0,.65-7.2-24.76-15.22l-8.93-2.06s22.01,6.55,29.28,17.31c0,0,4.56,14.12,22.32,26,0,0,14.64,12.75,24.21,28.12,0,0,1.94,4.11,7.78,5.92l84.72,27.17s21.71-.77,29.57,16.65c0,0,3.24,11.59,15.88,18.77,0,0,3.76,1.37,9.28,14.88,0,0,3.46,10.39,31.87,29.91l29.85,25.53s21.22,22.87,30.22,23.63l9.02,21.85s5.39,10.5-2.98,29.61c0,0-10.93,9.42-11.4,24.43l-24.11,44.91s-3.21,4.35-18.99-6.9c0,0-9.04-8.99-25.74-15.28l-26.72-9.73s-14.26-8.89-29.56-10.95l-29.43-6.17s-4.13-10.57-2.53-31.66l-.19-10.84s-.71-4.31-2.58.72c0,0-5.54,24.04-2.33,37.42l.22,1.13s-13.49-11.28-23.96-30.89l-15.87-31.65s2.7-10.03,1.29-17.54c0,0-1.54-7,4.46-10.42,0,0,2.75-2.12,7.01-2.45,0,0-4.91-4.81-11.96,1.56,0,0-4.47,3.85-2.72,13.37,0,0,2.07,9.41-1.57,12.62l-20.89-26.06s-4.93-3.16-2.7,2.94c0,0,22.23,24.69,26.07,36.56,0,0-12.83-3.02-15.58,1.78,0,0-1.72,4.26,2.1,3.28,0,0,9.96-2.43,16.79,2.27l7.94,17.38s14.28,32.71,34.6,41.25l28.41,6.68-21.73,10.74s-2.44,1.84-.95,3.77c0,0,1.11,2.14,4.65-.6l24.96-9.25,14.01,5.52s14.06,5.3,25.63,9.48l27.84,12.73,13.62,8.82s7.05,3.45,4.36,9.08c0,0-4.91,16.31-2.9,27.03,0,0-2.1,2.67-.88,15.06,0,0-5.13,3.25-4.87,23.39,0,0-5.56,9.9-3.2,21.05,0,0-17,21.17-10.38,36.05,0,0-11,8.28-11.22,33.19l37.47-23.92Z"/>
</svg>