<?xml version="1.0" encoding="UTF-8"?>
<svg id="Layer_1" data-name="Layer 1" xmlns="http://www.w3.org/2000/svg" xmlns:xlink="http://www.w3.org/1999/xlink" viewBox="0 0 1075.85 1102.51">
  <defs>
    <style>
      .cls-1 {
        fill: url(#linear-gradient);
        stroke-width: 0px;
      }
    </style>
    <linearGradient id="linear-gradient" x1="774.74" y1="1442.31" x2="978.93" y2="1643.48" gradientTransform="translate(-974.25 -1079.1) rotate(-12.48) scale(1.3 1.27) skewX(-1.24)" gradientUnits="userSpaceOnUse">
      <stop offset=".07" stop-color="#4ba355"/>
      <stop offset=".45" stop-color="#0f2629"/>
    </linearGradient>
  </defs>
  <path class="cls-1" d="m743.42,740.96s-23.44-15.13-40.27-9.62l-21.26-2.05s-3.38.33-8.25-4.06l-41.36-4.28s-42.85,2.94-66.99,10.2c0,0-6.82,5.34-11.98,4.13l-21.55-2.37s-12.45-2.55-19.91-14.26c0,0-18.14-16.36-30.94-22.69,0,0-7.54-3.14-16.95-11.79l-12.81-11.68s-18.35.81-33.11-4.48c0,0,.14,1.54-8.29-5.74,0,0-32.12-16.67-36.42-16.79,0,0-2.79-1.08-8.82-4.58,0,0-26.23-13.15-29.2-13.16l-19.36-4.85s-27.17-9.81-41.6-17.43c0,0-4.72-3.51.72-3.89l37.79,13.68,19.96,6.85,28.86,12.24s-3.7-15.18-22.5-26.87c0,0-20.92-10.34-25.57-11.44,0,0-6.55-.44-4.36-2.32,0,0,7.87.94,18.21,4.55,0,0,31.16,11.86,38.07,36.73,0,0,12.02,4.83,19.33,8.82,0,0,20.31,8.97,29.19,15.43,0,0,22.55,2.65,27.45,4.72l-17.11-16.04s-4.53.75-8.95-3.99c0,0-1.09-4.54-5.57-7.5-4.49-2.96-10.85-1.82-14.38-9.72,0,0-3.93-6.06-13.24-14.35,0,0-15.23-12.77-18.79-13.17,0,0-5.42,3.18-21.94-11.09,0,0-4.74-6.58-8.86-7.42,0,0-20.73-9.19-31.01-16.24l-26.35-10.96s-4.22-.41-6.93-3.16c0,0-20.35-24.11-43.67-27.59,0,0-2.68.65-6.45-1.45,0,0-24.55-11.78-37.67-9.43,0,0-3.62.73-7.18,3.36,0,0-2.31-10.53,9.18-10.81,0,0,19.98,2.63,34.84,10.15,0,0,2.53-9.82.09-13.51-2.44-3.68-7.15-7.28-9.21-11.83,0,0-2.45-3.41.5-11.24,0,0,2.71,13.55,11.04,19.57,0,0,5.25,6.2,4.07,10.83l-.18,5.94s-.62,2.19,4.48,3.44c0,0,18.6,6.64,26.04,12.92l15.14,13.65,25.82,9.15s-4.95-4.74-7.64-17.93c0,0-3.35-8.81-7.07-15.16,0,0-12.59-28.39-14.74-42.89l-.16-4.19s-19.28-27.21-24.34-29.53c0,0-2.15-1.4-.8-2.95,0,0,1.07-1.95,4.14.67l14.12,13.21,5.56,6.43,15.09-24.41s.69-3.56,5.33-9.37c0,0-3.13-10.41.45-15.14,0,0,1.56-3.04,3.81.07l-1.25,16-12.74,29.42-6.04,16.41s11.99,39.39,20.17,50.81c0,0,1.49,3.93,4.9,14.85,0,0,7.11,19.87,18.35,21.34,0,0,19.32,7.54,25.87,12.84l21.7,9.98s-10.09-20.02-8.98-31.89l-6.12-22.36s-3.46-16.42-3.18-32.29l6.75-47.58s5.04-48.05,23.42-65.61l9.28-8.18s-16.42,19.72-18.34,33.62l-6.12,24.52-5.38,37.67-.9,31.8s4.64,27.42,4.73,35.13c0,0,4.13,22.67,10.35,32.75,0,0,4.67,6.59,2.93,14.84l30.97,30.84,11.48,6.3s7.62,1.02,13.92,10.92l19.38,18.09s10.41,2.94,23.23,13.9l21.95,20.37s-3.8-9.29-3.56-16.61c0,0-9.59-15.8-8.65-18.91,0,0-5.58-1.16-6.09-3.34,0,0-.9-1.78,4.63-4.05,0,0-11.22-16.97-14.44-29.62,0,0-4.26-10.19-13.74-11.69,0,0-10.88,1.55-17.95-7.22,0,0-5.73-4.06-13.03-2.11,0,0-5.39,1.45-14.26-4.03l-19.84-1.73s-2.09-.24-1.58-2.35c0,0,.36-1.94,2.84-1.48l12.9.73,13.71,2.8s2.5,1.82,8.55.83c0,0,6.32-2.29,12.78,4.83,0,0,9.52,8.61,20.01,3.81,0,0,1.5-4.23-8.91-16.8,0,0-13.02-8.97-13.19-20.12,0,0-5.93-10.25-15.66-18.19l-13.37-13.35s-2.26-4.78,3.28-4.35l20.12,19.05s5.5-2.7,7.87-28.15l5.55-64.87s-13.95-15.27-15.5-29.79c0,0-4.17-17.05-12.93-25.04,0,0-6.32-1.52-4.84-25.29l1.16-8.14s-1.62,20.48,5.13,29.71c0,0,10.5,7.91,14.78,26.32,0,0,6.04,16.02,15.96,28.52,0,0,2.86,2.82,2.48,8.28l-4.58,79.38s-7.74,18.13,4.48,29.76c0,0,8.78,6.07,10.74,18.8,0,0-.06,3.57,9.6,12.11,0,0,7.69,5.9,14.98,35.51l11.92,32.54s12.48,24.49,10.2,32.31l15.59,13.89s7.15,7.56,26.1,5.98c0,0,11.56-6.53,24.45-2.62l45.98-7.5s4.74-1.46.34-18.02c0,0-4.68-10.22-4.57-26.13l.46-25.37s-2.89-14.6.36-28.12l4.37-26.64s-7.62-6.52-26.04-11.22l-9.13-3.27s-3.43-1.84,1.46-1.98c0,0,22.2,2.22,32.52,8.76l.89.51s-5.17-14.63-18.4-29.11l-21.68-22.48s-9.39-.6-15.31-3.94c0,0-5.44-3.31-10.3.78,0,0-2.7,1.72-4.37,5.22,0,0-2.48-5.53,5.23-9.66,0,0,4.73-2.68,12.24,1.54,0,0,7.31,4.45,11.22,2.3l-15.3-25.13s-1.07-5.08,3.38-1.43c0,0,13.7,25.87,22.52,32.52,0,0,1.62-11.71,6.6-12.65,0,0,4.18-.23,2.1,2.71,0,0-5.31,7.72-3.56,14.84l12.16,11.7s23.1,21.45,23.72,41.07l-3.6,25.92,16.2-15.28s2.36-1.54,3.51.28c0,0,1.46,1.55-2.03,3.76l-16,18.44.11,13.43s-.09,13.4-.32,24.38l1.72,27.18,3.04,14.04s.62,6.95,6.28,6.29c0,0,15.45.53,23.89,5.31,0,0,2.96-1.01,13.07,3.57,0,0,4.43-3.4,21.44,2.59,0,0,10.21-1.86,18.91,3.33,0,0,23.51-8.29,33.98,1.57,0,0,10.62-6.92,31.82.04l-32.53,24.8Z"/>
</svg>