<?xml version="1.0" encoding="UTF-8"?>
<svg id="Layer_1" data-name="Layer 1" xmlns="http://www.w3.org/2000/svg" xmlns:xlink="http://www.w3.org/1999/xlink" viewBox="0 0 1075.85 1102.51">
  <defs>
    <style>
      .cls-1 {
        fill: url(#linear-gradient);
        stroke-width: 0px;
      }
    </style>
    <linearGradient id="linear-gradient" x1="994.41" y1="1170.48" x2="1134.19" y2="1503.21" gradientTransform="translate(-824.06 -652.23) rotate(-9.15) scale(1.12) skewX(.03)" gradientUnits="userSpaceOnUse">
      <stop offset=".06" stop-color="#4ba355"/>
      <stop offset=".65" stop-color="#0f2629"/>
    </linearGradient>
  </defs>
  <path class="cls-1" d="m678.56,775.27s-15.33-24.99-34.14-27.54l-19.47-11.7s-3.41-1.25-6-7.61l-37.73-23.03s-42.61-16.92-69.28-21.19c0,0-9.1,1.88-13.48-1.62l-19.59-12.12s-10.76-8.12-12.34-22.55c0,0-9.65-23.71-18.94-35.54,0,0-5.75-6.42-10.68-18.87l-6.75-16.87s-18.04-7.67-29.71-19.43c0,0-.6,1.51-5.24-9.2,0,0-22.95-30.43-27.02-32.52,0,0-2.17-2.3-6.3-8.36,0,0-18.96-24.41-21.8-25.79l-16.31-13.45s-21.45-21.7-31.7-35.49c0,0-2.86-5.47,2.54-3.32l29.82,30.22,15.94,15.61,21.92,24.76s3.68-15.97-8.83-35.59c0,0-15.18-19.33-19.13-22.5,0,0-6.09-3.43-3.09-4.19,0,0,7.13,4.5,15.34,12.64,0,0,24.32,25.46,19.11,52.01,0,0,9.26,10.06,14.39,17.17,0,0,15.26,17.77,20.72,27.91,0,0,20.42,12.85,24.14,17.05l-8.81-22.93s-4.72-1.37-6.71-7.87c0,0,1.12-4.77-1.79-9.61-2.91-4.84-9.57-6.69-9.19-15.74,0,0-.89-7.51-5.89-19.57,0,0-8.56-19-11.79-21.01,0,0-6.73.5-15.81-20.5,0,0-1.42-8.36-4.98-11.05,0,0-15.56-18.17-22.08-29.52l-20.12-22.41s-3.87-2.32-5.16-6.16c0,0-8.08-32.01-28.84-46,0,0-2.88-.62-5.51-4.33,0,0-17.99-22.36-31.73-26.17,0,0-3.83-.97-8.5-.14,0,0,2.8-10.97,13.98-5.94,0,0,17.96,11.65,28.67,25.54,0,0,7.11-8.07,6.52-12.66-.59-4.58-3.41-10.12-3.22-15.35,0,0-.73-4.33,5.84-10.34,0,0-3.85,13.98,1.28,23.47,0,0,2.09,8.24-1.25,12.05l-3,5.5s-1.64,1.78,2.67,5.29c0,0,14.72,14.78,18.88,24.11l8.05,19.79,20.47,20.46s-2.5-6.73,1.21-20.37c0,0,.97-9.82.43-17.5,0,0,1.42-32.47,6.27-47.09l1.84-4.01s-5.57-34.44-9.33-38.94c0,0-1.4-2.31.63-3.14,0,0,1.96-1.35,3.66,2.53l7.28,18.91,2.28,8.59,26.15-16.01s2.36-3.03,9.59-6.36c0,0,1.95-11.23,7.65-14.02,0,0,2.95-2.15,3.63,1.82l-8.83,14.47-26.28,21.81-13.63,12.66s-7.25,42.53-4.82,57.03c0,0-.44,4.37-2.37,16.21,0,0-2.64,21.94,7.47,28.49,0,0,14.99,15.96,18.76,23.95l16.11,19.35s-.16-23.46,6.57-34.1l4.77-23.83s4.5-17.02,12.34-31.82l29.17-41.63s27.76-42.86,53.8-50.92l12.82-3.42s-25.19,11-33.66,23.18l-17.58,20.24-23.14,32.94-16.03,29.48s-8.61,27.91-12.2,35.19c0,0-6.84,23.21-5.66,35.54,0,0,1.35,8.34-4.25,15.3l15.08,43.22,8.04,11.2s6.84,4.46,8.18,16.66l10.01,25.91s8.61,7.54,15.71,23.74l11.4,29.23s.77-10.48,4.5-17.25c0,0-1.69-19.26.7-21.75,0,0-4.81-3.65-4.26-5.94,0,0-.02-2.09,6.39-1.68,0,0-2.7-21.11.23-34.48,0,0,.76-11.54-7.64-17.3,0,0-11.2-3.54-13.82-15.03,0,0-3.58-6.45-11.53-7.97,0,0-5.87-1.11-11.79-10.33l-18.26-10.74s-1.89-1.18-.4-2.93c0,0,1.27-1.65,3.44-.09l12.06,6.61,11.84,8.93s1.53,2.86,7.83,4.71c0,0,7.16.75,9.99,10.42,0,0,5.05,12.47,17.43,12.77,0,0,3.46-3.29-.56-19.89,0,0-8.24-14.41-3.09-24.98,0,0-.82-12.36-6.39-24.3l-6.49-18.7s.1-5.53,5.22-2.58l10.26,27.15s6.57,0,20.99-22.85l36.26-58.44s-6.14-20.76-.71-35.13c0,0,4.12-17.94-.5-29.48,0,0-5.36-4.33,7.41-26l5-7.12s-11.32,18.51-9.23,30.29c0,0,6.33,12.25,1.67,31.53,0,0-1.83,17.84,1.75,34.15,0,0,1.4,3.96-1.56,8.92l-42.25,72.52s-16.09,13.48-9.88,30.03c0,0,5.55,9.74,1.37,22.61,0,0-1.76,3.33,3.46,15.8,0,0,4.58,9.08-2.52,40.27l-4.05,36.07s.33,28.76-5.6,35.06l8.38,20.22s3.27,10.39,22.25,17.61c0,0,14.23-.83,24.76,8.76l47.79,14.07s5.25.8,8.92-16.78c0,0,.37-11.76,8.06-26.66l12.54-23.64s4.18-15.05,13.75-26.27l16.9-23.03s-4.22-9.64-19.7-22.51l-7.22-7.27s-2.42-3.3,2.34-1.19c0,0,20.3,12.28,27.09,23.18l.61.89s2.01-16.13-3.82-35.81l-10.13-31.1s-8.75-4.87-12.84-10.73c0,0-3.65-5.61-10.28-4,0,0-3.41.37-6.69,2.9,0,0,.25-6.34,9.63-6.68,0,0,5.82-.34,11.03,7.07,0,0,4.91,7.54,9.7,7.31l-2.74-30.65s1.39-5.26,3.93.2c0,0,.84,30.61,6.16,40.91,0,0,7.14-10.26,12.38-8.87,0,0,4.13,1.7.72,3.51,0,0-8.79,4.82-10.49,12.31l6.12,16.58s11.99,30.77,3.23,49.5l-15.82,22.72,22.87-6.93s3-.36,3.25,1.87c0,0,.66,2.12-3.74,2.6l-24.18,9.99-6.29,12.67s-6.47,12.56-11.93,22.77l-11.3,26.34-3.76,14.59s-2.71,6.82,3.04,8.79c0,0,14.6,7.59,20.44,15.96,0,0,3.32.41,10.87,9.36,0,0,5.88-1.16,19.38,12.29,0,0,10.71,2.94,16.6,11.82,0,0,26.56,3,31.94,17.09,0,0,13.51-1.63,30.59,14.66l-43.11,8.37Z"/>
</svg>