<?xml version="1.0" encoding="UTF-8"?>
<svg id="Layer_1" data-name="Layer 1" xmlns="http://www.w3.org/2000/svg" xmlns:xlink="http://www.w3.org/1999/xlink" viewBox="0 0 1075.85 1102.51">
  <defs>
    <style>
      .cls-1 {
        fill: url(#linear-gradient);
        stroke-width: 0px;
      }
    </style>
    <linearGradient id="linear-gradient" x1="222.76" y1="625.33" x2="125.14" y2="981.02" gradientTransform="translate(485.32 -407.78) rotate(5.73) scale(1.07 1.14) skewX(.36)" gradientUnits="userSpaceOnUse">
      <stop offset=".2" stop-color="#4ba355"/>
      <stop offset=".8" stop-color="#0f2629"/>
    </linearGradient>
  </defs>
  <path class="cls-1" d="m407.91,822.15s13.55-26.5,31.95-30.37l18.47-13.24s3.28-1.5,5.44-8.16l35.78-26.02s40.98-20.13,67.03-26.3c0,0,9.1,1.3,13.2-2.57l18.57-13.68s10.11-9,10.76-23.8c0,0,8.03-24.8,16.44-37.48,0,0,5.27-6.93,9.35-19.95l5.59-17.64s17.31-9.04,28.09-21.81c0,0,.69,1.5,4.59-9.73,0,0,20.72-32.55,24.61-34.95,0,0,2-2.49,5.69-8.94,0,0,17.16-26.14,19.89-27.74l15.25-14.81s19.8-23.56,29.03-38.3c0,0,2.48-5.77-2.72-3.21l-27.52,32.8-14.74,16.98-20.06,26.71s-4.64-16.01,6.47-36.85c0,0,13.76-20.72,17.46-24.22,0,0,5.79-3.91,2.78-4.48,0,0-6.75,5.06-14.34,13.92,0,0-22.39,27.58-15.56,54.27,0,0-8.51,10.87-13.11,18.47,0,0-13.93,19.13-18.68,29.83,0,0-19.34,14.48-22.75,19l7.24-23.95s4.57-1.72,6.12-8.47c0,0-1.41-4.78,1.15-9.91,2.56-5.13,9.02-7.46,8.08-16.66,0,0,.41-7.7,4.58-20.33,0,0,7.24-19.93,10.31-22.2,0,0,6.67.05,14.31-21.96,0,0,.87-8.61,4.22-11.59,0,0,14.2-19.56,19.92-31.56l18.44-24.19s3.67-2.63,4.7-6.62c0,0,5.95-33.15,25.55-48.8,0,0,2.81-.83,5.16-4.78,0,0,16.34-23.99,29.66-28.81,0,0,3.72-1.25,8.38-.72,0,0-3.45-10.98-14.18-5.1,0,0-16.98,13.09-26.68,27.96,0,0-7.53-7.74-7.24-12.44.29-4.71,2.72-10.54,2.2-15.85,0,0,.45-4.46-6.42-10.13,0,0,4.68,13.98.22,23.98,0,0-1.55,8.54,2,12.18l3.31,5.4s1.73,1.7-2.3,5.57c0,0-13.59,16.06-17.11,25.84l-6.69,20.7-18.91,22.23s2.04-7.03-2.48-20.66c0,0-1.58-9.94-1.53-17.79,0,0-3.46-32.97-9.17-47.52l-2.07-3.96s3.32-35.45,6.75-40.29c0,0,1.23-2.44-.82-3.16,0,0-2.02-1.24-3.46,2.83l-5.99,19.75-1.71,8.91-26.82-14.52s-2.52-2.92-9.87-5.82c0,0-2.64-11.3-8.44-13.75,0,0-3.05-1.98-3.47,2.1l9.63,14.13,27.31,20.42,14.25,11.96s9.84,42.82,8.37,57.74c0,0,.71,4.42,3.36,16.34,0,0,3.99,22.16-5.57,29.52,0,0-13.78,17.27-16.99,25.67l-14.67,20.81s-1.33-23.89-8.64-34.28l-6.22-23.94s-5.52-17.03-14.19-31.56l-31.43-40.4s-30.11-41.75-56.32-48.19l-12.87-2.61s25.56,9.48,34.69,21.31l18.63,19.41,24.92,31.97,17.68,28.92s10.26,27.83,14.26,35.01c0,0,8.21,23.17,7.83,35.81,0,0-.81,8.59,5.17,15.29l-12.15,45.04-7.23,11.95s-6.47,5.01-7.02,17.52l-8.24,27.06s-8.02,8.27-14.01,25.24l-9.4,30.54s-1.42-10.62-5.53-17.26c0,0,.45-19.73-2.06-22.1,0,0,4.52-4.04,3.83-6.34,0,0-.11-2.13-6.41-1.27,0,0,1.33-21.68-2.41-35.09,0,0-1.48-11.7,6.45-18.14,0,0,10.83-4.37,12.68-16.25,0,0,3.12-6.81,10.87-8.9,0,0,5.72-1.53,10.98-11.33l17.34-12.18s1.79-1.33.21-3.02c0,0-1.36-1.6-3.4.14l-11.48,7.55-11.12,9.9s-1.33,3.02-7.42,5.33c0,0-7.02,1.25-9.2,11.29,0,0-4.19,13.04-16.4,14.19,0,0-3.63-3.11-.7-20.29,0,0,7.22-15.24,1.47-25.64,0,0,.02-12.64,4.77-25.17l5.22-19.48s-.45-5.63-5.32-2.27l-8.41,28.35s-6.49.44-22.16-21.83l-39.49-57.03s4.74-21.56-1.52-35.81c0,0-5.2-17.99-1.38-30.05,0,0,5.01-4.77-8.95-25.97l-5.38-6.91s12.34,18.07,11.02,30.21c0,0-5.47,12.91.35,32.22,0,0,2.93,18.04.43,34.89,0,0-1.13,4.13,2.1,8.98l46.29,70.97s16.73,12.63,11.65,29.91c0,0-4.86,10.29.08,23.11,0,0,1.95,3.27-2.42,16.32,0,0-3.94,9.55,5.04,40.83l6.28,36.45s1.5,29.31,7.74,35.32l-6.99,21.16s-2.57,10.81-20.84,19.44c0,0-14.09.12-23.88,10.61l-46.27,17.59s-5.13,1.18-9.87-16.48c0,0-1.11-11.95-9.65-26.6l-13.87-23.22s-5.08-15.04-15.23-25.82l-18.14-22.3s3.56-10.1,18.01-24.26l6.67-7.9s2.18-3.53-2.39-1.05c0,0-19.25,13.89-25.27,25.45l-.55.95s-3-16.29,1.5-36.73l8.03-32.35s8.32-5.56,12-11.8c0,0,3.25-5.96,9.89-4.77,0,0,3.39.15,6.79,2.5,0,0-.64-6.44-9.93-6.14,0,0-5.77.05-10.44,7.95,0,0-4.37,8.02-9.11,8.11l.76-31.4s-1.71-5.26-3.87.47c0,0,1.11,31.23-3.49,42.08,0,0-7.7-9.96-12.78-8.18,0,0-3.97,2.01-.49,3.63,0,0,8.98,4.31,11.13,11.82l-4.99,17.3s-9.88,32.15-.06,50.63l17.05,22.05-23.01-5.49s-2.98-.16-3.08,2.13c0,0-.52,2.21,3.86,2.39l24.49,8.52,7.01,12.47s7.18,12.35,13.21,22.38l12.82,26.05,4.64,14.6s3.11,6.76-2.45,9.16c0,0-13.93,8.73-19.16,17.64,0,0-3.25.64-10.13,10.27,0,0-5.88-.78-18.35,13.83,0,0-10.38,3.73-15.63,13.17,0,0-26.03,4.87-30.44,19.57,0,0-13.44-.74-29.26,17.01l43.07,5.59Z"/>
</svg>