<?xml version="1.0" encoding="UTF-8"?>
<svg id="Layer_1" data-name="Layer 1" xmlns="http://www.w3.org/2000/svg" viewBox="0 0 753.94 813.95">
  <defs>
    <style>
      .cls-1 {
        stroke-linecap: round;
        stroke-linejoin: round;
        stroke-width: 2px;
      }

      .cls-1, .cls-2 {
        fill: none;
        stroke: #fff;
      }

      .cls-2 {
        stroke-miterlimit: 10;
      }
    </style>
  </defs>
  <path class="cls-2" d="m300.9,379.58s-4.21-8.09-5.73-17.33l-8.7-36.97s-2.22-12.52-2.11-19.66v-22.47s.1-5.04,1.45-7.46l9.66-16.49,4.19-6.35s1.84-2.51,4.16-.49l4.34,4.84s2.01,2.82,2.6-.36l1.16-7.25,3.64-19.89s1.02-7.5,4.88-9.8c0,0,8.81-4.41,16.57-6.31,0,0,11.07-3.12,19.78-3.69,0,0,5.14-.26,9.35,0,0,0,3.05.37,3.46,3.08l1.09,9.74,1.33,8.7,2.13,8.76s.22,2.39,1.62.79c0,0,5.08-6.04,9.38-7.68,0,0,4.76-2.51,12.35-3.28,0,0,6.71-3.12,14.65-.81,0,0,14.88,5.09,18.27,7.17,0,0,4.59,2.2,5.66,7.07l2.13,7.78s1.62-2.69,2.41-3.25c0,0,2.8-3.69,6.27-4.42,0,0,2.91-1.01,5.15,1.18l.71.9s.23.89,1.71.23l7.04-3.85s3.23-2.04,6.19.59c0,0,2.31,2.23,1.81,6.55,0,0,.42,4.67-4.03,6.93,0,0-11.75,8.56-12.88,10.54,0,0-1.84,2.26.92,5.66,0,0,7.24,10.02,8.21,16.48,0,0,3.04,7.57.12,19.66,0,0-10.55,33.19-12.64,55.77,0,0-1,8.37-6.27,19.24,0,0-11.09,18.08-18,23.45,0,0-7.86,6.38-15.93,10,0,0,3.58,4.2,4.36,5.27l10.98-5.28s3.51-1.99,5.68.41c0,0,1.77,2.74-1.03,6.11l-5.27,8.13s-1.21,2.01.16,5.45l4.64,8.29s1.36,2.05,2.86,1.92c0,0,6.51-1.05,11.37,0,0,0,3.81.73,3.24,3.46,0,0-.07,2.53-4.14,5.4,0,0-2.23,2.18-3.33,2.83,0,0-2.33,1.82-1.01,4.75,0,0,5.94,14.36,6.56,18.4,0,0,5.19,15.09-1.88,21.92,0,0-7.76,7.99-21.54,6.49,0,0-6.49-.58-11.35-7.3l.23,22.35s-.15,7.5-8.87,9.66c0,0-20.67,1.71-25.44-1.53,0,0-3.6-2.88-4.31-4.4,0,0-4.26,5.42-10.35,5.86,0,0-18.28.84-22.43-.8,0,0-6.13-2.49-6-8.07l.56-6.58.06-14.73s-9.51,6.84-21.39,4.93c0,0-8.26-1.32-11.74-6.63,0,0-4.29-3.07-3.27-13.9,0,0,2.48-10.17,2.89-10.97,0,0,.35-.75-1.27-3.11,0,0-4.44-5.76-4.32-9.33,0,0-1.15-6.68,2.94-6.28l7.37,2.25s1.56.63,1.73-.35c0,0,5.08-12.37,7.76-15.45l6.36-10.93s2.03-4.63-2.54-4.49c0,0-5.61.64-8.76,2.24,0,0-4.66,1.14-7.08-2.05,0,0-2.51-1.96-1.42-4.52,0,0,1.32-2.82,4.01-4.01,0,0-2.17-1.29-3.25-3.56,0,0-1.54-2.97-.21-5.24,0,0,.97-3.53,5.52-3.89,0,0,2.99-.26,5.28,1.71,0,0,10.39,7.31,12.53,8.42l6.19,2.82,4.57-4.35-8.5-5.25-10.01-8.08c-2.21-1.82-6.39-6.75-7.64-9.32-2.41-4.95-5.01-10.33-7.61-15.97Z"/>
  <path class="cls-2" d="m441.59,270.01s-2.14-.82-2.08-3.61c0,0,3.61-4,4.11-7.67,0,0,.93-3.67.99-6.52,0,0-.27-2.57,2.14-2.79,0,0,1.48,0,1.31,2.79,0,0,.44,2.85,2.3,2.85,0,0,2.46-.33,4.27-2.3l7.94-5.59s1.1-.88,2.14.71c0,0,.93,1.31-.6,2.41,0,0-12.71,9.42-12.98,10.35,0,0-7.56,6.96-7.78,7.72s-1.75,1.64-1.75,1.64Z"/>
  <path class="cls-2" d="m296.1,268.38l-4.48,7.89s-1.62,2.92-1.44,7.86l-.65,13.7s.65,11.29,1.32,16.06l6.83,36.57s3.92,11.63,4.1,15.96c0,0,4.36,17.62,13.21,28.04,0,0,4.12,7.94,15.85,15.18,0,0,22.65,13.99,40.78,13.42,0,0,15.54-1.62,37.1-11.1,0,0,18.07-8.11,30.36-32.53,2.49-4.95,3.45-5.14,4.29-10.62.7-4.58,1.83-6.99,2.68-14.98l2.89-21.63s5.38-23.25,8.18-28.31c0,0,1.83-4.71,0-6.94,0,0-5.42,4.98-7.28,13.52,0,0-3.82,11.13-4.16,11.91,0,0-1.18,2.98-1.24.17,0,0,1.63-10.11,2.64-12.08,0,0,.9-4.83,1.85-6.12,0,0,2.36-5.56,2.42-7.14,0,0,.79-3.54,2.81-4.72,0,0,2.19-3.15.51-6.8,0,0-1.24-3.03-2.81-3.71,0,0,.75,5.95-2.36,8.76,0,0-4.64,4.58-4.43,7.91,0,0-.11,2.94-2.51,3.01,0,0-1.13.42-.46-2.8,0,0,.57-5.24,2.19-7.01,0,0,2.55-3.96,4.25-5.59,0,0,1.84-2.87,1.59-6.37,0,0,.32-2.87-2.62-2.8,0,0-1.73.22-4.24,2.86,0,0-1.49,1.64-2.86.88,0,0-.91-.04-1.25-1.45l-5-20.24-3.15-11.42s-.23-2.19-1.76-.29c0,0-10.8,11.92-13.67,13.98,0,0-2.66,1.93-3.6,2.35,0,0-1.02-.13-.33-.87,0,0,13.3-16.85,15.44-19.03,0,0,1.84-1.65.37-2.29,0,0-7.63-3.88-11.03-4.81l-5.01-1.94s-1.61-.5-1.48,1.57c0,0,.23,6.87-1.42,10.54l-4.93,29.86-3.31,14.57s-.79,1.09-.97-.21c0,0,.47-10.53.77-14.09l3.11-29.71s.82-5.66,1.42-7.06c0,0,.4-2.15.48-3.68,0,0,.8-2.82-3.26-2.12,0,0-9.17,1.87-12.19,3.29,0,0-6.92,2.41-9.06,8.88,0,0-1.72,5.41-4.5,8.73l-2.87,4.21s-.96,1.89-1.56-.13l-5.63-29.81-1.12-7.26s-1.02-6.96-4.55-7.11l-6.25.67s-2.65,0-2.39,3.91l1.52,31.7.63,14.15s-.55,6.72,2.19,11.34l4.36,7.67s4.65,6.33,4.48,11.14v8.1s-.17,3.44-1.54-.08l-1.83-7.26s-.76-6.8-5.12-11.92c0,0-1.29-1.78-1.32.64l.13,8.03s-.44,3.37-1.54.16c0,0-1.16-4.22-1.48-5.95l-1.51-12.01-1.81-31.94.14-22.96-.02-2.24s-.05-1.87-1.63-1.68c0,0-2.41.11-2.38,2.67l-.97,25.29-.52,7.11s-1.14,2.21-1.57-.17c0,0-.77-8.9-.3-14.24v-16.27s.14-3.3-3.13-2.23c0,0-12.93,4.81-14.21,6.18,0,0-2.65.68-2.85,4.71,0,0-4.01,18.6-4.01,23.25,0,0-1.65,18.72-.77,26.85l1.44,18s-.15,2.35-1.22.15c0,0-1.6-5.14-1.64-8.31,0,0-.88-9.28-2.29-12.61,0,0-3.61-10-6.59-12.57l-2.39-2.39s-1.79-2.37-3.08-.55c0,0-.74-.23-.08,8.32l.63,18.35s-.31,4.07-1.4.09c0,0-.88-4.91-.92-5.96,0,0-.83-6.57-1.18-7.8l-.64-4.36s-.55-2.52-1.29-1.87Z"/>
  <path class="cls-1" d="m360.05,394.79c6.82,3.53,14.27,5.63,23.73-.56"/>
  <path class="cls-2" d="m443.09,267.78s-1.31-2.65-1.9-2.69c0,0,2.2-3.25,2.3-4.25,0,0,.63,3.83,3.83,1.22,0,0,2.66-3.37,5.27-3.49l-9.5,9.2Z"/>
  <path class="cls-2" d="m374.59,257.64s-2.15,5.07,4.32,3.76c0,0,5.09.46,8.39-6.39,0,0-.05-2.68,4.02-1.34,0,0,5.72,1.62,8.3-.38,0,0,1.9-1.42,2.42-.45l.5.42.81-6.61s.88-5.89,1.32-6.38l.48-3.68s.63-2.41-2.28-2.23c0,0-5.27,1.03-7.06,1.5,0,0-5.96.83-9.15,3.46,0,0-3.82,2.3-5.26,5.53,0,0-2.47,6.66-3.28,7.57l-3.52,5.21Z"/>
  <path class="cls-2" d="m408.57,246.93s-1.31,9.61,1.37,11.54c0,0,3.47,2.19,7.87-3.28l9.32-11.33s1.95-1.99.37-2.29l-13.06-5.59-2.41-.93s-2.03-1.14-2.05,1.35c0,0,.24,7.72-1.42,10.54Z"/>
  <path class="cls-2" d="m417.7,259.59s11.12-10.88,11.58-12.15c0,0,1.01-1.86,1.92,0l2.7,10.65,4.2,16.88.74,3,.35,1.41s.88,2.99,3.72.92c0,0,2.74-3.02,4.62-3.21,0,0,3.28-.17,2.62,4.13,0,0,.19,3.72-3.27,6.98,0,0-2.68,1.34-2.78-1.96,0,0-3.98,2.07-4.47-1.59,0,0-.29-1.68-1.46-2.66,0,0-2.14-.32-2.56-2.56,0,0-1.92-6.29-4.13-9.05l-10.39-9.84s-.92-1.29-3.41-.96Z"/>
  <path class="cls-2" d="m447.56,293.01s1.52.68,1.05,3.08c0,0-.84,5.27,1.45,5.52l1.32-4.4s1.04-3.76,2.81-4.72c0,0,1.99-2.35.73-6.26,0,0-.72-2.9-3.03-4.25,0,0,.61,5.02-1.64,7.97l-2.68,3.06Z"/>
  <path class="cls-2" d="m448.02,315.81l2.23-6.89s1.89-7.14,6.9-11.98c0,0,2.31,3.94-1.65,11l-3.56,12.24s-2.15,3.8-3.44,1.78c0,0-1.22-.34.81-5.61,0,0-.42-1.49-1.29-.54Z"/>
  <path class="cls-2" d="m353.08,246.84s4.15,3.73,4.72-2.77c0,0-.49-5.3,3.96-2.33,0,0,1.7,3.46,3.75,4.38,0,0,2.69.82,2.19-4.88l-.88-7.73-1.85-11.13s-1.35-6.62-3.44-6.81c0,0-1.39-.52-5.26.15l-2.1.23s-2.59-.21-2.39,3.91l1.29,26.99Z"/>
  <path class="cls-2" d="m343.96,246.42s2.36,2.79,5.13-.16v-26.98s.41-2.87-1.99-2.49c0,0-2.16.22-2.05,2.62l-.22,5.74-.87,21.26Z"/>
  <path class="cls-2" d="m341.52,220.01s-.78-2.18-3.32-.97l-13.01,5.47s-3.57.92-3.77,5.7l-2.59,13.08-.86,5.18-.23,1.68s4.87.9,10.37-3.76c0,0,4.17,6.22,8.28-1.09,0,0,3.61,2.9,5.13-2.05v-23.24Z"/>
  <path class="cls-2" d="m301.08,275.17s6.95,2.78,8.12-6.74c0,0-2.09-3.76-5.66-6.83,0,0-2.19-1.77-2.84.98l.39,12.59Z"/>
  <circle class="cls-2" cx="328.3" cy="350.87" r="20.79"/>
  <ellipse class="cls-2" cx="414.57" cy="350.87" rx="21.35" ry="20.88"/>
  <circle class="cls-2" cx="322.29" cy="345.36" r="6.63"/>
  <circle class="cls-2" cx="408.68" cy="345.36" r="6.63"/>
  <circle class="cls-2" cx="332.76" cy="360.99" r="3.54"/>
  <circle class="cls-2" cx="419.12" cy="361.43" r="3.54"/>
  <path class="cls-2" d="m368.8,426.45s4.15-1.13,6.92,0c0,0-3.4,3.31-3.94,5.54l-2.98-5.54Z"/>
  <path class="cls-2" d="m377.27,454.19s-4.13.49-4.07-2.07c0,0-.13-.79.43-1.94,0,0,1.06-5.25-.44-7.32,0,0-2.35-2.26-.28-4.89,0,0,2.83-8.22,9.42-12.04l11.05-.88,6.03,23.53s-1.53,3.45-7.86,6.23c0,0-3.23,1.62-1.01-.93,0,0,1.17-1.81,1.36-2.29,0,0,.18-1-1.52.36,0,0-2.41,3.29-7.02,3.12l-6.09-.9Z"/>
  <path class="cls-2" d="m345.62,451.87s-1.88-1.33-.67-2.93c0,0,1.43-1.5,1.38-2.33,0,0-.31-.64-1.9.33,0,0-1.26.33-.78-1.45l2.12-9.11s.79-4.71,1.96-6.52l1.89-5.15,6.97.53s4.86.12,7.75,2.71c0,0,5.03,3.82,5.84,7.42,0,0,.78.97-.79,4.03,0,0-.99,3.2.98,5.12,0,0,3.67,6.3-2.25,8.88,0,0-4.03,1.05-5.96,1.05,0,0-.55-.06-.26-.67,0,0,.84-1.12.66-1.52s-.52-.38-.98-.05c0,0-3.36,3.26-6.57,3.48,0,0-3.91-.03-5.29-1.07l-4.1-2.74Z"/>
  <path class="cls-2" d="m340.68,460.46l1.66-7.58s.06-.76.84,0,4.96,4.11,4.96,4.11c0,0,1.77,2,3.24,1.15,0,0,1.1-.59,1.44.48l1.44,3.91s1.69,3.46-1.24,4.22c0,0-2.25.93-4.76-.45,0,0-1.94-.7-4.22-2.59,0,0-2.2-1.63-3.35-3.27Z"/>
  <path class="cls-2" d="m339.99,464.76s-.56,6.58-.56,8.82c0,0-.65,2.71,2.32,2.45l9.16-.65s2.5.3,2.93-2.07v-2.19s.6-2.84-2.67-2.41c0,0-3.27.47-4.91-1.29l-4-2.67s-2.12-2.03-2.28,0Z"/>
  <path class="cls-2" d="m376.72,482.1s-12.11-2.26-14.47-3.85c0,0-4.26-1.44-5.9-3.28,0,0-2.31-2.16.56-2.77l8.11,1.13s2.16-.21-3.39-1.39l-2.82-.67s-3.34-.46-2.51-3.08c0,0,1.44-3.59.15-4.33,0,0-2.49-4.54,1.06-5.72,0,0,5.04-1.95,12.84-1.95,0,0,12.57-.15,14.78,1.33,0,0,2.82,1.33-.72,3.8,0,0-.51.62-5.8.26,0,0-2.87.51,0,1.39l4.41.1s2.3-.35,2.48,1.59c0,0,.41,1.99-3.07,1.31l-11.6-.81s-1.89.23.46.95c0,0,4.96,1.44,8.94,1.22,0,0,6.41-.23,5.51,3.11l-4.51,8.84-1.44,2.17s-1.42,1.67-3.06.65Z"/>
  <path class="cls-2" d="m384.01,489.42s5.69-4.24,7.27-8.35c0,0,1.26-3.08,1.4-5.55l-4.57,7.83s-3.36,4.8-5.5,3.59c0,0-3.26-1.31-.89-5.27l5.04-9.56s2.39-3.75.78-8.02c0,0-1.82-4.66,3.26-6.29,0,0,4.38-1.26,7.55-3.64,0,0,1.49-1.21,1.96.75,0,0,.33,1.35-1.91,2.89,0,0-2.94,2.47-1.59,3.54,0,0,.98.89,3.08-1.45,0,0,1.12-1.54,1.12.79l.47,4.76s-.23,3.54-2.33,4.62c0,0-3.85,4.08-3.17,10.83,0,0,.01,9.88-4.82,11.01,0,0-5.06,2.89-6.87.23,0,0-1.23-1.57-.29-2.72Z"/>
  <path class="cls-2" d="m403.26,492.41l-1.19-20.84s-3.72,1.02-4.11,7.89v7.51s-.84,4.74,5.3,5.44Z"/>
  <path class="cls-2" d="m339.67,485.99l12.57,4.1s4.67,2.05,6.9-.44l4.54-5.41s2.18-2.27-2.1-4.37l-4.15-1.96s-4.06-1.44-7.55-.65l-9.2.92s-2.46.83-.54,1.75c0,0,8.47.52,10.17,1.22,0,0,1.66.99-.26,1.28h-8.73s-3.27-.23-2.4,2.38c0,0,.22.74.74,1.18Z"/>
  <path class="cls-2" d="m366.87,497.18l-4.06-2.64s-2.85-1.17-1.38-3.98l4.9-6.4s.46-2.76,6.49-1.42c0,0,5.78,1.6,8.41,7.04,0,0,2.18,4.81-.96,5.14l-5.02,2.26s-2.18.92-4.06,0c0,0-2.93,1.34-4.31,0Z"/>
  <path class="cls-2" d="m376.07,505.04s-1.05-3.55,0-5.3c0,0,1.93-1.84,3.46-.32,0,0,1.74,1.81,2,2.85,0,0,.95,1.71,1.21.1,0,0-.82-4.73,4.03-6.53l7.82-2.58s4.45-2.57,3.69,2.07c0,0-1.33,9.13-2.16,10.81,0,0-.68,2.15.72.97,0,0,1.58-1.11,2.19-5.06l.82-4.93s-.02-2.33,1.98-2.39c0,0,1.69-.27,1.86,2.38v7.45s-4.07,7.12-9.16,7.54c0,0-7.11,1.49-11.25-1.3l-6.36-4s-.86-.84-.84-1.77Z"/>
  <path class="cls-2" d="m345.7,511.96s3.98,1.76,4.01-1.89c0,0-.96-3.25.66-5.51,0,0,3.28-6.07,2.02-8.95,0,0-.52-3.06-4.62-3.99l-7-2.41s-2.6-1.26-2.19,1.93l.35,5.99s3.34,4.15,3.38,6.87c0,0,.04,1.77-1.08.35,0,0-1.21-3.37-2.12-3.37,0,0-.77-.17-.58,2.63,0,0,.83,3.61,3.41,5.78,0,0,2.47,2.21,3.74,2.57Z"/>
  <path class="cls-2" d="m352.69,512.38s-2.98-.98-1.18-4.48l1.72-3.76s1-3.76.63-5.8c0,0-.48-4.82,2.42-4.49l7.37,3.91s2.92.9,2.64,3.93c0,0,.75,3.95-2.05,5.52,0,0-7,4.44-7.18,5.16,0,0-2.88,1.29-4.37,0Z"/>
  <path class="cls-2" d="m345.33,520.02s-2,2.85-1.34,9.56c0,0-.61,1.66-4.73,0,0,0-2.98-.99-2.03-7l.43-8.51.05-1.99s-.33-3.07,1.89-1.23c0,0,3.93,3.36,8.51,3.93l8.04.33s3.78-.15,5.44-2.6c0,0,2.31-3.12,3.88-2.08l.29,9.03v4.3s.38,6.1-4.54,6.81c0,0-3.88,1.32-4.87-2.36,0,0-.9-6.67-2.13-7.09l-.09,8.56s-.66,2.07-3.93,1.13c0,0-2.41-.46-3.03.25,0,0-1.47.42-1.57-1.42l-.27-9.61Z"/>
  <path class="cls-2" d="m380.02,530.43s4.7-7.09,3.35-12.82c0,0-1.89-5.94-7-7.39v17.14s1.02,3.71,3.65,3.08Z"/>
  <path class="cls-2" d="m382.7,530.98h3.56s1.71-.7,0-2.47c0,0-1.97-2.09-3.96.12,0,0-1.81,1.81.4,2.35Z"/>
  <path class="cls-2" d="m390.92,530.98s6.79-.25,11.69-2.07c0,0,2.25-.46,1.93-4.83l.03-13.34s-.28-2.53-1.82-.53c0,0-3.18,4.5-7.62,4.65l-6.11-.07s-4.58-.45-4.43,5.57c0,0,.68,8.83,6.33,10.62Z"/>
  <path class="cls-2" d="m399.9,427.95s-3.96-2.1-1.82-3.6c0,0,8.63-2.26,8.98-2.49,0,0,.4-.44,1.03.91l1.54,2.1s-.04,1.64.87,1.72c0,0,.25-.15.52.19l2.21,2.88s1.05,1.43-.62,1.97c0,0-6.34-.39-8.81-1.83l-2.54-1.48s-1.18.16-1.36-.38Z"/>
  <path class="cls-2" d="m417.29,451s-8.07-2.41-10.45-4.29c0,0-3.12-2.08-3.2-4.41,0,0-.13-.59,1.25.25l5.93,2.48s1.29.06-.61-1.44l-2.37-1.72s-1.21-1.31-3.45-1.33c0,0-4.99-1.38-4.97-6.39v-2.8s-.43-1.54,1.39-.69c0,0,7.91,3.7,12.98,3.33,0,0,3.27-.24,4.27,2.73l5.72,10.28,2.63,4.62s1.11,2.4-1.65,1.94l-7.47-2.57Z"/>
  <path class="cls-2" d="m403.25,454.36l11.42,6.07s1.87,1.23,1.9-.69c0,0-.12-5.36-2.49-7.06,0,0-1.04-1.59-3.86-1.42,0,0-1.99-.19-3.03-1.66l-3.82-3.15s-2.35-1.99-1.88,1l1.33,6.04s-.02.64.43.88Z"/>
  <path class="cls-2" d="m417.3,430.15l-1.61-1.93s-1.08-1.04,0-2.17l5.9-4.98s1.56-1.24,3.15-1.77c0,0,2.43-1.54,1.06,1.45l-4.52,6.54-2,2.39s-.86,1.81-1.98.47Z"/>
  <path class="cls-2" d="m433.29,456.81s-2.35-.75-2.24-3.17c0,0-.54-2.2,2.24-2.91,0,0,2.95-1.07,6.73-.43,0,0,2.84,0,.68,2.6,0,0-3.77,3.84-7.41,3.91Z"/>
  <path class="cls-2" d="m412.44,483.36s5.58-7.39,5.87-11.36c0,0,.55-6.72-2.94-9.12l-10.49-5.42s-1.51-1.2-.69,1.41c0,0,7.15,19.62,7.15,22.07,0,0-.13,3.47,1.09,2.43Z"/>
  <path class="cls-2" d="m415.29,501.02s-2.68-9.43-2.73-12.57c0,0-.3-.82.54-1.69,0,0,4.99-5.77,5.72-10.74,0,0,1.48-9.31,0-15.71l-.96-3.99s-.64-2.67,1.42-2.36c0,0,3.24.07,4.18,5.1l4.3,17.75s.29,2.58,1.33,1.69c0,0,.84.44.3-3.01,0,0-1.73-12.3-3.75-15.6,0,0-2.27-3.31-.1-3.85,0,0,3.41-1.13,5.09,4.79l5.88,13.87s2.09,5.74-.24,9.12c0,0-1.75,4.14-.65,7.97l.91,7.47s.97,4.48-2.4,4.55l-5.65,1.23s-2.14.45-2.66-1.82c0,0-1.36-7.8-2.21-8.9,0,0-.95-1.81-1.1.57,0,0,.07,4.91.97,8.06,0,0,.21,2.28-2.26,2.13s-4.41-.7-5.9-4.05Z"/>
  <path class="cls-2" d="m438.47,498.79s-1.73-7.98,0-14.97c0,0,.29-1.79,1.62,2.02,0,0,2.95,7.92,0,12.14,0,0-1.68,3.7-1.62.81Z"/>
  <path class="cls-2" d="m299.74,471.48s3.71,5.85,4.37-1.52c0,0,.22-4.82-4.97-6.1,0,0-3.06-.62-1.77,3.21,0,0,.67,2.48,2.36,4.4Z"/>
  <path class="cls-2" d="m324.36,429s-4.51-4.24-9.54-2.47c0,0-5.74,2.17-7.82,1.68,0,0-3.76,0-.44-1.77l7.78-3.98-8-4.86s-1.81-.75-1.77-1.33c0,0-.49-2.21,2.39-1.81,0,0,11.14,4.29,14.71,6.67l5.88,3.58s.49.37.09.95c0,0-.32.86-1.62.17l-7.18-4.4s-1.73-.9-1.7,0c0,0-.4.37,1.39,1.27l6.33,4.23s1.52.86.73,1.85c0,0-.55.77-1.22.22Z"/>
  <path class="cls-2" d="m320.02,444.79s8.12-15.42,13.6-20.99c0,0,2.12-3.48,4.39-1.54l5.96,1.7s1.78.13,0,3.7l-2,7.97s.7,5.23-6.56,7.37l-12.53,3.45-2.56.32s-2.49.79-.3-1.97Z"/>
  <path class="cls-2" d="m329.93,481.25s-.73-1.71-.93-4.23c0,0-.87-11.67-1.87-13.2,0,0-2.4-6.54,0-12.35,0,0,.66-4.93,4.6-5.02,0,0,1.52.09,2.1,2.64l.19.64,2.44-3.91s1-2.06,2.91-1.87c0,0,1.47-.21.85,2.32,0,0-1.98,11.65-4.48,18.59l-4.84,16.38s-.41,1.84-.98,0Z"/>
  <path class="cls-2" d="m314.25,472.88s-4.01-9.77-1.37-16.06c0,0,2.6-6.29,5.75-7.22,0,0,3.18-1.5,1.73,2.94l-2.74,13.35-1.81,7.22s-.91,2.9-1.55-.23Z"/>
  <path class="cls-2" d="m316.08,503.91s.02-5.24.63-7.22c0,0,1.51-4.49,0-9.06,0,0-2.51-4.92-.36-10.6,0,0,4.67-14.39,4.38-17.21,0,0-.39-7.07,2.15-9.24,0,0,1.9-2.58,2.37,0,0,0,.34.25-.94,2.99,0,0-1.85,4.8.47,11.23,0,0,2.48,8.21,2.43,14.56,0,0,.52,7.61,1.68,11.26,0,0,.35,2.89-.55,5.42,0,0-.6,3.21-.68,4.31,0,0,.03,2.63-1.42,2.42,0,0-1.34.08-1.24-1.87l-.21-5.47s-1.18-.42-1.74,5.68c0,0,.53,5.09-2.44,4.42,0,0-1.57-.34-2.81.2,0,0-2.09.36-1.74-1.81Z"/>
  <path class="cls-2" d="m309.22,493.15s-.2,4.59.3,5.25c0,0,.52,3.56-.34,4.91,0,0-.26.69-1.09.13s-3.74-1.25-5.71-4.36c0,0-2.27-2-1.39-6.86,0,0,1.78-10.86,3.67-14.64,0,0,2.08-6.78,4.22-10.51,0,0,1.22-3.25,2.14,0l.38,6.61s1.59,11.65,2.73,12.86,1.01,9.5.44,11.53c0,0-1.08,4.94-.82,6.46,0,0-.56,1.63-1.9,0,0,0-1.63-3.93-1.46-8.47,0,0-.01-3.14-1.17-2.91Z"/>
  <path class="cls-2" d="m349.48,488.96s-2.69-2.77-.25-5.97h-8.33s-2.95-.13-1.09,2.57l9.68,3.41Z"/>
  <path class="cls-2" d="m338.59,491.13s-.84-2.38,1.79-2.08l6.54,2.26s2.27,1.47,0,2.52-8.32-2.71-8.32-2.71Z"/>
  <path class="cls-2" d="m305.5,427.12l8.82-4.65-8.46-5.34s-2.55-1.07-.36-2.44c0,0,1.99-.8,11.16,3.85,0,0,1.92,1.93.57,2.6,0,0-.64.43.32,1,0,0-.3,1.77-3.35.78,0,0-1.56,1.3,1.33,2.93,0,0-4.12,2.2-6.34,2.28,0,0-5.36.21-3.7-1.01Z"/>
</svg>