<?xml version="1.0" encoding="UTF-8"?>
<svg id="Layer_1" data-name="Layer 1" xmlns="http://www.w3.org/2000/svg" xmlns:xlink="http://www.w3.org/1999/xlink" viewBox="0 0 1315.47 1240.32">
  <defs>
    <style>
      .cls-1 {
        fill: url(#linear-gradient);
      }

      .cls-1, .cls-2, .cls-3, .cls-4, .cls-5, .cls-6, .cls-7, .cls-8, .cls-9 {
        stroke-width: 0px;
      }

      .cls-10 {
        fill: none;
        stroke: #221f20;
        stroke-linecap: round;
        stroke-linejoin: round;
        stroke-width: 2px;
      }

      .cls-2 {
        fill: url(#linear-gradient-4);
      }

      .cls-3 {
        fill: url(#linear-gradient-2);
      }

      .cls-4 {
        fill: url(#linear-gradient-3);
      }

      .cls-5 {
        fill: url(#linear-gradient-5);
      }

      .cls-6 {
        fill: #100f0e;
      }

      .cls-7 {
        fill: #dab27a;
      }

      .cls-8 {
        fill: #909b49;
      }

      .cls-9 {
        fill: #fff;
      }
    </style>
    <linearGradient id="linear-gradient" x1="909.56" y1="408.09" x2="811.93" y2="763.78" gradientTransform="translate(19.29 -205.02) rotate(5.73) scale(1.07 1.14) skewX(.36)" gradientUnits="userSpaceOnUse">
      <stop offset=".2" stop-color="#4ba355"/>
      <stop offset="1" stop-color="#0f2629"/>
    </linearGradient>
    <linearGradient id="linear-gradient-2" x1="486.26" y1="561.92" x2="626.03" y2="894.64" gradientTransform="translate(-182.43 .85) rotate(-9.15) scale(1.12) skewX(.03)" gradientUnits="userSpaceOnUse">
      <stop offset=".06" stop-color="#4ba355"/>
      <stop offset=".92" stop-color="#0f2629"/>
    </linearGradient>
    <linearGradient id="linear-gradient-3" x1="628.26" y1="535.13" x2="690.46" y2="716.44" gradientTransform="translate(-87.9 -115.71) rotate(-.1) scale(1.14) skewX(-.19)" gradientUnits="userSpaceOnUse">
      <stop offset="0" stop-color="#4ba355"/>
      <stop offset="1" stop-color="#0f2629"/>
    </linearGradient>
    <linearGradient id="linear-gradient-4" x1="426.81" y1="738.31" x2="631.01" y2="939.48" gradientTransform="translate(-408.74 -90.49) rotate(-12.48) scale(1.3 1.27) skewX(-1.24)" gradientUnits="userSpaceOnUse">
      <stop offset=".07" stop-color="#4ba355"/>
      <stop offset=".92" stop-color="#0f2629"/>
    </linearGradient>
    <linearGradient id="linear-gradient-5" x1="1016.64" y1="728.27" x2="689.8" y2="832.23" gradientTransform="translate(-113.66 -423.98) rotate(12.17) scale(1.38 1.19) skewX(4.32)" gradientUnits="userSpaceOnUse">
      <stop offset=".17" stop-color="#4ba355"/>
      <stop offset="1" stop-color="#0f2629"/>
    </linearGradient>
  </defs>
  <g>
    <path class="cls-1" d="m699.21,853.06s13.55-26.5,31.95-30.37l18.47-13.24s3.28-1.5,5.44-8.16l35.78-26.02s40.98-20.13,67.03-26.3c0,0,9.1,1.3,13.2-2.57l18.57-13.68s10.11-9,10.76-23.8c0,0,8.03-24.8,16.44-37.48,0,0,5.27-6.93,9.35-19.95l5.59-17.64s17.31-9.04,28.09-21.81c0,0,.69,1.5,4.59-9.73,0,0,20.72-32.55,24.61-34.95,0,0,2-2.49,5.69-8.94,0,0,17.16-26.14,19.89-27.74l15.25-14.81s19.8-23.56,29.03-38.3c0,0,2.48-5.77-2.72-3.21l-27.52,32.8-14.74,16.98-20.06,26.71s-4.64-16.01,6.47-36.85c0,0,13.76-20.72,17.46-24.22,0,0,5.79-3.91,2.78-4.48,0,0-6.75,5.06-14.34,13.92,0,0-22.39,27.58-15.56,54.27,0,0-8.51,10.87-13.11,18.47,0,0-13.93,19.13-18.68,29.83,0,0-19.34,14.48-22.75,19l7.24-23.95s4.57-1.72,6.12-8.47c0,0-1.41-4.78,1.15-9.91,2.56-5.13,9.02-7.46,8.08-16.66,0,0,.41-7.7,4.58-20.33,0,0,7.24-19.93,10.31-22.2,0,0,6.67.05,14.31-21.96,0,0,.87-8.61,4.22-11.59,0,0,14.2-19.56,19.92-31.56l18.44-24.19s3.67-2.63,4.7-6.62c0,0,5.95-33.15,25.55-48.8,0,0,2.81-.83,5.16-4.78,0,0,16.34-23.99,29.66-28.81,0,0,3.72-1.25,8.38-.72,0,0-3.45-10.98-14.18-5.1,0,0-16.98,13.09-26.68,27.96,0,0-7.53-7.74-7.24-12.44.29-4.71,2.72-10.54,2.2-15.85,0,0,.45-4.46-6.42-10.13,0,0,4.68,13.98.22,23.98,0,0-1.55,8.54,2,12.18l3.31,5.4s1.73,1.7-2.3,5.57c0,0-13.59,16.06-17.11,25.84l-6.69,20.7-18.91,22.23s2.04-7.03-2.48-20.66c0,0-1.58-9.94-1.53-17.79,0,0-3.46-32.97-9.17-47.52l-2.07-3.96s3.32-35.45,6.75-40.29c0,0,1.23-2.44-.82-3.16,0,0-2.02-1.24-3.46,2.83l-5.99,19.75-1.71,8.91-26.82-14.52s-2.52-2.92-9.87-5.82c0,0-2.64-11.3-8.44-13.75,0,0-3.05-1.98-3.47,2.1l9.63,14.13,27.31,20.42,14.25,11.96s9.84,42.82,8.37,57.74c0,0,.71,4.42,3.36,16.34,0,0,3.99,22.16-5.57,29.52,0,0-13.78,17.27-16.99,25.67l-14.67,20.81s-1.33-23.89-8.64-34.28l-6.22-23.94s-5.52-17.03-14.19-31.56l-31.43-40.4s-30.11-41.75-56.32-48.19l-12.87-2.61s25.56,9.48,34.69,21.31l18.63,19.41,24.92,31.97,17.68,28.92s10.26,27.83,14.26,35.01c0,0,8.21,23.17,7.83,35.81,0,0-.81,8.59,5.17,15.29l-12.15,45.04-7.23,11.95s-6.47,5.01-7.02,17.52l-8.24,27.06s-8.02,8.27-14.01,25.24l-9.4,30.54s-1.42-10.62-5.53-17.26c0,0,.45-19.73-2.06-22.1,0,0,4.52-4.04,3.83-6.34,0,0-.11-2.13-6.41-1.27,0,0,1.33-21.68-2.41-35.09,0,0-1.48-11.7,6.45-18.14,0,0,10.83-4.37,12.68-16.25,0,0,3.12-6.81,10.87-8.9,0,0,5.72-1.53,10.98-11.33l17.34-12.18s1.79-1.33.21-3.02c0,0-1.36-1.6-3.4.14l-11.48,7.55-11.12,9.9s-1.33,3.02-7.42,5.33c0,0-7.02,1.25-9.2,11.29,0,0-4.19,13.04-16.4,14.19,0,0-3.63-3.11-.7-20.29,0,0,7.22-15.24,1.47-25.64,0,0,.02-12.64,4.77-25.17l5.22-19.48s-.45-5.63-5.32-2.27l-8.41,28.35s-6.49.44-22.16-21.83l-39.49-57.03s4.74-21.56-1.52-35.81c0,0-5.2-17.99-1.38-30.05,0,0,5.01-4.77-8.95-25.97l-5.38-6.91s12.34,18.07,11.02,30.21c0,0-5.47,12.91.35,32.22,0,0,2.93,18.04.43,34.89,0,0-1.13,4.13,2.1,8.98l46.29,70.97s16.73,12.63,11.65,29.91c0,0-4.86,10.29.08,23.11,0,0,1.95,3.27-2.42,16.32,0,0-3.94,9.55,5.04,40.83l6.28,36.45s1.5,29.31,7.74,35.32l-6.99,21.16s-2.57,10.81-20.84,19.44c0,0-14.09.12-23.88,10.61l-46.27,17.59s-5.13,1.18-9.87-16.48c0,0-1.11-11.95-9.65-26.6l-13.87-23.22s-5.08-15.04-15.23-25.82l-18.14-22.3s3.56-10.1,18.01-24.26l6.67-7.9s2.18-3.53-2.39-1.05c0,0-19.25,13.89-25.27,25.45l-.55.95s-3-16.29,1.5-36.73l8.03-32.35s8.32-5.56,12-11.8c0,0,3.25-5.96,9.89-4.77,0,0,3.39.15,6.79,2.5,0,0-.64-6.44-9.93-6.14,0,0-5.77.05-10.44,7.95,0,0-4.37,8.02-9.11,8.11l.76-31.4s-1.71-5.26-3.87.47c0,0,1.11,31.23-3.49,42.08,0,0-7.7-9.96-12.78-8.18,0,0-3.97,2.01-.49,3.63,0,0,8.98,4.31,11.13,11.82l-4.99,17.3s-9.88,32.15-.06,50.63l17.05,22.05-23.01-5.49s-2.98-.16-3.08,2.13c0,0-.52,2.21,3.86,2.39l24.49,8.52,7.01,12.47s7.18,12.35,13.21,22.38l12.82,26.05,4.64,14.6s3.11,6.76-2.45,9.16c0,0-13.93,8.73-19.16,17.64,0,0-3.25.64-10.13,10.27,0,0-5.88-.78-18.35,13.83,0,0-10.38,3.73-15.63,13.17,0,0-26.03,4.87-30.44,19.57,0,0-13.44-.74-29.26,17.01l43.07,5.59Z"/>
    <path class="cls-3" d="m651.92,851.29s-15.33-24.99-34.14-27.54l-19.47-11.7s-3.41-1.25-6-7.61l-37.73-23.03s-42.61-16.92-69.28-21.19c0,0-9.1,1.88-13.48-1.62l-19.59-12.12s-10.76-8.12-12.34-22.55c0,0-9.65-23.71-18.94-35.54,0,0-5.75-6.42-10.68-18.87l-6.75-16.87s-18.04-7.67-29.71-19.43c0,0-.6,1.51-5.24-9.2,0,0-22.95-30.43-27.02-32.52,0,0-2.17-2.3-6.3-8.36,0,0-18.96-24.41-21.8-25.79l-16.31-13.45s-21.45-21.7-31.7-35.49c0,0-2.86-5.47,2.54-3.32l29.82,30.22,15.94,15.61,21.92,24.76s3.68-15.97-8.83-35.59c0,0-15.18-19.33-19.13-22.5,0,0-6.09-3.43-3.09-4.19,0,0,7.13,4.5,15.34,12.64,0,0,24.32,25.46,19.11,52.01,0,0,9.26,10.06,14.39,17.17,0,0,15.26,17.77,20.72,27.91,0,0,20.42,12.85,24.14,17.05l-8.81-22.93s-4.72-1.37-6.71-7.87c0,0,1.12-4.77-1.79-9.61-2.91-4.84-9.57-6.69-9.19-15.74,0,0-.89-7.51-5.89-19.57,0,0-8.56-19-11.79-21.01,0,0-6.73.5-15.81-20.5,0,0-1.42-8.36-4.98-11.05,0,0-15.56-18.17-22.08-29.52l-20.12-22.41s-3.87-2.32-5.16-6.16c0,0-8.08-32.01-28.84-46,0,0-2.88-.62-5.51-4.33,0,0-17.99-22.36-31.73-26.17,0,0-3.83-.97-8.5-.14,0,0,2.8-10.97,13.98-5.94,0,0,17.96,11.65,28.67,25.54,0,0,7.11-8.07,6.52-12.66-.59-4.58-3.41-10.12-3.22-15.35,0,0-.73-4.33,5.84-10.34,0,0-3.85,13.98,1.28,23.47,0,0,2.09,8.24-1.25,12.05l-3,5.5s-1.64,1.78,2.67,5.29c0,0,14.72,14.78,18.88,24.11l8.05,19.79,20.47,20.46s-2.5-6.73,1.21-20.37c0,0,.97-9.82.43-17.5,0,0,1.42-32.47,6.27-47.09l1.84-4.01s-5.57-34.44-9.33-38.94c0,0-1.4-2.31.63-3.14,0,0,1.96-1.35,3.66,2.53l7.28,18.91,2.28,8.59,26.15-16.01s2.36-3.03,9.59-6.36c0,0,1.95-11.23,7.65-14.02,0,0,2.95-2.15,3.63,1.82l-8.83,14.47-26.28,21.81-13.63,12.66s-7.25,42.53-4.82,57.03c0,0-.44,4.37-2.37,16.21,0,0-2.64,21.94,7.47,28.49,0,0,14.99,15.96,18.76,23.95l16.11,19.35s-.16-23.46,6.57-34.1l4.77-23.83s4.5-17.02,12.34-31.82l29.17-41.63s27.76-42.86,53.8-50.92l12.82-3.42s-25.19,11-33.66,23.18l-17.58,20.24-23.14,32.94-16.03,29.48s-8.61,27.91-12.2,35.19c0,0-6.84,23.21-5.66,35.54,0,0,1.35,8.34-4.25,15.3l15.08,43.22,8.04,11.2s6.84,4.46,8.18,16.66l10.01,25.91s8.61,7.54,15.71,23.74l11.4,29.23s.77-10.48,4.5-17.25c0,0-1.69-19.26.7-21.75,0,0-4.81-3.65-4.26-5.94,0,0-.02-2.09,6.39-1.68,0,0-2.7-21.11.23-34.48,0,0,.76-11.54-7.64-17.3,0,0-11.2-3.54-13.82-15.03,0,0-3.58-6.45-11.53-7.97,0,0-5.87-1.11-11.79-10.33l-18.26-10.74s-1.89-1.18-.4-2.93c0,0,1.27-1.65,3.44-.09l12.06,6.61,11.84,8.93s1.53,2.86,7.83,4.71c0,0,7.16.75,9.99,10.42,0,0,5.05,12.47,17.43,12.77,0,0,3.46-3.29-.56-19.89,0,0-8.24-14.41-3.09-24.98,0,0-.82-12.36-6.39-24.3l-6.49-18.7s.1-5.53,5.22-2.58l10.26,27.15s6.57,0,20.99-22.85l36.26-58.44s-6.14-20.76-.71-35.13c0,0,4.12-17.94-.5-29.48,0,0-5.36-4.33,7.41-26l5-7.12s-11.32,18.51-9.23,30.29c0,0,6.33,12.25,1.67,31.53,0,0-1.83,17.84,1.75,34.15,0,0,1.4,3.96-1.56,8.92l-42.25,72.52s-16.09,13.48-9.88,30.03c0,0,5.55,9.74,1.37,22.61,0,0-1.76,3.33,3.46,15.8,0,0,4.58,9.08-2.52,40.27l-4.05,36.07s.33,28.76-5.6,35.06l8.38,20.22s3.27,10.39,22.25,17.61c0,0,14.23-.83,24.76,8.76l47.79,14.07s5.25.8,8.92-16.78c0,0,.37-11.76,8.06-26.66l12.54-23.64s4.18-15.05,13.75-26.27l16.9-23.03s-4.22-9.64-19.7-22.51l-7.22-7.27s-2.42-3.3,2.34-1.19c0,0,20.3,12.28,27.09,23.18l.61.89s2.01-16.13-3.82-35.81l-10.13-31.1s-8.75-4.87-12.84-10.73c0,0-3.65-5.61-10.28-4,0,0-3.41.37-6.69,2.9,0,0,.25-6.34,9.63-6.68,0,0,5.82-.34,11.03,7.07,0,0,4.91,7.54,9.7,7.31l-2.74-30.65s1.39-5.26,3.93.2c0,0,.84,30.61,6.16,40.91,0,0,7.14-10.26,12.38-8.87,0,0,4.13,1.7.72,3.51,0,0-8.79,4.82-10.49,12.31l6.12,16.58s11.99,30.77,3.23,49.5l-15.82,22.72,22.87-6.93s3-.36,3.25,1.87c0,0,.66,2.12-3.74,2.6l-24.18,9.99-6.29,12.67s-6.47,12.56-11.93,22.77l-11.3,26.34-3.76,14.59s-2.71,6.82,3.04,8.79c0,0,14.6,7.59,20.44,15.96,0,0,3.32.41,10.87,9.36,0,0,5.88-1.16,19.38,12.29,0,0,10.71,2.94,16.6,11.82,0,0,26.56,3,31.94,17.09,0,0,13.51-1.63,30.59,14.66l-43.11,8.37Z"/>
    <path class="cls-4" d="m690.33,835.16s-7.55-30.53,4.18-45.85l5.37-22.99s1.54-3.39-1.33-10.23l10.15-44.83s18.24-43.48,34.37-65.72c0,0,8-4.96,8.56-10.82l5.14-23.41s1.74-14.01-7.89-26.49c0,0-10.7-25.5-12.8-41.38,0,0-.62-9.12-6.35-22.42l-7.7-18.05s7.34-18.81,7.02-36.32c0,0,1.57.77-3.07-10.95,0,0-6.09-40.19-4.7-44.72,0,0-.14-3.35-1.68-11.04,0,0-4.48-32.63-3.45-35.73l1.78-22.14s-.65-32.27-3.53-50.37c0,0-2.01-6.33-4.32-.81l.95,44.9.1,23.56,2.6,35.01s-14.58-9.96-20.16-34.27c0,0-3.43-25.96-2.93-31.26,0,0,1.85-7.01-.89-5.48,0,0-1.81,8.58-1.68,20.81,0,0,1.39,37.25,24.97,54.46,0,0,.8,14.48,2.39,23.7,0,0,2.21,24.79,5.82,36.64,0,0-5.2,24.57-4.77,30.51l-10.73-24.28s2.39-4.42-1.01-10.94c0,0-4.37-2.96-5.88-8.83-1.51-5.87,1.94-12.04-5.09-18.9,0,0-4.95-6.54-10.34-19.58,0,0-7.98-21.01-7.14-24.89,0,0,5.25-4.37-3.85-27.33,0,0-5.21-7.59-4.64-12.22,0,0-2.29-25.31-6.03-38.86l-2.15-31.88s1.07-4.57-.86-8.5c0,0-18.04-30.92-13.43-56.62,0,0,1.62-2.53.76-7.31,0,0-3.65-30.33,3.46-43.06,0,0,2.05-3.48,6.05-6.13,0,0-10.21-6.65-14.56,5.22,0,0-4.31,21.88-1.7,40.4,0,0-11.18-1.32-14.17-5.34-2.99-4.02-5.09-10.38-9.13-14.36,0,0-2.7-3.92-11.95-4,0,0,13.22,8.28,16.58,19.38,0,0,4.63,7.97,9.89,8.6l6.28,2.2s2.51.24,2.02,6.05c0,0,.37,22.06,4.32,32.34l8.94,21.28.44,30.6s-3.21-7.07-16.07-15.18c0,0-8.04-7.04-13.36-13.47,0,0-25.26-24.55-39.68-32.63l-4.33-1.85s-21.66-31.05-22.3-37.26c0,0-.71-2.8-2.81-2.03,0,0-2.42.33-.76,4.59l8.83,20.04,4.76,8.38-30.89,5.91s-3.97-.71-11.7,1.78c0,0-9.79-7.45-16-5.62,0,0-3.74.4-1.27,4l17.19,5.14,35.31-1.44,19.32.31s36.99,28.35,46.05,41.48c0,0,3.58,3.13,13.81,11.08,0,0,18.29,15.4,15.85,27.72,0,0,1.06,23.17,4.29,32.13l2.77,26.64s-17.39-18.57-30.2-22.19l-21.24-15.37s-15.96-10.21-32.68-16.31l-52.19-12.12s-52.08-14.08-76.97-2l-11.84,6.38s26.45-9.18,41.68-5.58l27.83,3.49,41.34,9.55,33.6,11.85s27.06,15.88,35.1,19.07c0,0,22.27,13.43,30.62,23.97,0,0,5.25,7.52,14.5,9.03l21.33,44.7,2.54,14.51s-1.63,8.35,6.51,18.9l12.08,27.48s-.61,12.03,6.33,29.81l13.55,31.08s-8.37-7.7-16.13-10.39c0,0-13.15-16.36-16.73-16.63,0,0,.76-6.28-1.34-7.69,0,0-1.54-1.66-5.88,3.2,0,0-13.8-18.52-25.89-26.98,0,0-9.16-8.55-7.38-19.03,0,0,5.47-10.72-1.21-21.61,0,0-2.22-7.61,2.4-14.43,0,0,3.43-5.03.83-16.48l5.21-21.38s.49-2.27-1.9-2.59c0,0-2.16-.4-2.55,2.36l-3.8,13.74-1.91,15.41s1.02,3.34-2.15,9.25c0,0-4.63,5.66.54,15.27,0,0,5.65,13.39-3.1,22.39,0,0-4.96-.14-14.43-16.05,0,0-4.78-17.18-16.4-21.84,0,0-8.63-10.31-13.5-23.65l-9.25-19.31s-4.2-4.28-5.71,1.67l12.83,28.64s-4.77,4.65-32.25-3.12l-69.87-20.33s-11.05-20.69-25.69-28.15c0,0-16.37-11.21-21.64-23.56,0,0,.65-7.2-24.76-15.22l-8.93-2.06s22.01,6.55,29.28,17.31c0,0,4.56,14.12,22.32,26,0,0,14.64,12.75,24.21,28.12,0,0,1.94,4.11,7.78,5.92l84.72,27.17s21.71-.77,29.57,16.65c0,0,3.24,11.59,15.88,18.77,0,0,3.76,1.37,9.28,14.88,0,0,3.46,10.39,31.87,29.91l29.85,25.53s21.22,22.87,30.22,23.63l9.02,21.85s5.39,10.5-2.98,29.61c0,0-10.93,9.42-11.4,24.43l-24.11,44.91s-3.21,4.35-18.99-6.9c0,0-9.04-8.99-25.74-15.28l-26.72-9.73s-14.26-8.89-29.56-10.95l-29.43-6.17s-4.13-10.57-2.53-31.66l-.19-10.84s-.71-4.31-2.58.72c0,0-5.54,24.04-2.33,37.42l.22,1.13s-13.49-11.28-23.96-30.89l-15.87-31.65s2.7-10.03,1.29-17.54c0,0-1.54-7,4.46-10.42,0,0,2.75-2.12,7.01-2.45,0,0-4.91-4.81-11.96,1.56,0,0-4.47,3.85-2.72,13.37,0,0,2.07,9.41-1.57,12.62l-20.89-26.06s-4.93-3.16-2.7,2.94c0,0,22.23,24.69,26.07,36.56,0,0-12.83-3.02-15.58,1.78,0,0-1.72,4.26,2.1,3.28,0,0,9.96-2.43,16.79,2.27l7.94,17.38s14.28,32.71,34.6,41.25l28.41,6.68-21.73,10.74s-2.44,1.84-.95,3.77c0,0,1.11,2.14,4.65-.6l24.96-9.25,14.01,5.52s14.06,5.3,25.63,9.48l27.84,12.73,13.62,8.82s7.05,3.45,4.36,9.08c0,0-4.91,16.31-2.9,27.03,0,0-2.1,2.67-.88,15.06,0,0-5.13,3.25-4.87,23.39,0,0-5.56,9.9-3.2,21.05,0,0-17,21.17-10.38,36.05,0,0-11,8.28-11.22,33.19l37.47-23.92Z"/>
    <path class="cls-2" d="m691.97,949.56s-23.44-15.13-40.27-9.62l-21.26-2.05s-3.38.33-8.25-4.06l-41.36-4.28s-42.85,2.94-66.99,10.2c0,0-6.82,5.34-11.98,4.13l-21.55-2.37s-12.45-2.55-19.91-14.26c0,0-18.14-16.36-30.94-22.69,0,0-7.54-3.14-16.95-11.79l-12.81-11.68s-18.35.81-33.11-4.48c0,0,.14,1.54-8.29-5.74,0,0-32.12-16.67-36.42-16.79,0,0-2.79-1.08-8.82-4.58,0,0-26.23-13.15-29.2-13.16l-19.36-4.85s-27.17-9.81-41.6-17.43c0,0-4.72-3.51.72-3.89l37.79,13.68,19.96,6.85,28.86,12.24s-3.7-15.18-22.5-26.87c0,0-20.92-10.34-25.57-11.44,0,0-6.55-.44-4.36-2.32,0,0,7.87.94,18.21,4.55,0,0,31.16,11.86,38.07,36.73,0,0,12.02,4.83,19.33,8.82,0,0,20.31,8.97,29.19,15.43,0,0,22.55,2.65,27.45,4.72l-17.11-16.04s-4.53.75-8.95-3.99c0,0-1.09-4.54-5.57-7.5-4.49-2.96-10.85-1.82-14.38-9.72,0,0-3.93-6.06-13.24-14.35,0,0-15.23-12.77-18.79-13.17,0,0-5.42,3.18-21.94-11.09,0,0-4.74-6.58-8.86-7.42,0,0-20.73-9.19-31.01-16.24l-26.35-10.96s-4.22-.41-6.93-3.16c0,0-20.35-24.11-43.67-27.59,0,0-2.68.65-6.45-1.45,0,0-24.55-11.78-37.67-9.43,0,0-3.62.73-7.18,3.36,0,0-2.31-10.53,9.18-10.81,0,0,19.98,2.63,34.84,10.15,0,0,2.53-9.82.09-13.51-2.44-3.68-7.15-7.28-9.21-11.83,0,0-2.45-3.41.5-11.24,0,0,2.71,13.55,11.04,19.57,0,0,5.25,6.2,4.07,10.83l-.18,5.94s-.62,2.19,4.48,3.44c0,0,18.6,6.64,26.04,12.92l15.14,13.65,25.82,9.15s-4.95-4.74-7.64-17.93c0,0-3.35-8.81-7.07-15.16,0,0-12.59-28.39-14.74-42.89l-.16-4.19s-19.28-27.21-24.34-29.53c0,0-2.15-1.4-.8-2.95,0,0,1.07-1.95,4.14.67l14.12,13.21,5.56,6.43,15.09-24.41s.69-3.56,5.33-9.37c0,0-3.13-10.41.45-15.14,0,0,1.56-3.04,3.81.07l-1.25,16-12.74,29.42-6.04,16.41s11.99,39.39,20.17,50.81c0,0,1.49,3.93,4.9,14.85,0,0,7.11,19.87,18.35,21.34,0,0,19.32,7.54,25.87,12.84l21.7,9.98s-10.09-20.02-8.98-31.89l-6.12-22.36s-3.46-16.42-3.18-32.29l6.75-47.58s5.04-48.05,23.42-65.61l9.28-8.18s-16.42,19.72-18.34,33.62l-6.12,24.52-5.38,37.67-.9,31.8s4.64,27.42,4.73,35.13c0,0,4.13,22.67,10.35,32.75,0,0,4.67,6.59,2.93,14.84l30.97,30.84,11.48,6.3s7.62,1.02,13.92,10.92l19.38,18.09s10.41,2.94,23.23,13.9l21.95,20.37s-3.8-9.29-3.56-16.61c0,0-9.59-15.8-8.65-18.91,0,0-5.58-1.16-6.09-3.34,0,0-.9-1.78,4.63-4.05,0,0-11.22-16.97-14.44-29.62,0,0-4.26-10.19-13.74-11.69,0,0-10.88,1.55-17.95-7.22,0,0-5.73-4.06-13.03-2.11,0,0-5.39,1.45-14.26-4.03l-19.84-1.73s-2.09-.24-1.58-2.35c0,0,.36-1.94,2.84-1.48l12.9.73,13.71,2.8s2.5,1.82,8.55.83c0,0,6.32-2.29,12.78,4.83,0,0,9.52,8.61,20.01,3.81,0,0,1.5-4.23-8.91-16.8,0,0-13.02-8.97-13.19-20.12,0,0-5.93-10.25-15.66-18.19l-13.37-13.35s-2.26-4.78,3.28-4.35l20.12,19.05s5.5-2.7,7.87-28.15l5.55-64.87s-13.95-15.27-15.5-29.79c0,0-4.17-17.05-12.93-25.04,0,0-6.32-1.52-4.84-25.29l1.16-8.14s-1.62,20.48,5.13,29.71c0,0,10.5,7.91,14.78,26.32,0,0,6.04,16.02,15.96,28.52,0,0,2.86,2.82,2.48,8.28l-4.58,79.38s-7.74,18.13,4.48,29.76c0,0,8.78,6.07,10.74,18.8,0,0-.06,3.57,9.6,12.11,0,0,7.69,5.9,14.98,35.51l11.92,32.54s12.48,24.49,10.2,32.31l15.59,13.89s7.15,7.56,26.1,5.98c0,0,11.56-6.53,24.45-2.62l45.98-7.5s4.74-1.46.34-18.02c0,0-4.68-10.22-4.57-26.13l.46-25.37s-2.89-14.6.36-28.12l4.37-26.64s-7.62-6.52-26.04-11.22l-9.13-3.27s-3.43-1.84,1.46-1.98c0,0,22.2,2.22,32.52,8.76l.89.51s-5.17-14.63-18.4-29.11l-21.68-22.48s-9.39-.6-15.31-3.94c0,0-5.44-3.31-10.3.78,0,0-2.7,1.72-4.37,5.22,0,0-2.48-5.53,5.23-9.66,0,0,4.73-2.68,12.24,1.54,0,0,7.31,4.45,11.22,2.3l-15.3-25.13s-1.07-5.08,3.38-1.43c0,0,13.7,25.87,22.52,32.52,0,0,1.62-11.71,6.6-12.65,0,0,4.18-.23,2.1,2.71,0,0-5.31,7.72-3.56,14.84l12.16,11.7s23.1,21.45,23.72,41.07l-3.6,25.92,16.2-15.28s2.36-1.54,3.51.28c0,0,1.46,1.55-2.03,3.76l-16,18.44.11,13.43s-.09,13.4-.32,24.38l1.72,27.18,3.04,14.04s.62,6.95,6.28,6.29c0,0,15.45.53,23.89,5.31,0,0,2.96-1.01,13.07,3.57,0,0,4.43-3.4,21.44,2.59,0,0,10.21-1.86,18.91,3.33,0,0,23.51-8.29,33.98,1.57,0,0,10.62-6.92,31.82.04l-32.53,24.8Z"/>
    <path class="cls-5" d="m660.86,953.1s21.39-16.03,39.7-11.86l21.51-3.37s3.54.09,7.76-4.43l41.78-6.83s44.63-.01,70.77,5.34c0,0,7.98,4.66,13.07,3.16l21.75-3.69s12.35-3.26,17.91-14.96c0,0,15.72-16.85,27.75-23.76,0,0,7.19-3.51,15.32-12.41l11.07-12.03s32.56,2.48,46.8-3.56c0,0-13.4-1.43-6.04-8.96,0,0,30.05-18.08,34.45-18.48,0,0,2.68-1.22,8.25-4.97,0,0,24.62-14.31,27.67-14.53l19.05-5.92s26.19-11.18,39.66-19.43c0,0,4.22-3.67-1.44-3.67l-36.42,15.59-19.31,7.87-27.49,13.62s1.07-14.77,18.31-27.2c0,0,19.66-11.28,24.25-12.64,0,0,6.66-.86,4.07-2.51,0,0-7.93,1.41-17.92,5.56,0,0-29.93,13.41-32.55,37.67,0,0-11.5,5.41-18.3,9.72,0,0-19.29,9.93-27.25,16.69,0,0-22.73,4.03-27.39,6.33l14.71-16.48s4.8.42,8.49-4.41c0,0,.3-4.42,4.38-7.55,4.08-3.13,10.83-2.45,13.04-10.25,0,0,2.95-6.06,11.04-14.61,0,0,13.37-13.23,16.96-13.85,0,0,6.15,2.69,20.58-12.06,0,0,3.69-6.61,7.78-7.69,0,0,19.68-10.17,28.98-17.6l25.14-12.23s4.27-.67,6.56-3.48c0,0,16.59-24.42,39.96-29.29,0,0,2.87.44,6.37-1.82,0,0,23.14-12.9,37.06-11.51,0,0,3.85.46,7.99,2.74,0,0,.48-10.24-11.4-9.74,0,0-20.08,3.84-34.02,12.01,0,0-4.37-9.24-2.53-12.92,1.84-3.69,6.05-7.44,7.34-11.93,0,0,1.9-3.42-2.55-10.73,0,0-.35,13.15-7.83,19.46,0,0-4.29,6.28-2.23,10.63l1.25,5.67s1.03,2.06-3.99,3.59c0,0-17.94,7.58-24.46,14.09l-13.12,14.07-24.92,10.46s4.24-4.87,4.62-17.67c0,0,1.86-8.66,4.54-14.98,0,0,7.84-28,7.43-42.02l-.59-4.02s14.93-27.32,19.72-29.87c0,0,1.96-1.49.29-2.88,0,0-1.45-1.8-4.14.92l-12.15,13.58-4.56,6.52-19.93-22.37s-1.35-3.36-7.18-8.62c0,0,1.34-10.17-3.2-14.46,0,0-2.15-2.81-3.91.32l4.17,15.23,18.42,27.32,9.17,15.31s-5.23,38.49-11.59,49.96c0,0-.82,3.86-2.36,14.53,0,0-3.73,19.49-15.03,21.64,0,0-18.52,8.49-24.3,14l-20.53,10.99s6.77-19.83,3.49-31.12l2.26-21.8s.6-15.94-2.55-31.12l-15.53-45.1s-13.86-45.66-35.94-61.26l-11.02-7.21s20.45,17.79,24.93,30.97l10.72,23.07,12.34,35.71,6.67,30.37s.17,26.55,1.47,33.93c0,0-.16,21.97-4.74,32.03,0,0-3.62,6.62-.34,14.4l-26.31,31.57-10.68,6.79s-7.65,1.48-12.35,11.37l-16.68,18.6s-10.18,3.5-21.4,14.84l-18.91,20.94s2.24-9.14.66-16.13c0,0,7.02-15.76,5.49-18.67,0,0,5.53-1.47,5.66-3.6,0,0,.61-1.76-5.5-3.57,0,0,8.48-16.99,9.52-29.3,0,0,2.55-10.04,12.03-12.1,0,0,11.48.76,17.16-8.1,0,0,5.17-4.26,13.03-2.88,0,0,5.8,1.04,13.94-4.8l20.11-2.96s2.1-.37,1.2-2.35c0,0-.72-1.83-3.19-1.23l-13.14,1.55-13.6,3.59s-2.24,1.91-8.65,1.36c0,0-6.91-1.77-12.28,5.47,0,0-8.24,8.87-19.91,4.96,0,0-2.31-3.95,6.14-16.67,0,0,11.78-9.44,9.94-20.13,0,0,4.25-10.2,12.84-18.45l11.35-13.67s1.47-4.73-4.16-3.94l-17.26,19.56s-6.14-2.22-13.18-26.43l-17.41-61.73s11.6-15.54,10.58-29.54c0,0,1.21-16.6,8.79-24.83,0,0,6.23-1.87.41-24.53l-2.66-7.71s5.36,19.49.08,28.78c0,0-9.37,8.26-10.46,26.17,0,0-3.33,15.74-11.28,28.36,0,0-2.43,2.89-1.06,8.09l19.04,75.68s11.24,16.84.76,28.78c0,0-7.94,6.39-7.66,18.7,0,0,.71,3.41-7.7,12.22,0,0-6.84,6.15-9.01,34.98l-6.4,31.94s-8.42,24.27-4.66,31.6l-13.54,14.33s-5.99,7.71-25.78,7.44c0,0-13.07-5.49-25.63-.9l-48.67-4.14s-5.14-1.09-3.61-17.23c0,0,2.98-10.09-.01-25.31l-5.05-24.26s.34-14.16-5.44-26.9l-9.3-25.21s6.67-6.75,24.77-12.45l8.81-3.74s3.2-1.99-1.85-1.79c0,0-22.45,3.59-31.88,10.54l-.82.55s2.68-14.35,13.68-29.07l18.25-22.95s9.56-1.19,15.04-4.78c0,0,5-3.53,10.74.07,0,0,3.09,1.47,5.44,4.71,0,0,1.56-5.45-7.12-8.9,0,0-5.35-2.25-12.31,2.28,0,0-6.72,4.74-11.14,2.94l11.21-25.06s.19-4.93-3.73-1.15c0,0-9.43,25.66-17.31,32.61,0,0-3.78-11.1-9.07-11.68,0,0-4.34.05-1.67,2.74,0,0,6.86,7.04,6.33,13.97l-10.4,12s-19.9,22.06-17,40.88l8.39,24.58-19.43-13.56s-2.7-1.31-3.56.5c0,0-1.22,1.58,2.77,3.46l19.79,16.59,2.31,12.86s2.5,12.82,4.72,23.31l3.13,26.13-.6,13.64s.61,6.69-5.33,6.43c0,0-15.8,1.52-23.62,6.66,0,0-3.22-.77-12.8,4.28,0,0-5.18-2.96-21.6,3.9,0,0-10.84-1.11-18.86,4.44,0,0-25.69-6.39-34.69,3.75,0,0-12.17-5.92-32.74,2.14l37.95,21.59Z"/>
  </g>
  <g>
    <path class="cls-8" d="m737.94,863.56s-2.14-.82-2.08-3.61c0,0,3.61-4,4.11-7.67,0,0,.93-3.67.99-6.52,0,0-.27-2.57,2.14-2.79,0,0,1.48,0,1.31,2.79,0,0,.44,2.85,2.3,2.85,0,0,2.46-.33,4.27-2.3l7.94-5.59s1.1-.88,2.14.71c0,0,.93,1.31-.6,2.41,0,0-12.71,9.42-12.98,10.35,0,0-7.56,6.96-7.78,7.72s-1.75,1.64-1.75,1.64Z"/>
    <path class="cls-7" d="m592.45,861.92l-4.48,7.89s-1.62,2.92-1.44,7.86l-.65,13.7s.65,11.29,1.32,16.06l6.83,36.57s3.92,11.63,4.1,15.96c0,0,4.36,17.62,13.21,28.04,0,0,4.12,7.94,15.85,15.18,0,0,22.65,13.99,40.78,13.42,0,0,15.54-1.62,37.1-11.1,0,0,18.07-8.11,30.36-32.53,2.49-4.95,3.45-5.14,4.29-10.62.7-4.58,1.83-6.99,2.68-14.98l2.89-21.63s5.38-23.25,8.18-28.31c0,0,1.83-4.71,0-6.94,0,0-5.42,4.98-7.28,13.52,0,0-3.82,11.13-4.16,11.91,0,0-1.18,2.98-1.24.17,0,0,1.63-10.11,2.64-12.08,0,0,.9-4.83,1.85-6.12,0,0,2.36-5.56,2.42-7.14,0,0,.79-3.54,2.81-4.72,0,0,2.19-3.15.51-6.8,0,0-1.24-3.03-2.81-3.71,0,0,.75,5.95-2.36,8.76,0,0-4.64,4.58-4.43,7.91,0,0-.11,2.94-2.51,3.01,0,0-1.13.42-.46-2.8,0,0,.57-5.24,2.19-7.01,0,0,2.55-3.96,4.25-5.59,0,0,1.84-2.87,1.59-6.37,0,0,.32-2.87-2.62-2.8,0,0-1.73.22-4.24,2.86,0,0-1.49,1.64-2.86.88,0,0-.91-.04-1.25-1.45l-5-20.24-3.15-11.42s-.23-2.19-1.76-.29c0,0-10.8,11.92-13.67,13.98,0,0-2.66,1.93-3.6,2.35,0,0-1.02-.13-.33-.87,0,0,13.3-16.85,15.44-19.03,0,0,1.84-1.65.37-2.29,0,0-7.63-3.88-11.03-4.81l-5.01-1.94s-1.61-.5-1.48,1.57c0,0,.23,6.87-1.42,10.54l-4.93,29.86-3.31,14.57s-.79,1.09-.97-.21c0,0,.47-10.53.77-14.09l3.11-29.71s.82-5.66,1.42-7.06c0,0,.4-2.15.48-3.68,0,0,.8-2.82-3.26-2.12,0,0-9.17,1.87-12.19,3.29,0,0-6.92,2.41-9.06,8.88,0,0-1.72,5.41-4.5,8.73l-2.87,4.21s-.96,1.89-1.56-.13l-5.63-29.81-1.12-7.26s-1.02-6.96-4.55-7.11l-6.25.67s-2.65,0-2.39,3.91l1.52,31.7.63,14.15s-.55,6.72,2.19,11.34l4.36,7.67s4.65,6.33,4.48,11.14v8.1s-.17,3.44-1.54-.08l-1.83-7.26s-.76-6.8-5.12-11.92c0,0-1.29-1.78-1.32.64l.13,8.03s-.44,3.37-1.54.16c0,0-1.16-4.22-1.48-5.95l-1.51-12.01-1.81-31.94.14-22.96-.02-2.24s-.05-1.87-1.63-1.68c0,0-2.41.11-2.38,2.67l-.97,25.29-.52,7.11s-1.14,2.21-1.57-.17c0,0-.77-8.9-.3-14.24v-16.27s.14-3.3-3.13-2.23c0,0-12.93,4.81-14.21,6.18,0,0-2.65.68-2.85,4.71,0,0-4.01,18.6-4.01,23.25,0,0-1.65,18.72-.77,26.85l1.44,18s-.15,2.35-1.22.15c0,0-1.6-5.14-1.64-8.31,0,0-.88-9.28-2.29-12.61,0,0-3.61-10-6.59-12.57l-2.39-2.39s-1.79-2.37-3.08-.55c0,0-.74-.23-.08,8.32l.63,18.35s-.31,4.07-1.4.09c0,0-.88-4.91-.92-5.96,0,0-.83-6.57-1.18-7.8l-.64-4.36s-.55-2.52-1.29-1.87Z"/>
    <path class="cls-10" d="m656.4,988.34c6.82,3.53,14.27,5.63,23.73-.56"/>
    <path class="cls-7" d="m739.44,861.32s-1.31-2.65-1.9-2.69c0,0,2.2-3.25,2.3-4.25,0,0,.63,3.83,3.83,1.22,0,0,2.66-3.37,5.27-3.49l-9.5,9.2Z"/>
    <path class="cls-8" d="m670.94,851.19s-2.15,5.07,4.32,3.76c0,0,5.09.46,8.39-6.39,0,0-.05-2.68,4.02-1.34,0,0,5.72,1.62,8.3-.38,0,0,1.9-1.42,2.42-.45l.5.42.81-6.61s.88-5.89,1.32-6.38l.48-3.68s.63-2.41-2.28-2.23c0,0-5.27,1.03-7.06,1.5,0,0-5.96.83-9.15,3.46,0,0-3.82,2.3-5.26,5.53,0,0-2.47,6.66-3.28,7.57l-3.52,5.21Z"/>
    <path class="cls-8" d="m704.91,840.48s-1.31,9.61,1.37,11.54c0,0,3.47,2.19,7.87-3.28l9.32-11.33s1.95-1.99.37-2.29l-13.06-5.59-2.41-.93s-2.03-1.14-2.05,1.35c0,0,.24,7.72-1.42,10.54Z"/>
    <path class="cls-8" d="m714.04,853.14s11.12-10.88,11.58-12.15c0,0,1.01-1.86,1.92,0l2.7,10.65,4.2,16.88.74,3,.35,1.41s.88,2.99,3.72.92c0,0,2.74-3.02,4.62-3.21,0,0,3.28-.17,2.62,4.13,0,0,.19,3.72-3.27,6.98,0,0-2.68,1.34-2.78-1.96,0,0-3.98,2.07-4.47-1.59,0,0-.29-1.68-1.46-2.66,0,0-2.14-.32-2.56-2.56,0,0-1.92-6.29-4.13-9.05l-10.39-9.84s-.92-1.29-3.41-.96Z"/>
    <path class="cls-8" d="m743.91,886.55s1.52.68,1.05,3.08c0,0-.84,5.27,1.45,5.52l1.32-4.4s1.04-3.76,2.81-4.72c0,0,1.99-2.35.73-6.26,0,0-.72-2.9-3.03-4.25,0,0,.61,5.02-1.64,7.97l-2.68,3.06Z"/>
    <path class="cls-8" d="m744.36,909.36l2.23-6.89s1.89-7.14,6.9-11.98c0,0,2.31,3.94-1.65,11l-3.56,12.24s-2.15,3.8-3.44,1.78c0,0-1.22-.34.81-5.61,0,0-.42-1.49-1.29-.54Z"/>
    <path class="cls-8" d="m649.43,840.39s4.15,3.73,4.72-2.77c0,0-.49-5.3,3.96-2.33,0,0,1.7,3.46,3.75,4.38,0,0,2.69.82,2.19-4.88l-.88-7.73-1.85-11.13s-1.35-6.62-3.44-6.81c0,0-1.39-.52-5.26.15l-2.1.23s-2.59-.21-2.39,3.91l1.29,26.99Z"/>
    <path class="cls-8" d="m640.31,839.96s2.36,2.79,5.13-.16v-26.98s.41-2.87-1.99-2.49c0,0-2.16.22-2.05,2.62l-.22,5.74-.87,21.26Z"/>
    <path class="cls-8" d="m637.87,813.55s-.78-2.18-3.32-.97l-13.01,5.47s-3.57.92-3.77,5.7l-2.59,13.08-.86,5.18-.23,1.68s4.87.9,10.37-3.76c0,0,4.17,6.22,8.28-1.09,0,0,3.61,2.9,5.13-2.05v-23.24Z"/>
    <path class="cls-8" d="m597.43,868.72s6.95,2.78,8.12-6.74c0,0-2.09-3.76-5.66-6.83,0,0-2.19-1.77-2.84.98l.39,12.59Z"/>
    <circle class="cls-6" cx="624.65" cy="944.42" r="20.79"/>
    <ellipse class="cls-6" cx="710.92" cy="944.42" rx="21.35" ry="20.88"/>
    <circle class="cls-9" cx="618.64" cy="938.9" r="6.63"/>
    <circle class="cls-9" cx="705.03" cy="938.9" r="6.63"/>
    <circle class="cls-9" cx="629.11" cy="954.54" r="3.54"/>
    <circle class="cls-9" cx="715.47" cy="954.98" r="3.54"/>
    <path class="cls-7" d="m665.15,1019.99s4.15-1.13,6.92,0c0,0-3.4,3.31-3.94,5.54l-2.98-5.54Z"/>
    <path class="cls-7" d="m673.62,1047.74s-4.13.49-4.07-2.07c0,0-.13-.79.43-1.94,0,0,1.06-5.25-.44-7.32,0,0-2.35-2.26-.28-4.89,0,0,2.83-8.22,9.42-12.04l11.05-.88,6.03,23.53s-1.53,3.45-7.86,6.23c0,0-3.23,1.62-1.01-.93,0,0,1.17-1.81,1.36-2.29,0,0,.18-1-1.52.36,0,0-2.41,3.29-7.02,3.12l-6.09-.9Z"/>
    <path class="cls-7" d="m641.97,1045.41s-1.88-1.33-.67-2.93c0,0,1.43-1.5,1.38-2.33,0,0-.31-.64-1.9.33,0,0-1.26.33-.78-1.45l2.12-9.11s.79-4.71,1.96-6.52l1.89-5.15,6.97.53s4.86.12,7.75,2.71c0,0,5.03,3.82,5.84,7.42,0,0,.78.97-.79,4.03,0,0-.99,3.2.98,5.12,0,0,3.67,6.3-2.25,8.88,0,0-4.03,1.05-5.96,1.05,0,0-.55-.06-.26-.67,0,0,.84-1.12.66-1.52s-.52-.38-.98-.05c0,0-3.36,3.26-6.57,3.48,0,0-3.91-.03-5.29-1.07l-4.1-2.74Z"/>
    <path class="cls-7" d="m637.03,1054.01l1.66-7.58s.06-.76.84,0,4.96,4.11,4.96,4.11c0,0,1.77,2,3.24,1.15,0,0,1.1-.59,1.44.48l1.44,3.91s1.69,3.46-1.24,4.22c0,0-2.25.93-4.76-.45,0,0-1.94-.7-4.22-2.59,0,0-2.2-1.63-3.35-3.27Z"/>
    <path class="cls-7" d="m636.34,1058.31s-.56,6.58-.56,8.82c0,0-.65,2.71,2.32,2.45l9.16-.65s2.5.3,2.93-2.07v-2.19s.6-2.84-2.67-2.41c0,0-3.27.47-4.91-1.29l-4-2.67s-2.12-2.03-2.28,0Z"/>
    <path class="cls-7" d="m673.07,1075.65s-12.11-2.26-14.47-3.85c0,0-4.26-1.44-5.9-3.28,0,0-2.31-2.16.56-2.77l8.11,1.13s2.16-.21-3.39-1.39l-2.82-.67s-3.34-.46-2.51-3.08c0,0,1.44-3.59.15-4.33,0,0-2.49-4.54,1.06-5.72,0,0,5.04-1.95,12.84-1.95,0,0,12.57-.15,14.78,1.33,0,0,2.82,1.33-.72,3.8,0,0-.51.62-5.8.26,0,0-2.87.51,0,1.39l4.41.1s2.3-.35,2.48,1.59c0,0,.41,1.99-3.07,1.31l-11.6-.81s-1.89.23.46.95c0,0,4.96,1.44,8.94,1.22,0,0,6.41-.23,5.51,3.11l-4.51,8.84-1.44,2.17s-1.42,1.67-3.06.65Z"/>
    <path class="cls-7" d="m680.36,1082.97s5.69-4.24,7.27-8.35c0,0,1.26-3.08,1.4-5.55l-4.57,7.83s-3.36,4.8-5.5,3.59c0,0-3.26-1.31-.89-5.27l5.04-9.56s2.39-3.75.78-8.02c0,0-1.82-4.66,3.26-6.29,0,0,4.38-1.26,7.55-3.64,0,0,1.49-1.21,1.96.75,0,0,.33,1.35-1.91,2.89,0,0-2.94,2.47-1.59,3.54,0,0,.98.89,3.08-1.45,0,0,1.12-1.54,1.12.79l.47,4.76s-.23,3.54-2.33,4.62c0,0-3.85,4.08-3.17,10.83,0,0,.01,9.88-4.82,11.01,0,0-5.06,2.89-6.87.23,0,0-1.23-1.57-.29-2.72Z"/>
    <path class="cls-7" d="m699.6,1085.96l-1.19-20.84s-3.72,1.02-4.11,7.89v7.51s-.84,4.74,5.3,5.44Z"/>
    <path class="cls-7" d="m636.02,1079.54l12.57,4.1s4.67,2.05,6.9-.44l4.54-5.41s2.18-2.27-2.1-4.37l-4.15-1.96s-4.06-1.44-7.55-.65l-9.2.92s-2.46.83-.54,1.75c0,0,8.47.52,10.17,1.22,0,0,1.66.99-.26,1.28h-8.73s-3.27-.23-2.4,2.38c0,0,.22.74.74,1.18Z"/>
    <path class="cls-7" d="m663.22,1090.72l-4.06-2.64s-2.85-1.17-1.38-3.98l4.9-6.4s.46-2.76,6.49-1.42c0,0,5.78,1.6,8.41,7.04,0,0,2.18,4.81-.96,5.14l-5.02,2.26s-2.18.92-4.06,0c0,0-2.93,1.34-4.31,0Z"/>
    <path class="cls-7" d="m672.42,1098.59s-1.05-3.55,0-5.3c0,0,1.93-1.84,3.46-.32,0,0,1.74,1.81,2,2.85,0,0,.95,1.71,1.21.1,0,0-.82-4.73,4.03-6.53l7.82-2.58s4.45-2.57,3.69,2.07c0,0-1.33,9.13-2.16,10.81,0,0-.68,2.15.72.97,0,0,1.58-1.11,2.19-5.06l.82-4.93s-.02-2.33,1.98-2.39c0,0,1.69-.27,1.86,2.38v7.45s-4.07,7.12-9.16,7.54c0,0-7.11,1.49-11.25-1.3l-6.36-4s-.86-.84-.84-1.77Z"/>
    <path class="cls-7" d="m642.05,1105.5s3.98,1.76,4.01-1.89c0,0-.96-3.25.66-5.51,0,0,3.28-6.07,2.02-8.95,0,0-.52-3.06-4.62-3.99l-7-2.41s-2.6-1.26-2.19,1.93l.35,5.99s3.34,4.15,3.38,6.87c0,0,.04,1.77-1.08.35,0,0-1.21-3.37-2.12-3.37,0,0-.77-.17-.58,2.63,0,0,.83,3.61,3.41,5.78,0,0,2.47,2.21,3.74,2.57Z"/>
    <path class="cls-7" d="m649.04,1105.93s-2.98-.98-1.18-4.48l1.72-3.76s1-3.76.63-5.8c0,0-.48-4.82,2.42-4.49l7.37,3.91s2.92.9,2.64,3.93c0,0,.75,3.95-2.05,5.52,0,0-7,4.44-7.18,5.16,0,0-2.88,1.29-4.37,0Z"/>
    <path class="cls-7" d="m641.68,1113.56s-2,2.85-1.34,9.56c0,0-.61,1.66-4.73,0,0,0-2.98-.99-2.03-7l.43-8.51.05-1.99s-.33-3.07,1.89-1.23c0,0,3.93,3.36,8.51,3.93l8.04.33s3.78-.15,5.44-2.6c0,0,2.31-3.12,3.88-2.08l.29,9.03v4.3s.38,6.1-4.54,6.81c0,0-3.88,1.32-4.87-2.36,0,0-.9-6.67-2.13-7.09l-.09,8.56s-.66,2.07-3.93,1.13c0,0-2.41-.46-3.03.25,0,0-1.47.42-1.57-1.42l-.27-9.61Z"/>
    <path class="cls-7" d="m676.37,1123.97s4.7-7.09,3.35-12.82c0,0-1.89-5.94-7-7.39v17.14s1.02,3.71,3.65,3.08Z"/>
    <path class="cls-7" d="m679.04,1124.53h3.56s1.71-.7,0-2.47c0,0-1.97-2.09-3.96.12,0,0-1.81,1.81.4,2.35Z"/>
    <path class="cls-7" d="m687.27,1124.53s6.79-.25,11.69-2.07c0,0,2.25-.46,1.93-4.83l.03-13.34s-.28-2.53-1.82-.53c0,0-3.18,4.5-7.62,4.65l-6.11-.07s-4.58-.45-4.43,5.57c0,0,.68,8.83,6.33,10.62Z"/>
    <path class="cls-7" d="m696.25,1021.5s-3.96-2.1-1.82-3.6c0,0,8.63-2.26,8.98-2.49,0,0,.4-.44,1.03.91l1.54,2.1s-.04,1.64.87,1.72c0,0,.25-.15.52.19l2.21,2.88s1.05,1.43-.62,1.97c0,0-6.34-.39-8.81-1.83l-2.54-1.48s-1.18.16-1.36-.38Z"/>
    <path class="cls-7" d="m713.64,1044.55s-8.07-2.41-10.45-4.29c0,0-3.12-2.08-3.2-4.41,0,0-.13-.59,1.25.25l5.93,2.48s1.29.06-.61-1.44l-2.37-1.72s-1.21-1.31-3.45-1.33c0,0-4.99-1.38-4.97-6.39v-2.8s-.43-1.54,1.39-.69c0,0,7.91,3.7,12.98,3.33,0,0,3.27-.24,4.27,2.73l5.72,10.28,2.63,4.62s1.11,2.4-1.65,1.94l-7.47-2.57Z"/>
    <path class="cls-7" d="m699.6,1047.9l11.42,6.07s1.87,1.23,1.9-.69c0,0-.12-5.36-2.49-7.06,0,0-1.04-1.59-3.86-1.42,0,0-1.99-.19-3.03-1.66l-3.82-3.15s-2.35-1.99-1.88,1l1.33,6.04s-.02.64.43.88Z"/>
    <path class="cls-8" d="m713.65,1023.7l-1.61-1.93s-1.08-1.04,0-2.17l5.9-4.98s1.56-1.24,3.15-1.77c0,0,2.43-1.54,1.06,1.45l-4.52,6.54-2,2.39s-.86,1.81-1.98.47Z"/>
    <path class="cls-8" d="m729.64,1050.36s-2.35-.75-2.24-3.17c0,0-.54-2.2,2.24-2.91,0,0,2.95-1.07,6.73-.43,0,0,2.84,0,.68,2.6,0,0-3.77,3.84-7.41,3.91Z"/>
    <path class="cls-7" d="m708.79,1076.91s5.58-7.39,5.87-11.36c0,0,.55-6.72-2.94-9.12l-10.49-5.42s-1.51-1.2-.69,1.41c0,0,7.15,19.62,7.15,22.07,0,0-.13,3.47,1.09,2.43Z"/>
    <path class="cls-7" d="m711.64,1094.57s-2.68-9.43-2.73-12.57c0,0-.3-.82.54-1.69,0,0,4.99-5.77,5.72-10.74,0,0,1.48-9.31,0-15.71l-.96-3.99s-.64-2.67,1.42-2.36c0,0,3.24.07,4.18,5.1l4.3,17.75s.29,2.58,1.33,1.69c0,0,.84.44.3-3.01,0,0-1.73-12.3-3.75-15.6,0,0-2.27-3.31-.1-3.85,0,0,3.41-1.13,5.09,4.79l5.88,13.87s2.09,5.74-.24,9.12c0,0-1.75,4.14-.65,7.97l.91,7.47s.97,4.48-2.4,4.55l-5.65,1.23s-2.14.45-2.66-1.82c0,0-1.36-7.8-2.21-8.9,0,0-.95-1.81-1.1.57,0,0,.07,4.91.97,8.06,0,0,.21,2.28-2.26,2.13s-4.41-.7-5.9-4.05Z"/>
    <path class="cls-7" d="m734.82,1092.33s-1.73-7.98,0-14.97c0,0,.29-1.79,1.62,2.02,0,0,2.95,7.92,0,12.14,0,0-1.68,3.7-1.62.81Z"/>
    <path class="cls-8" d="m596.09,1065.02s3.71,5.85,4.37-1.52c0,0,.22-4.82-4.97-6.1,0,0-3.06-.62-1.77,3.21,0,0,.67,2.48,2.36,4.4Z"/>
    <path class="cls-7" d="m620.7,1022.55s-4.51-4.24-9.54-2.47c0,0-5.74,2.17-7.82,1.68,0,0-3.76,0-.44-1.77l7.78-3.98-8-4.86s-1.81-.75-1.77-1.33c0,0-.49-2.21,2.39-1.81,0,0,11.14,4.29,14.71,6.67l5.88,3.58s.49.37.09.95c0,0-.32.86-1.62.17l-7.18-4.4s-1.73-.9-1.7,0c0,0-.4.37,1.39,1.27l6.33,4.23s1.52.86.73,1.85c0,0-.55.77-1.22.22Z"/>
    <path class="cls-7" d="m616.36,1038.34s8.12-15.42,13.6-20.99c0,0,2.12-3.48,4.39-1.54l5.96,1.7s1.78.13,0,3.7l-2,7.97s.7,5.23-6.56,7.37l-12.53,3.45-2.56.32s-2.49.79-.3-1.97Z"/>
    <path class="cls-7" d="m626.27,1074.8s-.73-1.71-.93-4.23c0,0-.87-11.67-1.87-13.2,0,0-2.4-6.54,0-12.35,0,0,.66-4.93,4.6-5.02,0,0,1.52.09,2.1,2.64l.19.64,2.44-3.91s1-2.06,2.91-1.87c0,0,1.47-.21.85,2.32,0,0-1.98,11.65-4.48,18.59l-4.84,16.38s-.41,1.84-.98,0Z"/>
    <path class="cls-7" d="m610.59,1066.43s-4.01-9.77-1.37-16.06c0,0,2.6-6.29,5.75-7.22,0,0,3.18-1.5,1.73,2.94l-2.74,13.35-1.81,7.22s-.91,2.9-1.55-.23Z"/>
    <path class="cls-7" d="m612.43,1097.46s.02-5.24.63-7.22c0,0,1.51-4.49,0-9.06,0,0-2.51-4.92-.36-10.6,0,0,4.67-14.39,4.38-17.21,0,0-.39-7.07,2.15-9.24,0,0,1.9-2.58,2.37,0,0,0,.34.25-.94,2.99,0,0-1.85,4.8.47,11.23,0,0,2.48,8.21,2.43,14.56,0,0,.52,7.61,1.68,11.26,0,0,.35,2.89-.55,5.42,0,0-.6,3.21-.68,4.31,0,0,.03,2.63-1.42,2.42,0,0-1.34.08-1.24-1.87l-.21-5.47s-1.18-.42-1.74,5.68c0,0,.53,5.09-2.44,4.42,0,0-1.57-.34-2.81.2,0,0-2.09.36-1.74-1.81Z"/>
    <path class="cls-7" d="m605.57,1086.69s-.2,4.59.3,5.25c0,0,.52,3.56-.34,4.91,0,0-.26.69-1.09.13s-3.74-1.25-5.71-4.36c0,0-2.27-2-1.39-6.86,0,0,1.78-10.86,3.67-14.64,0,0,2.08-6.78,4.22-10.51,0,0,1.22-3.25,2.14,0l.38,6.61s1.59,11.65,2.73,12.86,1.01,9.5.44,11.53c0,0-1.08,4.94-.82,6.46,0,0-.56,1.63-1.9,0,0,0-1.63-3.93-1.46-8.47,0,0-.01-3.14-1.17-2.91Z"/>
    <path class="cls-8" d="m645.83,1082.51s-2.69-2.77-.25-5.97h-8.33s-2.95-.13-1.09,2.57l9.68,3.41Z"/>
    <path class="cls-8" d="m634.94,1084.68s-.84-2.38,1.79-2.08l6.54,2.26s2.27,1.47,0,2.52-8.32-2.71-8.32-2.71Z"/>
    <path class="cls-8" d="m601.85,1020.66l8.82-4.65-8.46-5.34s-2.55-1.07-.36-2.44c0,0,1.99-.8,11.16,3.85,0,0,1.92,1.93.57,2.6,0,0-.64.43.32,1,0,0-.3,1.77-3.35.78,0,0-1.56,1.3,1.33,2.93,0,0-4.12,2.2-6.34,2.28,0,0-5.36.21-3.7-1.01Z"/>
  </g>
</svg>