<?xml version="1.0" encoding="UTF-8"?>
<svg id="Layer_1" data-name="Layer 1" xmlns="http://www.w3.org/2000/svg" viewBox="0 0 298.44 314.94">
  <defs>
    <style>
      .cls-1 {
        fill: #7b6c4f;
      }

      .cls-1, .cls-2, .cls-3, .cls-4, .cls-5, .cls-6, .cls-7 {
        stroke-width: 0px;
      }

      .cls-2 {
        fill: #291c16;
      }

      .cls-3 {
        fill: #586645;
      }

      .cls-4 {
        fill: #2e1f21;
      }

      .cls-5 {
        fill: #737a65;
      }

      .cls-6 {
        fill: #6c5a44;
      }

      .cls-7 {
        fill: #988c86;
      }
    </style>
  </defs>
  <path class="cls-2" d="m105.88,123.71l-7.53,10.15,11.75,72.32s1.11,6.48,8.49,10.69c0,0,9.68,7.24,27.73,8.46,0,0,23.23,2.28,36.31-7.13,0,0,10.91-5.72,11.37-14.93l9.93-62.25-7.75-20.84-12.03-7.72-8.5,8.14-3.77-2.63-.42-4.55-20.31-14.7-10.55,15.19-7.47-7.67-5.41,9.77-1.55-.24-3.58-4.56s-2.57.39-5.11,3.11c0,0-5.84-3.96-10.52-2.39,0,0-3,4-1.31,10.99l.24.79Z"/>
  <path class="cls-1" d="m114.06,207.68l-11.86-72.98,5.61-8,6.64,6.53v6.84l.53-6.96,4.45,2.91,1.28,10.27v-12.93l4.91-5.62.72,6.95.46-9.66,7.21-12.26,5.83,5.62-.41,2.55,1.33,1.74-.77,12.26,2.32-10.77-.99-3.64-.1-2.3,3.47-3.63,2.04,5.83-.66-7.66,5.77-8.79,16.22,11.84-1.58,6.84v4.21l2.02-6.75,6.05,5.53s-1.05,12.37-2.46,18.33l2.81-6.4,1.75-12.98,7.95-7.21,8.08,5.3,7.1,19.04-9.82,63.47s-5.93,15.43-37.39,16.4c0,0-23.52,1.73-38.5-13.91Z"/>
  <path class="cls-2" d="m122.77,208.59c2.45,2.95,6.26,6.76,8.27,9.99,0,0-.06.08-.06.08-1.97-1.08-3.31-2.87-4.56-4.66-1.29-1.75-2.53-3.53-3.72-5.34,0,0,.08-.06.08-.06h0Z"/>
  <path class="cls-6" d="m147.69,111.64l4.87,37.43,6.85-3.74s-1.29,56.68-11.72,76.2c0,0,32.68,2.06,42.26-16.35l9.82-63.47-7.1-19.04-8.08-5.3-7.95,7.21-1.75,12.98-2.81,6.4,2.46-18.33-6.05-5.53-2.02,6.75v-4.21l1.58-6.84-16.22-11.84-4.12,7.65Z"/>
  <path class="cls-2" d="m170.84,219.52c1.79-1.89,2.91-4.23,5.01-5.81,0,0,.09.05.09.05-.2,1.38-1.07,2.43-2.07,3.3-.93.91-1.92,1.75-2.95,2.53l-.07-.07h0Z"/>
  <path class="cls-4" d="m140.6,203.95s10.58,12,20.84,0c0,0-10.26-4.89-20.84,0Z"/>
  <circle class="cls-4" cx="129.19" cy="178.15" r="11.41"/>
  <circle class="cls-4" cx="174.39" cy="178.15" r="11.41"/>
  <circle class="cls-7" cx="133.81" cy="175.56" r="4.62"/>
  <circle class="cls-7" cx="179.01" cy="175.56" r="4.62"/>
  <path class="cls-5" d="m116.17,128.97c-2.9-.62-9.92-3.25-7.36-14.16,0,0,10.92-.38,10.14,12.51-.02.28-.1.56-.27.78,0,0,0,.01-.01.02-.58.76-1.57,1.06-2.5.86Z"/>
  <path class="cls-3" d="m118.17,128.62s-7.19-8.9-9.35-13.82c0,0,7.71-.49,9.95,7.11,0,0,1.74,4.82-.6,6.71Z"/>
  <path class="cls-3" d="m121.75,124.47s.72-5.23-2-7.57c0,0-.33-2,1.56-2.95,0,0,4.18,2.9,2.45,9.86,0,0-.36,1.07-2,.67Z"/>
</svg>