<?xml version="1.0" encoding="UTF-8"?>
<svg id="Layer_2" data-name="Layer 2" xmlns="http://www.w3.org/2000/svg" xmlns:xlink="http://www.w3.org/1999/xlink" viewBox="0 0 22.36 22.38">
  <defs>
    <style>
      .cls-1 {
        fill: url(#linear-gradient);
        stroke-width: 0px;
      }
    </style>
    <linearGradient id="linear-gradient" x1="0" y1="11.19" x2="22.36" y2="11.19" gradientUnits="userSpaceOnUse">
      <stop offset="0" stop-color="#249446"/>
      <stop offset=".39" stop-color="#355729"/>
      <stop offset="1" stop-color="#77b36d"/>
    </linearGradient>
  </defs>
  <g id="Layer_1-2" data-name="Layer 1">
    <g id="layer1">
      <path id="edit" class="cls-1" d="M16.13,0L2.98,13.14,0,22.31l9.19-3.08,1.25-1.25c-.55-.11-1.61-.33-1.64-.34l-.02.02-4.12-4.21L16.13,1.98l4.16,4.16-2.65,2.65.22,1.75,4.41-4.41L16.13,0ZM15.72,9.09c-.62,0-.7,0-.78.05-.16.08-.17.15-.24.95-.03.4-.07.74-.08.76-.01.02-.12.06-.24.09-.34.09-.65.22-1,.4-.18.09-.33.17-.35.17s-.26-.19-.54-.43c-.62-.53-.64-.55-.74-.57-.15-.03-.27.06-.75.54-.47.47-.54.58-.51.73.02.1.04.12.57.74.24.28.43.52.43.54s-.08.18-.17.35c-.18.35-.31.66-.4,1-.03.12-.07.22-.09.24-.02.01-.36.05-.76.08-.8.06-.87.08-.95.24-.04.08-.05.16-.05.78s0,.7.05.78c.08.16.15.17.94.23.39.03.73.06.75.07.02,0,.06.1.1.24.09.34.22.66.41,1.01.09.18.17.34.17.35s-.19.25-.41.51c-.65.76-.65.76-.55.96.08.16.94,1.01,1.07,1.05.16.05.24,0,.85-.52l.57-.49.32.17c.38.2.76.35,1.06.43.15.04.23.07.24.1,0,.02.04.36.07.76.06.79.08.85.23.94.08.04.16.05.78.05s.7,0,.78-.05c.16-.08.17-.15.23-.94.03-.39.06-.73.07-.75,0-.03.1-.07.28-.11.33-.09.62-.21,1-.41.16-.08.31-.15.33-.15s.26.19.54.43c.28.24.54.46.59.5.12.09.28.09.41,0,.17-.12.94-.91.98-1.02.07-.18.05-.23-.48-.85-.27-.32-.49-.59-.49-.61s.07-.17.15-.33c.2-.38.32-.67.41-1,.05-.18.09-.27.11-.28.02,0,.36-.04.75-.07.79-.06.85-.08.94-.23.04-.08.05-.16.05-.78s0-.7-.05-.78c-.08-.16-.15-.17-.95-.23-.48-.04-.74-.07-.76-.09-.02-.02-.06-.12-.08-.23-.08-.3-.22-.64-.4-1-.09-.18-.17-.34-.17-.35s.21-.28.48-.59c.51-.6.56-.68.51-.84-.04-.13-.89-.99-1.05-1.07-.19-.09-.23-.07-.87.47-.32.27-.59.49-.61.49s-.18-.08-.35-.17c-.35-.18-.75-.34-1.05-.42-.12-.03-.19-.06-.2-.09,0-.02-.04-.36-.07-.75-.06-.79-.08-.85-.23-.94-.08-.04-.16-.05-.78-.05ZM15.78,12.84c.62.01,1.23.22,1.75.63.9.72,1.28,1.88.99,3.03-.07.29-.33.78-.53,1.04-.47.58-1.13.96-1.89,1.07-.17.02-.57.03-.66.01-.02,0-.13-.02-.23-.04-.36-.06-.77-.22-1.1-.45-.9-.61-1.41-1.72-1.26-2.78.1-.7.46-1.37.97-1.81.57-.49,1.28-.73,1.98-.72ZM3.91,14.83l3.52,3.52-3.36,1.14-1.26-1.26,1.1-3.39Z"/>
    </g>
  </g>
</svg>