<?xml version="1.0" encoding="UTF-8"?>
<svg id="Layer_2" data-name="Layer 2" xmlns="http://www.w3.org/2000/svg" xmlns:xlink="http://www.w3.org/1999/xlink" viewBox="0 0 25.83 25.83">
  <defs>
    <style>
      .cls-1 {
        fill: url(#linear-gradient);
      }

      .cls-1, .cls-2, .cls-3, .cls-4, .cls-5, .cls-6, .cls-7, .cls-8, .cls-9, .cls-10, .cls-11, .cls-12 {
        stroke-width: 0px;
      }

      .cls-2 {
        fill: url(#linear-gradient-11);
      }

      .cls-3 {
        fill: url(#linear-gradient-12);
      }

      .cls-4 {
        fill: url(#linear-gradient-10);
      }

      .cls-5 {
        fill: url(#linear-gradient-4);
      }

      .cls-6 {
        fill: url(#linear-gradient-2);
      }

      .cls-7 {
        fill: url(#linear-gradient-3);
      }

      .cls-8 {
        fill: url(#linear-gradient-8);
      }

      .cls-9 {
        fill: url(#linear-gradient-9);
      }

      .cls-10 {
        fill: url(#linear-gradient-7);
      }

      .cls-11 {
        fill: url(#linear-gradient-5);
      }

      .cls-12 {
        fill: url(#linear-gradient-6);
      }
    </style>
    <linearGradient id="linear-gradient" x1="0" y1="12.92" x2="25.83" y2="12.92" gradientUnits="userSpaceOnUse">
      <stop offset="0" stop-color="#249446"/>
      <stop offset=".39" stop-color="#355729"/>
      <stop offset="1" stop-color="#77b36d"/>
    </linearGradient>
    <linearGradient id="linear-gradient-2" x1="1.89" y1="6.21" x2="10.24" y2="6.21" xlink:href="#linear-gradient"/>
    <linearGradient id="linear-gradient-3" x1="18.53" y1="13.61" x2="25.03" y2="13.61" xlink:href="#linear-gradient"/>
    <linearGradient id="linear-gradient-4" x1="11.4" y1="21.16" x2="17.34" y2="21.16" xlink:href="#linear-gradient"/>
    <linearGradient id="linear-gradient-5" x1="13.2" y1="2.78" x2="14.23" y2="2.78" xlink:href="#linear-gradient"/>
    <linearGradient id="linear-gradient-6" x1="13.2" y1="5.38" x2="14.23" y2="5.38" xlink:href="#linear-gradient"/>
    <linearGradient id="linear-gradient-7" x1="14.2" y1="4.07" x2="15.81" y2="4.07" xlink:href="#linear-gradient"/>
    <linearGradient id="linear-gradient-8" x1="11.62" y1="4.07" x2="13.22" y2="4.07" xlink:href="#linear-gradient"/>
    <linearGradient id="linear-gradient-9" x1="22.73" y1="19.64" x2="23.77" y2="19.64" xlink:href="#linear-gradient"/>
    <linearGradient id="linear-gradient-10" x1="22.73" y1="22.23" x2="23.77" y2="22.23" xlink:href="#linear-gradient"/>
    <linearGradient id="linear-gradient-11" x1="23.77" y1="20.93" x2="25.37" y2="20.93" xlink:href="#linear-gradient"/>
    <linearGradient id="linear-gradient-12" x1="21.18" y1="20.93" x2="22.79" y2="20.93" xlink:href="#linear-gradient"/>
  </defs>
  <g id="Layer_1-2" data-name="Layer 1">
    <g id="Magic_Wand-2" data-name="Magic Wand-2">
      <path class="cls-1" d="M25.19.64c-.86-.85-2.24-.85-3.1,0L.64,22.09c-.86.86-.86,2.24,0,3.1.86.86,2.24.86,3.1,0h0L25.19,3.74c.85-.86.85-2.24,0-3.1ZM21.12,6.32l-1.63-1.63,1.7-1.68,1.64,1.64-1.7,1.67ZM3.03,24.43c-.46.44-1.18.44-1.63,0-.45-.44-.46-1.17-.01-1.62,0,0,0,0,.01-.01L18.75,5.44l1.64,1.64L3.03,24.43ZM24.46,3l-.91.91-1.63-1.63.91-.91c.45-.45,1.18-.45,1.63,0s.45,1.18,0,1.63h0Z"/>
      <path class="cls-6" d="M2.95,7.23c.91.46,1.65,1.19,2.11,2.1.32.64.52,1.06,1,1.06s.68-.42,1-1.06c.46-.91,1.2-1.64,2.11-2.1.64-.33,1.06-.52,1.06-1.03s-.42-.68-1.06-1c-.91-.46-1.65-1.2-2.11-2.11-.32-.64-.52-1.06-1-1.06s-.68.42-1,1.06c-.46.91-1.2,1.65-2.11,2.11-.64.32-1.06.52-1.06,1s.42.72,1.06,1.03ZM3.42,6.14c1.12-.56,2.02-1.47,2.58-2.58l.08-.16.08.16c.56,1.12,1.47,2.02,2.58,2.58l.16.08-.16.08c-1.12.56-2.02,1.47-2.58,2.58l-.08.16-.08-.16c-.56-1.12-1.47-2.02-2.58-2.58l-.16-.08.16-.08Z"/>
      <path class="cls-7" d="M25.01,14.46c.11-.42-.2-.69-.63-1.07-.57-.51-.95-1.18-1.11-1.92-.12-.56-.2-.97-.63-1.08s-.69.2-1.07.63c-.51.57-1.19.97-1.94,1.12-.56.11-.97.2-1.08.62-.11.42.2.7.63,1.07.57.51.95,1.18,1.11,1.92.11.56.2.97.62,1.08.06.02.11.02.17.03.33,0,.58-.28.91-.65.5-.57,1.17-.95,1.92-1.11.58-.12.99-.2,1.1-.64ZM21.3,15.45c-.21-.89-.68-1.7-1.34-2.32.89-.21,1.7-.68,2.32-1.34.21.89.67,1.7,1.34,2.32-.89.2-1.7.67-2.32,1.34Z"/>
      <path class="cls-5" d="M11.49,22.82c.22.38.64.36,1.2.32.76-.04,1.51.16,2.14.57.25.22.56.36.89.41.11,0,.21-.03.3-.09.38-.22.36-.63.32-1.2-.04-.76.16-1.5.57-2.14.32-.48.54-.83.33-1.2s-.63-.35-1.2-.32c-.76.04-1.51-.16-2.14-.57-.48-.32-.83-.52-1.2-.33s-.35.64-.3,1.2c.04.76-.16,1.51-.57,2.14-.33.48-.56.83-.34,1.2ZM13.43,19.51c.77.48,1.67.73,2.58.7-.48.77-.72,1.67-.69,2.58-.73-.46-1.57-.7-2.43-.7h-.16c.49-.77.73-1.67.7-2.58Z"/>
      <path class="cls-11" d="M13.71,3.58c.29,0,.52-.23.52-.52v-.57c0-.29-.23-.52-.52-.52s-.52.23-.52.52v.57c0,.29.23.52.52.52Z"/>
      <path class="cls-12" d="M13.71,6.2c.29,0,.52-.23.52-.52v-.6c0-.29-.23-.52-.52-.52s-.52.23-.52.52v.6c0,.29.23.52.52.52Z"/>
      <path class="cls-10" d="M14.72,4.59h.57c.29,0,.52-.23.52-.52s-.23-.52-.52-.52h-.57c-.29,0-.52.23-.52.52s.23.52.52.52Z"/>
      <path class="cls-8" d="M12.71,3.56h-.57c-.29,0-.52.23-.52.52s.23.52.52.52h.57c.29,0,.52-.23.52-.52s-.23-.52-.52-.52Z"/>
      <path class="cls-9" d="M23.77,19.36c0-.29-.23-.52-.52-.52s-.52.23-.52.52v.57c0,.29.23.52.52.52s.52-.23.52-.52v-.57Z"/>
      <path class="cls-4" d="M23.25,23.03c.29,0,.52-.23.52-.52v-.57c0-.29-.23-.52-.52-.52s-.52.23-.52.52v.57c0,.29.23.52.52.52Z"/>
      <path class="cls-2" d="M24.84,20.42h-.55c-.29,0-.52.23-.52.52s.23.52.52.52h.57c.29,0,.52-.23.52-.52s-.23-.52-.52-.52h-.02Z"/>
      <path class="cls-3" d="M22.25,20.42h-.55c-.29,0-.52.23-.52.52s.23.52.52.52h.57c.29,0,.52-.23.52-.52s-.23-.52-.52-.52h-.02Z"/>
    </g>
  </g>
</svg>