<?xml version="1.0" encoding="UTF-8"?>
<svg id="Layer_1" data-name="Layer 1" xmlns="http://www.w3.org/2000/svg" viewBox="0 0 815.59 769.43">
  <defs>
    <style>
      .cls-1 {
        fill: #5d1412;
        stroke: #221f20;
        stroke-linecap: round;
        stroke-linejoin: round;
        stroke-width: 2px;
      }

      .cls-2 {
        fill: #100f0e;
      }

      .cls-2, .cls-3, .cls-4, .cls-5 {
        stroke-width: 0px;
      }

      .cls-3 {
        fill: #dab27a;
      }

      .cls-4 {
        fill: #909b49;
      }

      .cls-5 {
        fill: #fff;
      }
    </style>
  </defs>
  <path class="cls-4" d="m482.13,281.54s-2.14-.82-2.08-3.61c0,0,3.61-4,4.11-7.67,0,0,.93-3.67.99-6.52,0,0-.27-2.57,2.14-2.79,0,0,1.48,0,1.31,2.79,0,0,.44,2.85,2.3,2.85,0,0,2.46-.33,4.27-2.3l7.94-5.59s1.1-.88,2.14.71c0,0,.93,1.31-.6,2.41,0,0-12.71,9.42-12.98,10.35,0,0-7.56,6.96-7.78,7.72s-1.75,1.64-1.75,1.64Z"/>
  <path class="cls-3" d="m336.64,279.91l-4.48,7.89s-1.62,2.92-1.44,7.86l-.65,13.7s.65,11.29,1.32,16.06l6.83,36.57s3.92,11.63,4.1,15.96c0,0,4.36,17.62,13.21,28.04,0,0,4.12,7.94,15.85,15.18,0,0,22.65,13.99,40.78,13.42,0,0,15.54-1.62,37.1-11.1,0,0,18.07-8.11,30.36-32.53,2.49-4.95,3.45-5.14,4.29-10.62.7-4.58,1.83-6.99,2.68-14.98l2.89-21.63s5.38-23.25,8.18-28.31c0,0,1.83-4.71,0-6.94,0,0-5.42,4.98-7.28,13.52,0,0-3.82,11.13-4.16,11.91,0,0-1.18,2.98-1.24.17,0,0,1.63-10.11,2.64-12.08,0,0,.9-4.83,1.85-6.12,0,0,2.36-5.56,2.42-7.14,0,0,.79-3.54,2.81-4.72,0,0,2.19-3.15.51-6.8,0,0-1.24-3.03-2.81-3.71,0,0,.75,5.95-2.36,8.76,0,0-4.64,4.58-4.43,7.91,0,0-.11,2.94-2.51,3.01,0,0-1.13.42-.46-2.8,0,0,.57-5.24,2.19-7.01,0,0,2.55-3.96,4.25-5.59,0,0,1.84-2.87,1.59-6.37,0,0,.32-2.87-2.62-2.8,0,0-1.73.22-4.24,2.86,0,0-1.49,1.64-2.86.88,0,0-.91-.04-1.25-1.45l-5-20.24-3.15-11.42s-.23-2.19-1.76-.29c0,0-10.8,11.92-13.67,13.98,0,0-2.66,1.93-3.6,2.35,0,0-1.02-.13-.33-.87,0,0,13.3-16.85,15.44-19.03,0,0,1.84-1.65.37-2.29,0,0-7.63-3.88-11.03-4.81l-5.01-1.94s-1.61-.5-1.48,1.57c0,0,.23,6.87-1.42,10.54l-4.93,29.86-3.31,14.57s-.79,1.09-.97-.21c0,0,.47-10.53.77-14.09l3.11-29.71s.82-5.66,1.42-7.06c0,0,.4-2.15.48-3.68,0,0,.8-2.82-3.26-2.12,0,0-9.17,1.87-12.19,3.29,0,0-6.92,2.41-9.06,8.88,0,0-1.72,5.41-4.5,8.73l-2.87,4.21s-.96,1.89-1.56-.13l-5.63-29.81-1.12-7.26s-1.02-6.96-4.55-7.11l-6.25.67s-2.65,0-2.39,3.91l1.52,31.7.63,14.15s-.55,6.72,2.19,11.34l4.36,7.67s4.65,6.33,4.48,11.14v8.1s-.17,3.44-1.54-.08l-1.83-7.26s-.76-6.8-5.12-11.92c0,0-1.29-1.78-1.32.64l.13,8.03s-.44,3.37-1.54.16c0,0-1.16-4.22-1.48-5.95l-1.51-12.01-1.81-31.94.14-22.96-.02-2.24s-.05-1.87-1.63-1.68c0,0-2.41.11-2.38,2.67l-.97,25.29-.52,7.11s-1.14,2.21-1.57-.17c0,0-.77-8.9-.3-14.24v-16.27s.14-3.3-3.13-2.23c0,0-12.93,4.81-14.21,6.18,0,0-2.65.68-2.85,4.71,0,0-4.01,18.6-4.01,23.25,0,0-1.65,18.72-.77,26.85l1.44,18s-.15,2.35-1.22.15c0,0-1.6-5.14-1.64-8.31,0,0-.88-9.28-2.29-12.61,0,0-3.61-10-6.59-12.57l-2.39-2.39s-1.79-2.37-3.08-.55c0,0-.74-.23-.08,8.32l.63,18.35s-.31,4.07-1.4.09c0,0-.88-4.91-.92-5.96,0,0-.83-6.57-1.18-7.8l-.64-4.36s-.55-2.52-1.29-1.87Z"/>
  <path class="cls-1" d="m429.49,396.2c-11.02-5.54-23.15-5.48-33.18.68,0,0,2.47,11.91,16.81,14.15,0,0,12.51-1.27,16.37-12.06,0,0,.58-1.06.42-2.44l-.42-.33Z"/>
  <path class="cls-3" d="m483.63,279.31s-1.31-2.65-1.9-2.69c0,0,2.2-3.25,2.3-4.25,0,0,.63,3.83,3.83,1.22,0,0,2.66-3.37,5.27-3.49l-9.5,9.2Z"/>
  <path class="cls-4" d="m415.14,269.18s-2.15,5.07,4.32,3.76c0,0,5.09.46,8.39-6.39,0,0-.05-2.68,4.02-1.34,0,0,5.72,1.62,8.3-.38,0,0,1.9-1.42,2.42-.45l.5.42.81-6.61s.88-5.89,1.32-6.38l.48-3.68s.63-2.41-2.28-2.23c0,0-5.27,1.03-7.06,1.5,0,0-5.96.83-9.15,3.46,0,0-3.82,2.3-5.26,5.53,0,0-2.47,6.66-3.28,7.57l-3.52,5.21Z"/>
  <path class="cls-4" d="m449.11,258.46s-1.31,9.61,1.37,11.54c0,0,3.47,2.19,7.87-3.28l9.32-11.33s1.95-1.99.37-2.29l-13.06-5.59-2.41-.93s-2.03-1.14-2.05,1.35c0,0,.24,7.72-1.42,10.54Z"/>
  <path class="cls-4" d="m458.24,271.12s11.12-10.88,11.58-12.15c0,0,1.01-1.86,1.92,0l2.7,10.65,4.2,16.88.74,3,.35,1.41s.88,2.99,3.72.92c0,0,2.74-3.02,4.62-3.21,0,0,3.28-.17,2.62,4.13,0,0,.19,3.72-3.27,6.98,0,0-2.68,1.34-2.78-1.96,0,0-3.98,2.07-4.47-1.59,0,0-.29-1.68-1.46-2.66,0,0-2.14-.32-2.56-2.56,0,0-1.92-6.29-4.13-9.05l-10.39-9.84s-.92-1.29-3.41-.96Z"/>
  <path class="cls-4" d="m488.1,304.54s1.52.68,1.05,3.08c0,0-.84,5.27,1.45,5.52l1.32-4.4s1.04-3.76,2.81-4.72c0,0,1.99-2.35.73-6.26,0,0-.72-2.9-3.03-4.25,0,0,.61,5.02-1.64,7.97l-2.68,3.06Z"/>
  <path class="cls-4" d="m488.56,327.34l2.23-6.89s1.89-7.14,6.9-11.98c0,0,2.31,3.94-1.65,11l-3.56,12.24s-2.15,3.8-3.44,1.78c0,0-1.22-.34.81-5.61,0,0-.42-1.49-1.29-.54Z"/>
  <path class="cls-4" d="m393.62,258.37s4.15,3.73,4.72-2.77c0,0-.49-5.3,3.96-2.33,0,0,1.7,3.46,3.75,4.38,0,0,2.69.82,2.19-4.88l-.88-7.73-1.85-11.13s-1.35-6.62-3.44-6.81c0,0-1.39-.52-5.26.15l-2.1.23s-2.59-.21-2.39,3.91l1.29,26.99Z"/>
  <path class="cls-4" d="m384.5,257.95s2.36,2.79,5.13-.16v-26.98s.41-2.87-1.99-2.49c0,0-2.16.22-2.05,2.62l-.22,5.74-.87,21.26Z"/>
  <path class="cls-4" d="m382.06,231.54s-.78-2.18-3.32-.97l-13.01,5.47s-3.57.92-3.77,5.7l-2.59,13.08-.86,5.18-.23,1.68s4.87.9,10.37-3.76c0,0,4.17,6.22,8.28-1.09,0,0,3.61,2.9,5.13-2.05v-23.24Z"/>
  <path class="cls-4" d="m341.62,286.7s6.95,2.78,8.12-6.74c0,0-2.09-3.76-5.66-6.83,0,0-2.19-1.77-2.84.98l.39,12.59Z"/>
  <circle class="cls-2" cx="368.84" cy="362.4" r="20.79"/>
  <ellipse class="cls-2" cx="455.11" cy="362.4" rx="21.35" ry="20.88"/>
  <circle class="cls-5" cx="362.83" cy="356.89" r="6.63"/>
  <circle class="cls-5" cx="449.22" cy="356.89" r="6.63"/>
  <circle class="cls-5" cx="373.3" cy="372.53" r="3.54"/>
  <circle class="cls-5" cx="459.66" cy="372.97" r="3.54"/>
  <path class="cls-3" d="m409.34,437.98s4.15-1.13,6.92,0c0,0-3.4,3.31-3.94,5.54l-2.98-5.54Z"/>
  <path class="cls-3" d="m417.81,465.72s-4.13.49-4.07-2.07c0,0-.13-.79.43-1.94,0,0,1.06-5.25-.44-7.32,0,0-2.35-2.26-.28-4.89,0,0,2.83-8.22,9.42-12.04l11.05-.88,6.03,23.53s-1.53,3.45-7.86,6.23c0,0-3.23,1.62-1.01-.93,0,0,1.17-1.81,1.36-2.29,0,0,.18-1-1.52.36,0,0-2.41,3.29-7.02,3.12l-6.09-.9Z"/>
  <path class="cls-3" d="m386.16,463.4s-1.88-1.33-.67-2.93c0,0,1.43-1.5,1.38-2.33,0,0-.31-.64-1.9.33,0,0-1.26.33-.78-1.45l2.12-9.11s.79-4.71,1.96-6.52l1.89-5.15,6.97.53s4.86.12,7.75,2.71c0,0,5.03,3.82,5.84,7.42,0,0,.78.97-.79,4.03,0,0-.99,3.2.98,5.12,0,0,3.67,6.3-2.25,8.88,0,0-4.03,1.05-5.96,1.05,0,0-.55-.06-.26-.67,0,0,.84-1.12.66-1.52s-.52-.38-.98-.05c0,0-3.36,3.26-6.57,3.48,0,0-3.91-.03-5.29-1.07l-4.1-2.74Z"/>
  <path class="cls-3" d="m381.22,471.99l1.66-7.58s.06-.76.84,0,4.96,4.11,4.96,4.11c0,0,1.77,2,3.24,1.15,0,0,1.1-.59,1.44.48l1.44,3.91s1.69,3.46-1.24,4.22c0,0-2.25.93-4.76-.45,0,0-1.94-.7-4.22-2.59,0,0-2.2-1.63-3.35-3.27Z"/>
  <path class="cls-3" d="m380.53,476.29s-.56,6.58-.56,8.82c0,0-.65,2.71,2.32,2.45l9.16-.65s2.5.3,2.93-2.07v-2.19s.6-2.84-2.67-2.41c0,0-3.27.47-4.91-1.29l-4-2.67s-2.12-2.03-2.28,0Z"/>
  <path class="cls-3" d="m417.27,493.63s-12.11-2.26-14.47-3.85c0,0-4.26-1.44-5.9-3.28,0,0-2.31-2.16.56-2.77l8.11,1.13s2.16-.21-3.39-1.39l-2.82-.67s-3.34-.46-2.51-3.08c0,0,1.44-3.59.15-4.33,0,0-2.49-4.54,1.06-5.72,0,0,5.04-1.95,12.84-1.95,0,0,12.57-.15,14.78,1.33,0,0,2.82,1.33-.72,3.8,0,0-.51.62-5.8.26,0,0-2.87.51,0,1.39l4.41.1s2.3-.35,2.48,1.59c0,0,.41,1.99-3.07,1.31l-11.6-.81s-1.89.23.46.95c0,0,4.96,1.44,8.94,1.22,0,0,6.41-.23,5.51,3.11l-4.51,8.84-1.44,2.17s-1.42,1.67-3.06.65Z"/>
  <path class="cls-3" d="m424.55,500.95s5.69-4.24,7.27-8.35c0,0,1.26-3.08,1.4-5.55l-4.57,7.83s-3.36,4.8-5.5,3.59c0,0-3.26-1.31-.89-5.27l5.04-9.56s2.39-3.75.78-8.02c0,0-1.82-4.66,3.26-6.29,0,0,4.38-1.26,7.55-3.64,0,0,1.49-1.21,1.96.75,0,0,.33,1.35-1.91,2.89,0,0-2.94,2.47-1.59,3.54,0,0,.98.89,3.08-1.45,0,0,1.12-1.54,1.12.79l.47,4.76s-.23,3.54-2.33,4.62c0,0-3.85,4.08-3.17,10.83,0,0,.01,9.88-4.82,11.01,0,0-5.06,2.89-6.87.23,0,0-1.23-1.57-.29-2.72Z"/>
  <path class="cls-3" d="m443.8,503.94l-1.19-20.84s-3.72,1.02-4.11,7.89v7.51s-.84,4.74,5.3,5.44Z"/>
  <path class="cls-3" d="m380.21,497.52l12.57,4.1s4.67,2.05,6.9-.44l4.54-5.41s2.18-2.27-2.1-4.37l-4.15-1.96s-4.06-1.44-7.55-.65l-9.2.92s-2.46.83-.54,1.75c0,0,8.47.52,10.17,1.22,0,0,1.66.99-.26,1.28h-8.73s-3.27-.23-2.4,2.38c0,0,.22.74.74,1.18Z"/>
  <path class="cls-3" d="m407.41,508.71l-4.06-2.64s-2.85-1.17-1.38-3.98l4.9-6.4s.46-2.76,6.49-1.42c0,0,5.78,1.6,8.41,7.04,0,0,2.18,4.81-.96,5.14l-5.02,2.26s-2.18.92-4.06,0c0,0-2.93,1.34-4.31,0Z"/>
  <path class="cls-3" d="m416.61,516.57s-1.05-3.55,0-5.3c0,0,1.93-1.84,3.46-.32,0,0,1.74,1.81,2,2.85,0,0,.95,1.71,1.21.1,0,0-.82-4.73,4.03-6.53l7.82-2.58s4.45-2.57,3.69,2.07c0,0-1.33,9.13-2.16,10.81,0,0-.68,2.15.72.97,0,0,1.58-1.11,2.19-5.06l.82-4.93s-.02-2.33,1.98-2.39c0,0,1.69-.27,1.86,2.38v7.45s-4.07,7.12-9.16,7.54c0,0-7.11,1.49-11.25-1.3l-6.36-4s-.86-.84-.84-1.77Z"/>
  <path class="cls-3" d="m386.24,523.49s3.98,1.76,4.01-1.89c0,0-.96-3.25.66-5.51,0,0,3.28-6.07,2.02-8.95,0,0-.52-3.06-4.62-3.99l-7-2.41s-2.6-1.26-2.19,1.93l.35,5.99s3.34,4.15,3.38,6.87c0,0,.04,1.77-1.08.35,0,0-1.21-3.37-2.12-3.37,0,0-.77-.17-.58,2.63,0,0,.83,3.61,3.41,5.78,0,0,2.47,2.21,3.74,2.57Z"/>
  <path class="cls-3" d="m393.23,523.91s-2.98-.98-1.18-4.48l1.72-3.76s1-3.76.63-5.8c0,0-.48-4.82,2.42-4.49l7.37,3.91s2.92.9,2.64,3.93c0,0,.75,3.95-2.05,5.52,0,0-7,4.44-7.18,5.16,0,0-2.88,1.29-4.37,0Z"/>
  <path class="cls-3" d="m385.88,531.55s-2,2.85-1.34,9.56c0,0-.61,1.66-4.73,0,0,0-2.98-.99-2.03-7l.43-8.51.05-1.99s-.33-3.07,1.89-1.23c0,0,3.93,3.36,8.51,3.93l8.04.33s3.78-.15,5.44-2.6c0,0,2.31-3.12,3.88-2.08l.29,9.03v4.3s.38,6.1-4.54,6.81c0,0-3.88,1.32-4.87-2.36,0,0-.9-6.67-2.13-7.09l-.09,8.56s-.66,2.07-3.93,1.13c0,0-2.41-.46-3.03.25,0,0-1.47.42-1.57-1.42l-.27-9.61Z"/>
  <path class="cls-3" d="m420.57,541.96s4.7-7.09,3.35-12.82c0,0-1.89-5.94-7-7.39v17.14s1.02,3.71,3.65,3.08Z"/>
  <path class="cls-3" d="m423.24,542.51h3.56s1.71-.7,0-2.47c0,0-1.97-2.09-3.96.12,0,0-1.81,1.81.4,2.35Z"/>
  <path class="cls-3" d="m431.46,542.51s6.79-.25,11.69-2.07c0,0,2.25-.46,1.93-4.83l.03-13.34s-.28-2.53-1.82-.53c0,0-3.18,4.5-7.62,4.65l-6.11-.07s-4.58-.45-4.43,5.57c0,0,.68,8.83,6.33,10.62Z"/>
  <path class="cls-3" d="m439.39,506.94s.04,4.48-2.3,3.31c0,0-6.09-6.51-6.47-6.71,0,0-.57-.14.31-1.34l1.12-2.36s1.46-.75,1.1-1.58c0,0-.26-.15-.08-.55l1.49-3.31s.76-1.6,2.03-.39c0,0,2.67,5.77,2.58,8.62l-.09,2.94s.71.96.31,1.38Z"/>
  <path class="cls-3" d="m458.39,431.06s-.17,8.42-1.34,11.21c0,0-1.17,3.56-3.4,4.26,0,0-.54.28-.09-1.27l.81-6.38s-.28-1.26-1.22.98l-1.02,2.74s-.94,1.51-.37,3.68c0,0,0,5.17-4.83,6.49l-2.7.75s-1.37.83-1.03-1.16c0,0,1.46-8.61-.25-13.4,0,0-1.1-3.08,1.49-4.84l8.38-8.26,3.75-3.77s2.02-1.71,2.31,1.07l-.49,7.88Z"/>
  <path class="cls-3" d="m465.36,443.69l2.8-12.63s.69-2.13-1.17-1.64c0,0-5.13,1.54-6.14,4.28,0,0-1.25,1.43-.34,4.1,0,0,.35,1.97-.79,3.37l-2.02,4.52s-1.29,2.8,1.46,1.54l5.47-2.89s.62-.15.73-.65Z"/>
  <path class="cls-3" d="m437.07,438.87h2.51s1.49-.18,1.67,1.37l.08,7.72s-.04,2-.64,3.56c0,0-.36,2.86-1.79-.11l-2.16-7.66-.57-3.06s-.85-1.81.9-1.82Z"/>
  <path class="cls-3" d="m490.87,427.1s-8.61-3.4-12.52-2.63c0,0-6.62,1.26-8.01,5.26l-2.43,11.56s-.76,1.78,1.54.29c0,0,17-12.13,19.36-12.78,0,0,3.38-.8,2.05-1.7Z"/>
  <path class="cls-3" d="m507.12,419.65s-8.37,5.1-11.39,5.98c0,0-.71.51-1.77-.07,0,0-6.89-3.27-11.88-2.65,0,0-9.37,1.05-15.14,4.19l-3.59,1.99s-2.4,1.33-2.65-.74c0,0-.8-3.14,3.8-5.39l15.96-8.88s2.41-.97,1.27-1.73c0,0,.2-.93-2.98.52,0,0-11.39,4.95-14.04,7.78,0,0-2.58,3.07-3.69,1.12,0,0-2-2.98,3.26-6.18l11.8-9.36s4.97-3.55,8.86-2.2c0,0,4.46.58,7.86-1.5l6.96-2.87s4.06-2.13,5.02,1.1l2.7,5.12s1.01,1.94-1.04,3.05c0,0-7.15,3.39-7.99,4.5,0,0-1.49,1.4.84.91,0,0,4.71-1.38,7.51-3.08,0,0,2.15-.81,2.66,1.61s.5,4.44-2.33,6.77Z"/>
  <path class="cls-3" d="m498.79,397.9s-7.22,3.8-14.43,3.99c0,0-1.8.2,1.52-2.1,0,0,6.84-4.95,11.7-3.24,0,0,4.01.63,1.21,1.34Z"/>
  <path class="cls-3" d="m353.46,438.92s15.93,7.05,23.7,8.01c0,0,3.83,1.42,4.4-1.52l3.62-5.03s1.32-1.21-2.3-2.9l-6.52-5s-2.7-4.54-9.72-1.7l-11.97,5.07-2.21,1.34s-2.44.93.99,1.73Z"/>
  <path class="cls-3" d="m338.59,404.19s.49,1.8,1.89,3.89c0,0,6.56,9.69,6.73,11.51,0,0,2.18,6.62,7.67,9.68,0,0,3.58,3.45,6.72,1.08,0,0,1.14-1.02,0-3.38l-.25-.63,4.34,1.55s2.06,1,3.44-.34c0,0,1.28-.75-.77-2.35,0,0-8.78-7.9-15.06-11.79l-13.96-9.84s-1.47-1.19-.76.61Z"/>
  <path class="cls-3" d="m331.5,420.48s2.92,10.15,8.89,13.44c0,0,5.95,3.32,8.99,2.09,0,0,3.43-.8-.47-3.38l-10.43-8.76-5.91-4.54s-2.52-1.71-1.07,1.15Z"/>
  <path class="cls-3" d="m313.67,395.02s3.27,4.09,4.98,5.27c0,0,3.97,2.58,5.63,7.11,0,0,1.09,5.41,6.3,8.53,0,0,12.59,8.38,14.12,10.78,0,0,4.09,5.78,7.42,5.91,0,0,3.09.85,1.86-1.47,0,0,.11-.4-2.59-1.76,0,0-4.43-2.61-6.6-9.1,0,0-3.15-7.97-7.13-12.92,0,0-4.31-6.29-5.67-9.87,0,0-1.52-2.48-3.79-3.9,0,0-2.47-2.14-3.21-2.96,0,0-1.61-2.08-2.62-1.02,0,0-1.1.77.19,2.23l3.23,4.42s-.67,1.06-4.89-3.38c0,0-2.74-4.32-4.66-1.95,0,0-1.02,1.24-2.32,1.59,0,0-1.86,1.02-.23,2.5Z"/>
  <path class="cls-3" d="m314.98,407.72s-3.01-3.47-3.02-4.3c0,0-1.81-3.11-3.32-3.64,0,0-.63-.38-.94.57s-2.16,3.3-1.77,6.97c0,0-.54,2.98,3.17,6.24,0,0,8.13,7.41,11.96,9.2,0,0,5.84,4.03,9.84,5.62,0,0,2.97,1.79,1.68-1.33l-3.8-5.42s-5.99-10.12-5.84-11.78-5.1-8.08-6.81-9.31c0,0-3.91-3.2-4.66-4.55,0,0-1.46-.93-1.49,1.18,0,0,1.16,4.09,4.12,7.55,0,0,1.94,2.47.89,3.01Z"/>
  <path class="cls-4" d="m390.02,500.49s-2.69-2.77-.25-5.97h-8.33s-2.95-.13-1.09,2.57l9.68,3.41Z"/>
  <path class="cls-4" d="m379.13,502.66s-.84-2.38,1.79-2.08l6.54,2.26s2.27,1.47,0,2.52-8.32-2.71-8.32-2.71Z"/>
  <path class="cls-4" d="m458.04,451.37s1.87-6.67-4.06-2.23c0,0-3.73,3.06-1.2,7.77,0,0,1.59,2.69,3.57-.84,0,0,1.39-2.16,1.69-4.7Z"/>
  <path class="cls-3" d="m383.3,449.43l1.31.05s.78.12.85-.7l-.09-4.08s-.05-1.06-.39-1.89c0,0-.24-1.52-.93.03l-1,4.02-.25,1.61s-.41.95.5.98Z"/>
  <path class="cls-3" d="m352.88,442.2s-9.23-1.29-12.92,2.57c0,0-4.14,4.54-6.21,5.04,0,0-3.35,1.7-1.2-1.37l5.13-7.07-9.33-.7s-1.96.15-2.18-.38c0,0-1.44-1.75,1.3-2.7,0,0,11.87-1.23,16.14-.73l6.86.52s.6.11.51.81c0,0,.1.91-1.37.89l-8.4-.67s-1.95-.01-1.51.77c0,0-.19.51,1.81.5l11.08.31s3.4.04,3.15,1.29c0,0-.69,1.16-2.88.92Z"/>
  <path class="cls-4" d="m331.94,449.52l5.75-8.15-9.96-.92s-2.76.21-1.43-2.01c0,0,1.41-1.62,11.69-1.64,0,0,2.59.85,1.69,2.06,0,0-.37.67.74.74,0,0,.54,1.72-2.63,2.22,0,0-.8,1.86,2.52,2.01,0,0-2.68,3.83-4.62,4.9,0,0-4.68,2.62-3.76.78Z"/>
  <path class="cls-4" d="m341.33,395.38s1.87-6.67-4.06-2.23c0,0-3.73,3.06-1.2,7.77,0,0,1.59,2.69,3.57-.84,0,0,1.39-2.16,1.69-4.7Z"/>
</svg>