<svg width="779" height="770" viewBox="0 0 779 770" fill="none" xmlns="http://www.w3.org/2000/svg">
<path d="M509.988 186.922C509.988 186.922 505.962 185.379 506.075 180.132C506.075 180.132 512.865 172.608 513.806 165.705C513.806 165.705 515.555 158.803 515.668 153.442C515.668 153.442 515.16 148.608 519.693 148.194C519.693 148.194 522.477 148.194 522.157 153.442C522.157 153.442 522.984 158.803 526.483 158.803C526.483 158.803 531.11 158.182 534.514 154.476L549.448 143.962C549.448 143.962 551.517 142.307 553.473 145.298C553.473 145.298 555.223 147.762 552.345 149.831C552.345 149.831 528.439 167.549 527.931 169.298C527.931 169.298 513.712 182.389 513.298 183.818C512.884 185.248 510.006 186.903 510.006 186.903L509.988 186.922Z" fill="#909B49"/>
<path d="M236.357 183.856L227.931 198.696C227.931 198.696 224.884 204.188 225.223 213.48L224 239.248C224 239.248 225.223 260.483 226.483 269.455L239.329 338.238C239.329 338.238 246.702 360.113 247.041 368.257C247.041 368.257 255.241 401.398 271.887 420.997C271.887 420.997 279.636 435.931 301.699 449.549C301.699 449.549 344.301 475.862 378.401 474.79C378.401 474.79 407.63 471.743 448.182 453.912C448.182 453.912 482.169 438.658 505.285 392.727C509.969 383.417 511.774 383.06 513.354 372.752C514.671 364.138 516.796 359.605 518.395 344.577L523.831 303.893C523.831 303.893 533.95 260.163 539.216 250.646C539.216 250.646 542.658 241.787 539.216 237.593C539.216 237.593 529.022 246.959 525.524 263.022C525.524 263.022 518.339 283.956 517.699 285.423C517.699 285.423 515.48 291.028 515.367 285.743C515.367 285.743 518.433 266.727 520.332 263.022C520.332 263.022 522.025 253.937 523.812 251.511C523.812 251.511 528.251 241.053 528.364 238.082C528.364 238.082 529.85 231.423 533.649 229.204C533.649 229.204 537.768 223.279 534.608 216.414C534.608 216.414 532.276 210.715 529.323 209.436C529.323 209.436 530.734 220.627 524.884 225.912C524.884 225.912 516.157 234.527 516.552 240.79C516.552 240.79 516.345 246.32 511.831 246.451C511.831 246.451 509.705 247.241 510.966 241.185C510.966 241.185 512.038 231.329 515.085 228C515.085 228 519.881 220.552 523.078 217.486C523.078 217.486 526.539 212.088 526.069 205.505C526.069 205.505 526.671 200.107 521.141 200.238C521.141 200.238 517.887 200.652 513.166 205.618C513.166 205.618 510.364 208.702 507.787 207.273C507.787 207.273 506.075 207.198 505.436 204.545L496.031 166.477L490.107 144.997C490.107 144.997 489.674 140.878 486.796 144.451C486.796 144.451 466.483 166.871 461.085 170.746C461.085 170.746 456.082 174.376 454.314 175.166C454.314 175.166 452.395 174.922 453.693 173.53C453.693 173.53 478.709 141.837 482.734 137.737C482.734 137.737 486.194 134.633 483.43 133.429C483.43 133.429 469.078 126.132 462.683 124.382L453.26 120.734C453.26 120.734 450.232 119.793 450.477 123.687C450.477 123.687 450.909 136.608 447.806 143.511L438.533 199.674L432.307 227.078C432.307 227.078 430.821 229.129 430.483 226.683C430.483 226.683 431.367 206.878 431.931 200.182L437.781 144.301C437.781 144.301 439.323 133.655 440.451 131.022C440.451 131.022 441.204 126.978 441.354 124.1C441.354 124.1 442.859 118.796 435.223 120.113C435.223 120.113 417.975 123.63 412.295 126.301C412.295 126.301 399.279 130.834 395.254 143.003C395.254 143.003 392.019 153.179 386.79 159.423L381.392 167.342C381.392 167.342 379.586 170.897 378.458 167.097L367.868 111.028L365.762 97.373C365.762 97.373 363.843 84.2821 357.204 84L345.448 85.2602C345.448 85.2602 340.464 85.2602 340.953 92.6144L343.812 152.238L344.997 178.853C344.997 178.853 343.962 191.492 349.116 200.182L357.317 214.608C357.317 214.608 366.063 226.514 365.743 235.561V250.796C365.743 250.796 365.423 257.267 362.846 250.646L359.404 236.991C359.404 236.991 357.975 224.201 349.774 214.571C349.774 214.571 347.348 211.223 347.292 215.774L347.536 230.878C347.536 230.878 346.708 237.216 344.639 231.179C344.639 231.179 342.458 223.241 341.856 219.988L339.016 197.398L335.611 137.323L335.875 94.1379L335.837 89.9248C335.837 89.9248 335.743 86.4075 332.771 86.7649C332.771 86.7649 328.238 86.9718 328.295 91.7868L326.47 139.354L325.492 152.727C325.492 152.727 323.348 156.884 322.539 152.408C322.539 152.408 321.091 135.668 321.975 125.624V95.0219C321.975 95.0219 322.238 88.8151 316.088 90.8276C316.088 90.8276 291.768 99.8746 289.361 102.451C289.361 102.451 284.376 103.73 284 111.31C284 111.31 276.458 146.295 276.458 155.041C276.458 155.041 273.354 190.251 275.009 205.542L277.718 239.398C277.718 239.398 277.436 243.818 275.423 239.68C275.423 239.68 272.414 230.013 272.339 224.05C272.339 224.05 270.683 206.596 268.031 200.332C268.031 200.332 261.241 181.524 255.636 176.69L251.141 172.194C251.141 172.194 247.774 167.737 245.348 171.16C245.348 171.16 243.956 170.727 245.197 186.809L246.382 221.323C246.382 221.323 245.799 228.978 243.749 221.492C243.749 221.492 242.094 212.257 242.019 210.282C242.019 210.282 240.458 197.925 239.799 195.611L238.596 187.411C238.596 187.411 237.561 182.671 236.169 183.893L236.357 183.856Z" fill="#DAB27A"/>
<path d="M512.828 182.727C512.828 182.727 510.364 177.743 509.254 177.668C509.254 177.668 513.392 171.555 513.58 169.674C513.58 169.674 514.765 176.878 520.784 171.969C520.784 171.969 525.787 165.63 530.696 165.404L512.828 182.709V182.727Z" fill="#DAB27A"/>
<path d="M383.988 163.655C383.988 163.655 379.944 173.191 392.113 170.727C392.113 170.727 401.687 171.593 407.893 158.709C407.893 158.709 407.799 153.668 415.455 156.188C415.455 156.188 426.213 159.235 431.066 155.473C431.066 155.473 434.64 152.803 435.618 154.627L436.558 155.417L438.082 142.984C438.082 142.984 439.737 131.906 440.564 130.984L441.467 124.063C441.467 124.063 442.652 119.53 437.179 119.868C437.179 119.868 427.267 121.806 423.9 122.69C423.9 122.69 412.69 124.251 406.69 129.198C406.69 129.198 399.505 133.524 396.796 139.599C396.796 139.599 392.151 152.125 390.627 153.837L384.006 163.636L383.988 163.655Z" fill="#909B49"/>
<path d="M447.881 143.511C447.881 143.511 445.417 161.586 450.458 165.216C450.458 165.216 456.984 169.335 465.26 159.047L482.79 137.737C482.79 137.737 486.458 133.994 483.486 133.429L458.922 122.915L454.389 121.166C454.389 121.166 450.571 119.022 450.533 123.705C450.533 123.705 450.984 138.226 447.862 143.53L447.881 143.511Z" fill="#909B49"/>
<path d="M465.053 167.323C465.053 167.323 485.969 146.859 486.834 144.47C486.834 144.47 488.734 140.972 490.445 144.47L495.523 164.502L503.423 196.251L504.815 201.893L505.473 204.546C505.473 204.546 507.129 210.169 512.47 206.276C512.47 206.276 517.624 200.596 521.16 200.238C521.16 200.238 527.329 199.919 526.088 208.006C526.088 208.006 526.445 215.003 519.937 221.135C519.937 221.135 514.897 223.655 514.708 217.448C514.708 217.448 507.223 221.342 506.301 214.458C506.301 214.458 505.755 211.298 503.555 209.455C503.555 209.455 499.53 208.853 498.74 204.64C498.74 204.64 495.129 192.809 490.972 187.618L471.429 169.11C471.429 169.11 469.699 166.683 465.016 167.304L465.053 167.323Z" fill="#909B49"/>
<path d="M521.235 230.163C521.235 230.163 524.094 231.442 523.21 235.956C523.21 235.956 521.63 245.868 525.937 246.339L528.42 238.063C528.42 238.063 530.376 230.991 533.705 229.185C533.705 229.185 537.448 224.765 535.078 217.411C535.078 217.411 533.724 211.956 529.379 209.417C529.379 209.417 530.527 218.859 526.295 224.408L521.254 230.163H521.235Z" fill="#909B49"/>
<path d="M522.082 273.066L526.276 260.107C526.276 260.107 529.831 246.677 539.254 237.574C539.254 237.574 543.599 244.984 536.15 258.263L529.455 281.285C529.455 281.285 525.411 288.433 522.984 284.633C522.984 284.633 520.69 283.994 524.508 274.082C524.508 274.082 523.718 271.279 522.082 273.066Z" fill="#909B49"/>
<path d="M343.53 143.342C343.53 143.342 351.335 150.357 352.408 138.132C352.408 138.132 351.486 128.163 359.856 133.749C359.856 133.749 363.053 140.257 366.909 141.987C366.909 141.987 371.969 143.53 371.028 132.809L369.373 118.27L365.893 97.3354C365.893 97.3354 363.354 84.8839 359.423 84.5266C359.423 84.5266 356.809 83.5485 349.53 84.8087L345.58 85.2413C345.58 85.2413 340.709 84.8463 341.085 92.5955L343.511 143.36L343.53 143.342Z" fill="#909B49"/>
<path d="M326.376 142.552C326.376 142.552 330.815 147.799 336.025 142.251V91.5047C336.025 91.5047 336.796 86.1066 332.282 86.8213C332.282 86.8213 328.219 87.2351 328.426 91.7492L328.012 102.545L326.376 142.533V142.552Z" fill="#909B49"/>
<path d="M321.787 92.8777C321.787 92.8777 320.32 88.7774 315.542 91.0533L291.072 101.342C291.072 101.342 284.357 103.072 283.981 112.063L279.11 136.665L277.492 146.407L277.06 149.567C277.06 149.567 286.219 151.26 296.564 142.495C296.564 142.495 304.408 154.194 312.138 140.445C312.138 140.445 318.928 145.9 321.787 136.589V92.8777Z" fill="#909B49"/>
<path d="M245.705 196.627C245.705 196.627 258.777 201.856 260.978 183.95C260.978 183.95 257.047 176.878 250.332 171.103C250.332 171.103 246.213 167.774 244.991 172.947L245.724 196.627H245.705Z" fill="#909B49"/>
<path d="M296.922 378.113C318.518 378.113 336.025 360.606 336.025 339.01C336.025 317.413 318.518 299.906 296.922 299.906C275.325 299.906 257.818 317.413 257.818 339.01C257.818 360.606 275.325 378.113 296.922 378.113Z" fill="#100F0E"/>
<path d="M459.185 378.282C481.363 378.282 499.342 360.699 499.342 339.01C499.342 317.32 481.363 299.737 459.185 299.737C437.007 299.737 419.028 317.32 419.028 339.01C419.028 360.699 437.007 378.282 459.185 378.282Z" fill="#100F0E"/>
<path d="M285.618 341.116C292.505 341.116 298.088 335.533 298.088 328.646C298.088 321.759 292.505 316.176 285.618 316.176C278.731 316.176 273.147 321.759 273.147 328.646C273.147 335.533 278.731 341.116 285.618 341.116Z" fill="white"/>
<path d="M448.107 341.116C454.994 341.116 460.577 335.533 460.577 328.646C460.577 321.759 454.994 316.176 448.107 316.176C441.22 316.176 435.636 321.759 435.636 328.646C435.636 335.533 441.22 341.116 448.107 341.116Z" fill="white"/>
<path d="M305.291 364.702C308.969 364.702 311.95 361.721 311.95 358.044C311.95 354.367 308.969 351.386 305.291 351.386C301.614 351.386 298.633 354.367 298.633 358.044C298.633 361.721 301.614 364.702 305.291 364.702Z" fill="white"/>
<path d="M467.743 365.53C471.42 365.53 474.401 362.549 474.401 358.871C474.401 355.194 471.42 352.213 467.743 352.213C464.066 352.213 461.085 355.194 461.085 358.871C461.085 362.549 464.066 365.53 467.743 365.53Z" fill="white"/>
<path d="M373.097 481.147C373.097 481.147 380.903 479.022 386.113 481.147C386.113 481.147 379.718 487.373 378.702 491.568L373.097 481.147Z" fill="#DAB27A"/>
<path d="M389.028 533.342C389.028 533.342 381.26 534.263 381.373 529.448C381.373 529.448 381.129 527.963 382.182 525.799C382.182 525.799 384.176 515.925 381.354 512.031C381.354 512.031 376.934 507.781 380.828 502.834C380.828 502.834 386.15 487.373 398.545 480.188L419.329 478.533L430.671 522.79C430.671 522.79 427.793 529.279 415.887 534.508C415.887 534.508 409.812 537.555 413.987 532.759C413.987 532.759 416.188 529.354 416.545 528.452C416.545 528.452 416.884 526.571 413.687 529.129C413.687 529.129 409.154 535.317 400.483 534.997L389.028 533.304V533.342Z" fill="#DAB27A"/>
<path d="M329.499 528.978C329.499 528.978 325.963 526.477 328.238 523.467C328.238 523.467 330.928 520.646 330.834 519.085C330.834 519.085 330.251 517.881 327.26 519.705C327.26 519.705 324.89 520.326 325.793 516.978L329.781 499.843C329.781 499.843 331.267 490.984 333.467 487.58L337.022 477.894L350.132 478.89C350.132 478.89 359.273 479.116 364.709 483.988C364.709 483.988 374.169 491.173 375.693 497.944C375.693 497.944 377.16 499.768 374.207 505.524C374.207 505.524 372.345 511.542 376.05 515.154C376.05 515.154 382.953 527.003 371.818 531.856C371.818 531.856 364.238 533.831 360.608 533.831C360.608 533.831 359.574 533.718 360.119 532.571C360.119 532.571 361.699 530.464 361.361 529.712C361.022 528.959 360.383 528.997 359.517 529.618C359.517 529.618 353.198 535.749 347.16 536.163C347.16 536.163 339.806 536.107 337.21 534.151L329.499 528.997V528.978Z" fill="#DAB27A"/>
<path d="M320.207 545.135L323.329 530.878C323.329 530.878 323.442 529.448 324.909 530.878C326.376 532.307 334.238 538.608 334.238 538.608C334.238 538.608 337.567 542.37 340.332 540.771C340.332 540.771 342.401 539.661 343.041 541.674L345.749 549.028C345.749 549.028 348.928 555.536 343.417 556.966C343.417 556.966 339.185 558.715 334.464 556.119C334.464 556.119 330.815 554.803 326.527 551.248C326.527 551.248 322.389 548.182 320.226 545.097L320.207 545.135Z" fill="#DAB27A"/>
<path d="M318.89 553.223C318.89 553.223 317.837 565.599 317.837 569.812C317.837 569.812 316.614 574.909 322.201 574.42L339.429 573.197C339.429 573.197 344.132 573.762 344.94 569.304V565.185C344.94 565.185 346.069 559.843 339.918 560.652C339.918 560.652 333.768 561.536 330.683 558.226L323.16 553.204C323.16 553.204 319.172 549.386 318.871 553.204L318.89 553.223Z" fill="#DAB27A"/>
<path d="M387.994 585.837C387.994 585.837 365.216 581.586 360.778 578.596C360.778 578.596 352.765 575.887 349.68 572.426C349.68 572.426 345.336 568.364 350.734 567.216L365.988 569.342C365.988 569.342 370.05 568.947 359.611 566.727L354.307 565.467C354.307 565.467 348.025 564.602 349.586 559.674C349.586 559.674 352.295 552.922 349.869 551.53C349.869 551.53 345.185 542.991 351.862 540.771C351.862 540.771 361.342 537.104 376.013 537.104C376.013 537.104 399.655 536.821 403.812 539.605C403.812 539.605 409.116 542.107 402.458 546.752C402.458 546.752 401.499 547.919 391.549 547.241C391.549 547.241 386.151 548.201 391.549 549.856L399.843 550.044C399.843 550.044 404.169 549.386 404.508 553.035C404.508 553.035 405.279 556.778 398.734 555.499L376.916 553.975C376.916 553.975 373.361 554.408 377.781 555.762C377.781 555.762 387.11 558.47 394.596 558.057C394.596 558.057 406.652 557.624 404.959 563.906L396.477 580.533L393.768 584.615C393.768 584.615 391.097 587.756 388.013 585.837H387.994Z" fill="#DAB27A"/>
<path d="M401.705 599.605C401.705 599.605 412.407 591.63 415.379 583.9C415.379 583.9 417.749 578.107 418.012 573.461L409.417 588.188C409.417 588.188 403.097 597.216 399.072 594.941C399.072 594.941 392.94 592.477 397.398 585.028L406.878 567.047C406.878 567.047 411.373 559.994 408.345 551.962C408.345 551.962 404.921 543.198 414.476 540.132C414.476 540.132 422.715 537.762 428.677 533.285C428.677 533.285 431.479 531.009 432.363 534.696C432.363 534.696 432.984 537.235 428.771 540.132C428.771 540.132 423.241 544.778 425.78 546.79C425.78 546.79 427.624 548.464 431.573 544.063C431.573 544.063 433.68 541.166 433.68 545.549L434.564 554.502C434.564 554.502 434.132 561.16 430.182 563.191C430.182 563.191 422.94 570.865 424.219 583.561C424.219 583.561 424.238 602.144 415.153 604.27C415.153 604.27 405.636 609.705 402.232 604.702C402.232 604.702 399.918 601.749 401.686 599.586L401.705 599.605Z" fill="#DAB27A"/>
<path d="M437.893 605.229L435.655 566.031C435.655 566.031 428.658 567.95 427.925 580.872V594.997C427.925 594.997 426.345 603.912 437.893 605.229Z" fill="#DAB27A"/>
<path d="M318.307 593.154L341.95 600.865C341.95 600.865 350.734 604.721 354.928 600.038L363.467 589.862C363.467 589.862 367.568 585.593 359.517 581.643L351.712 577.956C351.712 577.956 344.075 575.248 337.511 576.734L320.207 578.464C320.207 578.464 315.58 580.025 319.191 581.756C319.191 581.756 335.122 582.734 338.32 584.05C338.32 584.05 341.442 585.912 337.831 586.458H321.411C321.411 586.458 315.26 586.025 316.897 590.934C316.897 590.934 317.31 592.326 318.289 593.154H318.307Z" fill="#DAB27A"/>
<path d="M369.448 614.201L361.812 609.235C361.812 609.235 356.451 607.035 359.216 601.749L368.433 589.712C368.433 589.712 369.298 584.52 380.639 587.041C380.639 587.041 391.511 590.05 396.458 600.282C396.458 600.282 400.558 609.329 394.652 609.95L385.21 614.201C385.21 614.201 381.11 615.931 377.574 614.201C377.574 614.201 372.063 616.721 369.467 614.201H369.448Z" fill="#DAB27A"/>
<path d="M431.592 483.988C431.592 483.988 424.144 480.038 428.169 477.216C428.169 477.216 444.401 472.966 445.059 472.533C445.059 472.533 445.812 471.705 446.997 474.245L449.893 478.194C449.893 478.194 449.818 481.279 451.53 481.43C451.53 481.43 452 481.147 452.508 481.787L456.664 487.204C456.664 487.204 458.639 489.893 455.498 490.909C455.498 490.909 443.573 490.176 438.928 487.467L434.15 484.683C434.15 484.683 431.931 484.984 431.592 483.969V483.988Z" fill="#DAB27A"/>
<path d="M464.301 527.342C464.301 527.342 449.122 522.809 444.646 519.273C444.646 519.273 438.777 515.361 438.627 510.978C438.627 510.978 438.383 509.869 440.978 511.448L452.132 516.113C452.132 516.113 454.558 516.226 450.984 513.405L446.527 510.169C446.527 510.169 444.251 507.706 440.038 507.668C440.038 507.668 430.652 505.072 430.69 495.649V490.383C430.69 490.383 429.881 487.486 433.304 489.085C433.304 489.085 448.182 496.044 457.718 495.348C457.718 495.348 463.868 494.897 465.749 500.483L476.508 519.818L481.455 528.508C481.455 528.508 483.542 533.022 478.351 532.157L464.301 527.323V527.342Z" fill="#DAB27A"/>
<path d="M437.893 533.643L459.373 545.06C459.373 545.06 462.89 547.373 462.947 543.762C462.947 543.762 462.721 533.68 458.263 530.483C458.263 530.483 456.307 527.492 451.003 527.812C451.003 527.812 447.26 527.455 445.304 524.69L438.119 518.765C438.119 518.765 433.699 515.022 434.583 520.646L437.085 532.006C437.085 532.006 437.047 533.21 437.893 533.661V533.643Z" fill="#DAB27A"/>
<path d="M464.32 488.126L461.291 484.495C461.291 484.495 459.26 482.539 461.291 480.414L472.389 471.047C472.389 471.047 475.323 468.715 478.313 467.718C478.313 467.718 482.884 464.821 480.307 470.445L471.805 482.746L468.044 487.242C468.044 487.242 466.426 490.646 464.32 488.126Z" fill="#909B49"/>
<path d="M494.395 538.27C494.395 538.27 489.975 536.859 490.182 532.307C490.182 532.307 489.166 528.169 494.395 526.834C494.395 526.834 499.944 524.821 507.054 526.025C507.054 526.025 512.395 526.025 508.333 530.916C508.333 530.916 501.242 538.138 494.395 538.27Z" fill="#909B49"/>
<path d="M455.179 588.207C455.179 588.207 465.674 574.307 466.219 566.84C466.219 566.84 467.254 554.201 460.69 549.687L440.959 539.492C440.959 539.492 438.119 537.235 439.661 542.144C439.661 542.144 453.11 579.047 453.11 583.655C453.11 583.655 452.865 590.182 455.16 588.226L455.179 588.207Z" fill="#DAB27A"/>
<path d="M460.539 621.423C460.539 621.423 455.498 603.687 455.404 597.781C455.404 597.781 454.84 596.238 456.42 594.602C456.42 594.602 465.806 583.749 467.179 574.401C467.179 574.401 469.962 556.89 467.179 544.853L465.373 537.348C465.373 537.348 464.169 532.326 468.044 532.909C468.044 532.909 474.138 533.041 475.906 542.502L483.994 575.887C483.994 575.887 484.539 580.74 486.495 579.066C486.495 579.066 488.075 579.894 487.06 573.405C487.06 573.405 483.806 550.27 480.006 544.063C480.006 544.063 475.737 537.837 479.818 536.821C479.818 536.821 486.232 534.696 489.392 545.831L500.451 571.919C500.451 571.919 504.382 582.715 500 589.072C500 589.072 496.708 596.859 498.777 604.063L500.489 618.113C500.489 618.113 502.313 626.539 495.975 626.671L485.348 628.984C485.348 628.984 481.323 629.831 480.345 625.561C480.345 625.561 477.787 610.89 476.188 608.821C476.188 608.821 474.401 605.417 474.119 609.894C474.119 609.894 474.251 619.129 475.944 625.053C475.944 625.053 476.339 629.342 471.693 629.06C467.047 628.778 463.398 627.743 460.596 621.442L460.539 621.423Z" fill="#DAB27A"/>
<path d="M504.138 617.21C504.138 617.21 500.884 602.201 504.138 589.053C504.138 589.053 504.683 585.687 507.185 592.853C507.185 592.853 512.734 607.749 507.185 615.687C507.185 615.687 504.025 622.646 504.138 617.21Z" fill="#DAB27A"/>
<path d="M243.204 565.862C243.204 565.862 250.182 576.865 251.423 563.003C251.423 563.003 251.837 553.937 242.075 551.53C242.075 551.53 236.32 550.364 238.746 557.568C238.746 557.568 240.006 562.232 243.185 565.843L243.204 565.862Z" fill="#909B49"/>
<path d="M289.492 485.962C289.492 485.962 281.009 477.988 271.549 481.317C271.549 481.317 260.752 485.398 256.84 484.477C256.84 484.477 249.768 484.477 256.013 481.147L270.646 473.662L255.599 464.52C255.599 464.52 252.194 463.11 252.27 462.019C252.27 462.019 251.348 457.862 256.765 458.615C256.765 458.615 277.718 466.683 284.433 471.16L295.492 477.894C295.492 477.894 296.414 478.589 295.661 479.68C295.661 479.68 295.06 481.298 292.614 480L279.11 471.724C279.11 471.724 275.856 470.031 275.912 471.724C275.912 471.724 275.16 472.42 278.527 474.113L290.433 482.069C290.433 482.069 293.292 483.687 291.806 485.549C291.806 485.549 290.771 486.997 289.511 485.962H289.492Z" fill="#DAB27A"/>
<path d="M281.329 515.662C281.329 515.662 296.602 486.658 306.909 476.182C306.909 476.182 310.897 469.636 315.166 473.285L326.376 476.483C326.376 476.483 329.724 476.727 326.376 483.442L322.614 498.433C322.614 498.433 323.931 508.27 310.276 512.295L286.709 518.784L281.893 519.386C281.893 519.386 277.21 520.872 281.329 515.68V515.662Z" fill="#DAB27A"/>
<path d="M299.969 584.238C299.969 584.238 298.596 581.022 298.219 576.282C298.219 576.282 296.583 554.332 294.702 551.455C294.702 551.455 290.188 539.154 294.702 528.226C294.702 528.226 295.944 518.953 303.354 518.784C303.354 518.784 306.213 518.953 307.304 523.749L307.661 524.953L312.251 517.599C312.251 517.599 314.132 513.724 317.724 514.082C317.724 514.082 320.489 513.687 319.323 518.445C319.323 518.445 315.599 540.357 310.897 553.411L301.793 584.219C301.793 584.219 301.022 587.68 299.95 584.219L299.969 584.238Z" fill="#DAB27A"/>
<path d="M270.476 568.495C270.476 568.495 262.934 550.119 267.9 538.288C267.9 538.288 272.79 526.458 278.715 524.709C278.715 524.709 284.696 521.887 281.969 530.238L276.815 555.348L273.411 568.928C273.411 568.928 271.699 574.383 270.495 568.495H270.476Z" fill="#DAB27A"/>
<path d="M273.918 626.859C273.918 626.859 273.956 617.003 275.103 613.279C275.103 613.279 277.944 604.834 275.103 596.238C275.103 596.238 270.382 586.984 274.426 576.301C274.426 576.301 283.21 549.235 282.665 543.931C282.665 543.931 281.931 530.633 286.708 526.552C286.708 526.552 290.282 521.699 291.166 526.552C291.166 526.552 291.806 527.022 289.398 532.176C289.398 532.176 285.918 541.204 290.282 553.298C290.282 553.298 294.947 568.74 294.853 580.683C294.853 580.683 295.831 594.997 298.013 601.862C298.013 601.862 298.671 607.298 296.978 612.056C296.978 612.056 295.849 618.094 295.699 620.163C295.699 620.163 295.755 625.11 293.028 624.715C293.028 624.715 290.508 624.865 290.696 621.198L290.301 610.909C290.301 610.909 288.081 610.119 287.028 621.593C287.028 621.593 288.025 631.166 282.439 629.906C282.439 629.906 279.486 629.266 277.154 630.282C277.154 630.282 273.222 630.959 273.881 626.878L273.918 626.859Z" fill="#DAB27A"/>
<path d="M261.016 606.602C261.016 606.602 260.64 615.235 261.58 616.477C261.58 616.477 262.558 623.173 260.94 625.712C260.94 625.712 260.451 627.01 258.89 625.956C257.329 624.903 251.856 623.605 248.15 617.756C248.15 617.756 243.881 613.994 245.536 604.853C245.536 604.853 248.884 584.426 252.439 577.317C252.439 577.317 256.351 564.564 260.376 557.549C260.376 557.549 262.671 551.436 264.401 557.549L265.116 569.981C265.116 569.981 268.107 591.894 270.251 594.169C272.395 596.445 272.15 612.038 271.078 615.856C271.078 615.856 269.047 625.147 269.536 628.006C269.536 628.006 268.483 631.072 265.962 628.006C265.962 628.006 262.897 620.615 263.216 612.075C263.216 612.075 263.197 606.169 261.016 606.602Z" fill="#DAB27A"/>
<path d="M336.759 598.74C336.759 598.74 331.699 593.53 336.288 587.511H320.621C320.621 587.511 315.072 587.267 318.571 592.345L336.777 598.759L336.759 598.74Z" fill="#909B49"/>
<path d="M316.257 602.821C316.257 602.821 314.677 598.345 319.624 598.909L331.925 603.16C331.925 603.16 336.194 605.925 331.925 607.9C327.655 609.875 316.276 602.803 316.276 602.803L316.257 602.821Z" fill="#909B49"/>
<path d="M254.038 482.426L270.627 473.68L254.715 463.636C254.715 463.636 249.919 461.624 254.038 459.047C254.038 459.047 257.781 457.542 275.028 466.288C275.028 466.288 278.64 469.918 276.1 471.179C276.1 471.179 274.897 471.987 276.702 473.06C276.702 473.06 276.138 476.389 270.401 474.527C270.401 474.527 267.467 476.972 272.903 480.038C272.903 480.038 265.154 484.176 260.978 484.326C260.978 484.326 250.897 484.721 254.019 482.426H254.038Z" fill="#909B49"/>
<path d="M341 686.834C358.121 686.834 372 668.702 372 646.335C372 623.967 358.121 605.834 341 605.834C323.879 605.834 310 623.967 310 646.335C310 668.702 323.879 686.834 341 686.834Z" fill="#DAB27A"/>
<path d="M415 686.834C432.121 686.834 446 668.702 446 646.335C446 623.967 432.121 605.834 415 605.834C397.879 605.834 384 623.967 384 646.335C384 668.702 397.879 686.834 415 686.834Z" fill="#DAB27A"/>
<path d="M378.5 424.834C384.299 424.834 389 420.133 389 414.334C389 408.535 384.299 403.834 378.5 403.834C372.701 403.834 368 408.535 368 414.334C368 420.133 372.701 424.834 378.5 424.834Z" fill="#5D1412" stroke="#221F20" stroke-width="2" stroke-linecap="round" stroke-linejoin="round"/>
</svg>
