<svg width="367" height="352" viewBox="0 0 367 352" fill="none" xmlns="http://www.w3.org/2000/svg">
<path d="M267.738 72.9121C267.738 72.9121 265.313 72.0892 265.381 69.2894C265.381 69.2894 269.472 65.2754 270.038 61.5925C270.038 61.5925 271.092 57.9096 271.16 55.0496C271.16 55.0496 270.854 52.4706 273.585 52.2498C273.585 52.2498 275.262 52.2498 275.07 55.0496C275.07 55.0496 275.568 57.9096 277.676 57.9096C277.676 57.9096 280.464 57.5785 282.515 55.6015L291.513 49.9919C291.513 49.9919 292.76 49.1088 293.938 50.7044C293.938 50.7044 294.992 52.019 293.258 53.1229C293.258 53.1229 278.855 62.5759 278.549 63.5092C278.549 63.5092 269.982 70.4936 269.732 71.2563C269.483 72.019 267.749 72.9021 267.749 72.9021L267.738 72.9121Z" fill="#909B49"/>
<path d="M102.863 71.2764L97.7857 79.194C97.7857 79.194 95.9499 82.1243 96.1538 87.0817L95.4172 100.83C95.4172 100.83 96.1539 112.159 96.9131 116.946L104.653 153.644C104.653 153.644 109.095 165.315 109.299 169.661C109.299 169.661 114.24 187.342 124.27 197.799C124.27 197.799 128.938 205.767 142.231 213.032C142.231 213.032 167.899 227.071 188.445 226.499C188.445 226.499 206.056 224.874 230.488 215.36C230.488 215.36 250.966 207.222 264.893 182.716C267.715 177.749 268.803 177.558 269.755 172.059C270.548 167.463 271.829 165.044 272.792 157.026L276.067 135.32C276.067 135.32 282.164 111.989 285.337 106.911C285.337 106.911 287.411 102.184 285.337 99.9467C285.337 99.9467 279.195 104.944 277.087 113.514C277.087 113.514 272.758 124.683 272.373 125.466C272.373 125.466 271.036 128.456 270.968 125.637C270.968 125.637 272.815 115.491 273.959 113.514C273.959 113.514 274.979 108.667 276.056 107.373C276.056 107.373 278.73 101.793 278.798 100.208C278.798 100.208 279.693 96.6551 281.983 95.471C281.983 95.471 284.464 92.3099 282.561 88.6471C282.561 88.6471 281.155 85.6065 279.376 84.9241C279.376 84.9241 280.226 90.895 276.702 93.7148C276.702 93.7148 271.443 98.3109 271.681 101.653C271.681 101.653 271.557 104.603 268.837 104.673C268.837 104.673 267.556 105.095 268.316 101.863C268.316 101.863 268.962 96.605 270.798 94.8288C270.798 94.8288 273.687 90.8549 275.614 89.2191C275.614 89.2191 277.699 86.3391 277.416 82.8268C277.416 82.8268 277.778 79.9467 274.447 80.0169C274.447 80.0169 272.486 80.2377 269.642 82.887C269.642 82.887 267.953 84.5327 266.401 83.7701C266.401 83.7701 265.369 83.7299 264.984 82.315L259.318 62.0039L255.748 50.5438C255.748 50.5438 255.487 48.3461 253.754 50.2528C253.754 50.2528 241.515 62.2147 238.262 64.2819C238.262 64.2819 235.248 66.2187 234.183 66.6402C234.183 66.6402 233.027 66.5097 233.809 65.7671C233.809 65.7671 248.881 48.8579 251.306 46.6703C251.306 46.6703 253.391 45.0145 251.725 44.3723C251.725 44.3723 243.078 40.4786 239.225 39.5454L233.548 37.5986C233.548 37.5986 231.723 37.0968 231.871 39.1741C231.871 39.1741 232.131 46.0682 230.262 49.7511L224.675 79.7159L220.924 94.337C220.924 94.337 220.028 95.4309 219.824 94.1263C219.824 94.1263 220.357 83.5593 220.697 79.9868L224.221 50.1725C224.221 50.1725 225.151 44.4927 225.831 43.0878C225.831 43.0878 226.284 40.9302 226.375 39.3948C226.375 39.3948 227.281 36.5649 222.68 37.2674C222.68 37.2674 212.288 39.144 208.866 40.5689C208.866 40.5689 201.024 42.9874 198.599 49.4801C198.599 49.4801 196.65 54.9091 193.499 58.2408L190.247 62.4655C190.247 62.4655 189.159 64.3622 188.479 62.3351L182.099 32.4204L180.83 25.1349C180.83 25.1349 179.674 18.1505 175.673 18L168.591 18.6724C168.591 18.6724 165.587 18.6723 165.882 22.5961L167.605 54.4074L168.319 68.607C168.319 68.607 167.695 75.3506 170.8 79.9868L175.741 87.6838C175.741 87.6838 181.011 94.036 180.818 98.8629V106.991C180.818 106.991 180.626 110.443 179.073 106.911L176.999 99.6255C176.999 99.6255 176.138 92.8017 171.197 87.6637C171.197 87.6637 169.735 85.8774 169.701 88.3059L169.848 96.3641C169.848 96.3641 169.35 99.746 168.103 96.5247C168.103 96.5247 166.789 92.2899 166.426 90.5538L164.715 78.5016L162.664 46.4495L162.822 23.4089L162.8 21.1611C162.8 21.1611 162.743 19.2845 160.953 19.4751C160.953 19.4751 158.221 19.5855 158.255 22.1545L157.156 47.5333L156.567 54.6683C156.567 54.6683 155.275 56.886 154.788 54.4977C154.788 54.4977 153.915 45.5664 154.448 40.2077V23.8806C154.448 23.8806 154.606 20.569 150.901 21.6427C150.901 21.6427 136.248 26.4696 134.797 27.8444C134.797 27.8444 131.794 28.5268 131.568 32.571C131.568 32.571 127.023 51.2363 127.023 55.9026C127.023 55.9026 125.153 74.6883 126.151 82.8468L127.783 100.91C127.783 100.91 127.613 103.268 126.4 101.061C126.4 101.061 124.587 95.9025 124.541 92.7214C124.541 92.7214 123.544 83.4088 121.946 80.0671C121.946 80.0671 117.855 70.032 114.478 67.453L111.77 65.0546C111.77 65.0546 109.741 62.6763 108.28 64.5027C108.28 64.5027 107.441 64.2719 108.189 72.8519L108.903 91.2663C108.903 91.2663 108.551 95.3506 107.316 91.3566C107.316 91.3566 106.319 86.4294 106.274 85.3757C106.274 85.3757 105.333 78.7826 104.936 77.5483L104.211 73.173C104.211 73.173 103.588 70.6441 102.749 71.2964L102.863 71.2764Z" fill="#DAB27A"/>
<path d="M208.084 187.975C195.596 182.415 181.849 182.475 170.483 188.657C170.483 188.657 173.282 200.609 189.533 202.857C189.533 202.857 203.71 201.582 208.084 190.754C208.084 190.754 208.741 189.691 208.56 188.306L208.084 187.975Z" fill="#5D1412" stroke="#221F20" stroke-width="2" stroke-linecap="round" stroke-linejoin="round"/>
<path d="M269.438 70.6743C269.438 70.6743 267.953 68.0149 267.285 67.9748C267.285 67.9748 269.778 64.7134 269.891 63.7099C269.891 63.7099 270.605 67.5533 274.231 64.9342C274.231 64.9342 277.246 61.5524 280.203 61.4319L269.438 70.6642V70.6743Z" fill="#DAB27A"/>
<path d="M191.822 60.5087C191.822 60.5087 189.386 65.5965 196.718 64.2819C196.718 64.2819 202.486 64.7435 206.226 57.8694C206.226 57.8694 206.169 55.18 210.781 56.5247C210.781 56.5247 217.263 58.1504 220.187 56.1434C220.187 56.1434 222.34 54.7184 222.93 55.6918L223.496 56.1133L224.414 49.4801C224.414 49.4801 225.411 43.5694 225.91 43.0777L226.454 39.3848C226.454 39.3848 227.168 36.9663 223.87 37.147C223.87 37.147 217.898 38.1806 215.869 38.6522C215.869 38.6522 209.115 39.4851 205.5 42.1244C205.5 42.1244 201.171 44.4325 199.539 47.6738C199.539 47.6738 196.74 54.3572 195.822 55.2703L191.833 60.4987L191.822 60.5087Z" fill="#909B49"/>
<path d="M230.318 49.751C230.318 49.751 228.834 59.3948 231.871 61.3316C231.871 61.3316 235.803 63.5292 240.789 58.04L251.351 46.6703C251.351 46.6703 253.561 44.6733 251.77 44.3722L236.97 38.7626L234.239 37.8293C234.239 37.8293 231.939 36.6853 231.916 39.1841C231.916 39.1841 232.188 46.9312 230.307 49.7611L230.318 49.751Z" fill="#909B49"/>
<path d="M240.665 62.4555C240.665 62.4555 253.266 51.5373 253.788 50.2629C253.788 50.2629 254.932 48.3963 255.963 50.2629L259.023 60.9502L263.783 77.8895L264.621 80.9L265.018 82.315C265.018 82.315 266.015 85.3155 269.234 83.2382C269.234 83.2382 272.339 80.2076 274.469 80.0169C274.469 80.0169 278.186 79.8463 277.438 84.1614C277.438 84.1614 277.654 87.8945 273.733 91.166C273.733 91.166 270.696 92.5106 270.582 89.199C270.582 89.199 266.072 91.2763 265.517 87.6035C265.517 87.6035 265.188 85.9176 263.862 84.9341C263.862 84.9341 261.437 84.613 260.961 82.3651C260.961 82.3651 258.785 76.0531 256.281 73.2834L244.506 63.4088C244.506 63.4088 243.464 62.1143 240.642 62.4455L240.665 62.4555Z" fill="#909B49"/>
<path d="M274.503 95.9928C274.503 95.9928 276.226 96.6752 275.693 99.0836C275.693 99.0836 274.741 104.372 277.336 104.623L278.832 100.208C278.832 100.208 280.011 96.4344 282.017 95.471C282.017 95.471 284.272 93.1128 282.844 89.189C282.844 89.189 282.028 86.2789 279.41 84.9241C279.41 84.9241 280.102 89.9617 277.552 92.9221L274.515 95.9928H274.503Z" fill="#909B49"/>
<path d="M275.025 118.873L277.552 111.959C277.552 111.959 279.694 104.794 285.371 99.9366C285.371 99.9366 287.989 103.89 283.501 110.975L279.467 123.258C279.467 123.258 277.031 127.072 275.569 125.044C275.569 125.044 274.186 124.703 276.487 119.415C276.487 119.415 276.011 117.92 275.025 118.873Z" fill="#909B49"/>
<path d="M167.435 49.6607C167.435 49.6607 172.138 53.4038 172.784 46.881C172.784 46.881 172.228 41.5624 177.271 44.5428C177.271 44.5428 179.198 48.015 181.521 48.9382C181.521 48.9382 184.569 49.7611 184.003 44.0411L183.006 36.2839L180.909 25.1148C180.909 25.1148 179.379 18.4716 177.011 18.2809C177.011 18.2809 175.436 17.7591 171.05 18.4315L168.67 18.6623C168.67 18.6623 165.735 18.4515 165.962 22.586L167.424 49.6708L167.435 49.6607Z" fill="#909B49"/>
<path d="M157.1 49.2393C157.1 49.2393 159.774 52.0391 162.913 49.0787V22.004C162.913 22.004 163.378 19.1239 160.658 19.5053C160.658 19.5053 158.21 19.726 158.335 22.1345L158.086 27.8946L157.1 49.2292V49.2393Z" fill="#909B49"/>
<path d="M154.335 22.7365C154.335 22.7365 153.451 20.5489 150.572 21.7632L135.829 27.2523C135.829 27.2523 131.783 28.1756 131.557 32.9724L128.621 46.0983L127.647 51.2965L127.386 52.9823C127.386 52.9823 132.905 53.8855 139.138 49.2092C139.138 49.2092 143.864 55.451 148.521 48.1153C148.521 48.1153 152.612 51.0255 154.335 46.0581V22.7365Z" fill="#909B49"/>
<path d="M108.506 78.0902C108.506 78.0902 116.382 80.88 117.708 71.3265C117.708 71.3265 115.34 67.5533 111.294 64.4726C111.294 64.4726 108.812 62.6963 108.075 65.456L108.517 78.0902H108.506Z" fill="#909B49"/>
<path d="M139.353 174.919C152.365 174.919 162.913 165.578 162.913 154.056C162.913 142.534 152.365 133.193 139.353 133.193C126.341 133.193 115.793 142.534 115.793 154.056C115.793 165.578 126.341 174.919 139.353 174.919Z" fill="#100F0E"/>
<path d="M237.118 175.009C250.48 175.009 261.312 165.628 261.312 154.056C261.312 142.484 250.48 133.103 237.118 133.103C223.755 133.103 212.923 142.484 212.923 154.056C212.923 165.628 223.755 175.009 237.118 175.009Z" fill="#100F0E"/>
<path d="M132.542 155.18C136.692 155.18 140.056 152.201 140.056 148.527C140.056 144.852 136.692 141.873 132.542 141.873C128.393 141.873 125.029 144.852 125.029 148.527C125.029 152.201 128.393 155.18 132.542 155.18Z" fill="white"/>
<path d="M230.443 155.18C234.593 155.18 237.956 152.201 237.956 148.527C237.956 144.852 234.593 141.873 230.443 141.873C226.294 141.873 222.93 144.852 222.93 148.527C222.93 152.201 226.294 155.18 230.443 155.18Z" fill="white"/>
<path d="M144.407 167.774C146.623 167.774 148.419 166.183 148.419 164.222C148.419 162.26 146.623 160.669 144.407 160.669C142.191 160.669 140.395 162.26 140.395 164.222C140.395 166.183 142.191 167.774 144.407 167.774Z" fill="white"/>
<path d="M242.274 168.215C244.489 168.215 246.285 166.625 246.285 164.663C246.285 162.701 244.489 161.111 242.274 161.111C240.058 161.111 238.262 162.701 238.262 164.663C238.262 166.625 240.058 168.215 242.274 168.215Z" fill="white"/>
<path d="M185.249 229.901C185.249 229.901 189.952 228.767 193.091 229.901C193.091 229.901 189.238 233.223 188.626 235.461L185.249 229.901Z" fill="#DAB27A"/>
<path d="M194.848 257.739C194.848 257.739 190.167 258.23 190.235 255.661C190.235 255.661 190.088 254.869 190.723 253.715C190.723 253.715 191.924 248.446 190.224 246.369C190.224 246.369 187.561 244.101 189.907 241.462C189.907 241.462 193.114 233.213 200.582 229.379L213.104 228.496L219.938 252.109C219.938 252.109 218.204 255.571 211.03 258.361C211.03 258.361 207.37 259.987 209.886 257.428C209.886 257.428 211.212 255.611 211.427 255.13C211.427 255.13 211.631 254.126 209.704 255.491C209.704 255.491 206.973 258.792 201.749 258.622L194.848 257.719V257.739Z" fill="#DAB27A"/>
<path d="M158.981 255.41C158.981 255.41 156.85 254.076 158.221 252.47C158.221 252.47 159.842 250.965 159.785 250.132C159.785 250.132 159.434 249.49 157.632 250.463C157.632 250.463 156.204 250.794 156.748 249.008L159.151 239.866C159.151 239.866 160.046 235.14 161.372 233.323L163.514 228.155L171.412 228.687C171.412 228.687 176.92 228.807 180.195 231.407C180.195 231.407 185.895 235.24 186.813 238.853C186.813 238.853 187.697 239.826 185.918 242.897C185.918 242.897 184.796 246.108 187.028 248.035C187.028 248.035 191.187 254.357 184.478 256.946C184.478 256.946 179.912 258 177.724 258C177.724 258 177.101 257.939 177.43 257.327C177.43 257.327 178.382 256.203 178.178 255.802C177.974 255.4 177.588 255.421 177.067 255.752C177.067 255.752 173.259 259.023 169.622 259.244C169.622 259.244 165.191 259.214 163.627 258.17L158.981 255.421V255.41Z" fill="#DAB27A"/>
<path d="M153.382 264.031L155.264 256.424C155.264 256.424 155.332 255.661 156.216 256.424C157.099 257.187 161.836 260.548 161.836 260.548C161.836 260.548 163.842 262.555 165.508 261.703C165.508 261.703 166.755 261.11 167.14 262.184L168.772 266.108C168.772 266.108 170.687 269.58 167.367 270.343C167.367 270.343 164.817 271.276 161.972 269.891C161.972 269.891 159.774 269.189 157.19 267.292C157.19 267.292 154.697 265.656 153.394 264.011L153.382 264.031Z" fill="#DAB27A"/>
<path d="M152.6 268.346C152.6 268.346 151.966 274.949 151.966 277.197C151.966 277.197 151.229 279.916 154.595 279.655L164.975 279.003C164.975 279.003 167.809 279.304 168.296 276.926V274.728C168.296 274.728 168.976 271.878 165.27 272.31C165.27 272.31 161.564 272.781 159.706 271.015L155.173 268.336C155.173 268.336 152.77 266.299 152.589 268.336L152.6 268.346Z" fill="#DAB27A"/>
<path d="M194.236 285.747C194.236 285.747 180.512 283.479 177.838 281.883C177.838 281.883 173.01 280.438 171.152 278.592C171.152 278.592 168.534 276.424 171.786 275.812L180.977 276.946C180.977 276.946 183.425 276.735 177.135 275.551L173.939 274.879C173.939 274.879 170.154 274.417 171.095 271.788C171.095 271.788 172.727 268.185 171.265 267.443C171.265 267.443 168.443 262.887 172.466 261.703C172.466 261.703 178.178 259.746 187.017 259.746C187.017 259.746 201.262 259.595 203.766 261.08C203.766 261.08 206.962 262.415 202.95 264.894C202.95 264.894 202.372 265.516 196.378 265.155C196.378 265.155 193.125 265.666 196.378 266.549L201.375 266.65C201.375 266.65 203.982 266.299 204.186 268.245C204.186 268.245 204.65 270.242 200.707 269.56L187.561 268.747C187.561 268.747 185.419 268.978 188.082 269.701C188.082 269.701 193.703 271.146 198.213 270.925C198.213 270.925 205.478 270.694 204.458 274.046L199.347 282.917L197.715 285.094C197.715 285.094 196.106 286.77 194.247 285.747H194.236Z" fill="#DAB27A"/>
<path d="M202.486 293.092C202.486 293.092 208.934 288.837 210.724 284.713C210.724 284.713 212.152 281.622 212.311 279.144L207.132 287.001C207.132 287.001 203.324 291.818 200.899 290.604C200.899 290.604 197.205 289.289 199.891 285.315L205.602 275.722C205.602 275.722 208.311 271.958 206.486 267.673C206.486 267.673 204.424 262.997 210.18 261.361C210.18 261.361 215.144 260.097 218.736 257.709C218.736 257.709 220.425 256.494 220.958 258.461C220.958 258.461 221.332 259.816 218.793 261.361C218.793 261.361 215.461 263.84 216.991 264.914C216.991 264.914 218.102 265.807 220.482 263.459C220.482 263.459 221.751 261.913 221.751 264.251L222.283 269.028C222.283 269.028 222.023 272.581 219.643 273.664C219.643 273.664 215.28 277.759 216.051 284.532C216.051 284.532 216.062 294.447 210.588 295.581C210.588 295.581 204.854 298.481 202.803 295.812C202.803 295.812 201.409 294.236 202.474 293.082L202.486 293.092Z" fill="#DAB27A"/>
<path d="M224.301 296.093L222.952 275.18C222.952 275.18 218.736 276.203 218.294 283.097V290.634C218.294 290.634 217.342 295.39 224.301 296.093Z" fill="#DAB27A"/>
<path d="M152.238 289.65L166.483 293.765C166.483 293.765 171.775 295.822 174.302 293.323L179.447 287.894C179.447 287.894 181.918 285.616 177.067 283.509L172.364 281.542C172.364 281.542 167.763 280.097 163.808 280.89L153.383 281.813C153.383 281.813 150.595 282.646 152.771 283.569C152.771 283.569 162.369 284.091 164.296 284.793C164.296 284.793 166.177 285.787 164.001 286.078H154.108C154.108 286.078 150.402 285.847 151.388 288.466C151.388 288.466 151.637 289.209 152.227 289.65H152.238Z" fill="#DAB27A"/>
<path d="M183.062 300.88L178.461 298.23C178.461 298.23 175.232 297.056 176.897 294.236L182.45 287.814C182.45 287.814 182.972 285.044 189.805 286.389C189.805 286.389 196.355 287.994 199.336 293.454C199.336 293.454 201.806 298.28 198.248 298.612L192.559 300.88C192.559 300.88 190.088 301.803 187.958 300.88C187.958 300.88 184.638 302.224 183.074 300.88H183.062Z" fill="#DAB27A"/>
<path d="M193.488 308.767C193.488 308.767 192.298 305.205 193.488 303.449C193.488 303.449 195.675 301.602 197.409 303.127C197.409 303.127 199.381 304.944 199.676 305.987C199.676 305.987 200.752 307.703 201.047 306.088C201.047 306.088 200.118 301.341 205.614 299.535L214.476 296.946C214.476 296.946 219.519 294.367 218.657 299.023C218.657 299.023 217.15 308.185 216.21 309.871C216.21 309.871 215.439 312.029 217.026 310.844C217.026 310.844 218.816 309.731 219.507 305.767L220.437 300.819C220.437 300.819 220.414 298.481 222.68 298.421C222.68 298.421 224.596 298.15 224.788 300.809V308.285C224.788 308.285 220.176 315.43 214.408 315.852C214.408 315.852 206.35 317.347 201.659 314.547L194.451 310.533C194.451 310.533 193.477 309.69 193.499 308.757L193.488 308.767Z" fill="#DAB27A"/>
<path d="M159.071 315.711C159.071 315.711 163.582 317.478 163.616 313.815C163.616 313.815 162.528 310.553 164.364 308.286C164.364 308.286 168.081 302.194 166.653 299.304C166.653 299.304 166.064 296.233 161.417 295.3L153.485 292.882C153.485 292.882 150.538 291.617 151.003 294.818L151.399 300.829C151.399 300.829 155.184 304.994 155.23 307.724C155.23 307.724 155.275 309.5 154.006 308.075C154.006 308.075 152.635 304.693 151.603 304.693C151.603 304.693 150.731 304.522 150.946 307.332C150.946 307.332 151.887 310.955 154.811 313.132C154.811 313.132 157.61 315.35 159.049 315.711H159.071Z" fill="#DAB27A"/>
<path d="M166.993 316.133C166.993 316.133 163.616 315.149 165.656 311.637L167.605 307.864C167.605 307.864 168.738 304.091 168.319 302.044C168.319 302.044 167.775 297.207 171.061 297.538L179.413 301.462C179.413 301.462 182.722 302.365 182.405 305.405C182.405 305.405 183.255 309.369 180.082 310.945C180.082 310.945 172.149 315.4 171.945 316.123C171.945 316.123 168.681 317.417 166.993 316.123V316.133Z" fill="#DAB27A"/>
<path d="M158.663 323.8C158.663 323.8 156.397 326.66 157.145 333.393C157.145 333.393 156.453 335.059 151.785 333.393C151.785 333.393 148.407 332.4 149.484 326.369L149.971 317.829L150.028 315.832C150.028 315.832 149.654 312.751 152.17 314.598C152.17 314.598 156.623 317.969 161.814 318.541L170.925 318.873C170.925 318.873 175.209 318.722 177.09 316.263C177.09 316.263 179.708 313.132 181.487 314.176L181.815 323.238V327.553C181.815 327.553 182.246 333.674 176.67 334.387C176.67 334.387 172.274 335.711 171.152 332.019C171.152 332.019 170.132 325.325 168.738 324.904L168.636 333.494C168.636 333.494 167.888 335.571 164.182 334.628C164.182 334.628 161.451 334.166 160.748 334.879C160.748 334.879 159.083 335.3 158.969 333.454L158.663 323.81V323.8Z" fill="#DAB27A"/>
<path d="M197.975 334.246C197.975 334.246 203.302 327.131 201.772 321.381C201.772 321.381 199.63 315.42 193.839 313.965V331.166C193.839 331.166 194.995 334.888 197.975 334.256V334.246Z" fill="#DAB27A"/>
<path d="M201.001 334.798H205.036C205.036 334.798 206.973 334.096 205.036 332.32C205.036 332.32 202.803 330.222 200.548 332.44C200.548 332.44 198.497 334.256 201.001 334.798Z" fill="#DAB27A"/>
<path d="M210.317 334.798C210.317 334.798 218.011 334.547 223.564 332.721C223.564 332.721 226.114 332.259 225.751 327.874L225.785 314.487C225.785 314.487 225.468 311.948 223.723 313.955C223.723 313.955 220.119 318.471 215.088 318.622L208.163 318.551C208.163 318.551 202.973 318.1 203.143 324.141C203.143 324.141 203.914 333.002 210.317 334.798Z" fill="#DAB27A"/>
<path d="M219.303 299.103C219.303 299.103 219.349 303.599 216.697 302.425C216.697 302.425 209.796 295.892 209.365 295.691C209.365 295.691 208.719 295.551 209.716 294.347L210.985 291.978C210.985 291.978 212.64 291.226 212.232 290.393C212.232 290.393 211.937 290.242 212.141 289.841L213.83 286.519C213.83 286.519 214.691 284.914 216.13 286.128C216.13 286.128 219.156 291.918 219.054 294.778L218.952 297.729C218.952 297.729 219.757 298.692 219.303 299.113V299.103Z" fill="#DAB27A"/>
<path d="M240.835 222.957C240.835 222.957 240.642 231.407 239.316 234.206C239.316 234.206 237.99 237.779 235.463 238.481C235.463 238.481 234.851 238.762 235.361 237.207L236.279 230.804C236.279 230.804 235.962 229.54 234.896 231.788L233.741 234.537C233.741 234.537 232.675 236.053 233.321 238.23C233.321 238.23 233.321 243.419 227.848 244.743L224.788 245.496C224.788 245.496 223.235 246.329 223.621 244.332C223.621 244.332 225.275 235.692 223.337 230.885C223.337 230.885 222.091 227.794 225.026 226.028L234.523 217.739L238.772 213.955C238.772 213.955 241.061 212.239 241.39 215.029L240.835 222.937V222.957Z" fill="#DAB27A"/>
<path d="M248.733 235.631L251.906 222.957C251.906 222.957 252.688 220.82 250.581 221.311C250.581 221.311 244.767 222.857 243.622 225.606C243.622 225.606 242.206 227.041 243.237 229.721C243.237 229.721 243.634 231.698 242.342 233.102L240.053 237.638C240.053 237.638 238.591 240.448 241.707 239.184L247.906 236.284C247.906 236.284 248.609 236.133 248.733 235.631Z" fill="#DAB27A"/>
<path d="M216.674 230.794H219.518C219.518 230.794 221.207 230.614 221.411 232.169L221.502 239.916C221.502 239.916 221.456 241.923 220.776 243.489C220.776 243.489 220.368 246.359 218.748 243.378L216.3 235.692L215.654 232.621C215.654 232.621 214.691 230.804 216.674 230.794Z" fill="#DAB27A"/>
<path d="M277.642 218.983C277.642 218.983 267.885 215.571 263.454 216.344C263.454 216.344 255.952 217.608 254.377 221.622L251.623 233.223C251.623 233.223 250.762 235.009 253.368 233.514C253.368 233.514 272.633 221.341 275.308 220.689C275.308 220.689 279.138 219.886 277.631 218.983H277.642Z" fill="#DAB27A"/>
<path d="M296.057 211.507C296.057 211.507 286.572 216.625 283.15 217.508C283.15 217.508 282.345 218.02 281.144 217.438C281.144 217.438 273.336 214.156 267.681 214.778C267.681 214.778 257.063 215.832 250.524 218.983L246.456 220.98C246.456 220.98 243.736 222.315 243.452 220.237C243.452 220.237 242.546 217.086 247.759 214.829L265.845 205.917C265.845 205.917 268.576 204.944 267.285 204.181C267.285 204.181 267.511 203.248 263.907 204.703C263.907 204.703 251 209.67 247.997 212.51C247.997 212.51 245.073 215.591 243.815 213.634C243.815 213.634 241.549 210.644 247.509 207.433L260.882 198.04C260.882 198.04 266.514 194.477 270.922 195.832C270.922 195.832 275.976 196.414 279.829 194.327L287.717 191.447C287.717 191.447 292.318 189.309 293.406 192.551L296.465 197.689C296.465 197.689 297.61 199.635 295.287 200.749C295.287 200.749 287.184 204.151 286.232 205.265C286.232 205.265 284.544 206.67 287.184 206.178C287.184 206.178 292.522 204.793 295.695 203.087C295.695 203.087 298.131 202.275 298.709 204.703C299.287 207.132 299.276 209.159 296.069 211.497L296.057 211.507Z" fill="#DAB27A"/>
<path d="M286.618 189.681C286.618 189.681 278.436 193.494 270.265 193.685C270.265 193.685 268.225 193.885 271.988 191.577C271.988 191.577 279.739 186.61 285.247 188.326C285.247 188.326 289.791 188.958 286.618 189.671V189.681Z" fill="#DAB27A"/>
<path d="M121.924 230.845C121.924 230.845 139.976 237.919 148.782 238.883C148.782 238.883 153.122 240.308 153.768 237.357L157.87 232.31C157.87 232.31 159.366 231.095 155.264 229.4L147.875 224.382C147.875 224.382 144.815 219.826 136.86 222.676L123.295 227.764L120.791 229.109C120.791 229.109 118.026 230.042 121.913 230.845H121.924Z" fill="#DAB27A"/>
<path d="M105.073 195.993C105.073 195.993 105.628 197.799 107.214 199.896C107.214 199.896 114.648 209.62 114.841 211.447C114.841 211.447 117.312 218.09 123.533 221.161C123.533 221.161 127.59 224.623 131.148 222.244C131.148 222.244 132.44 221.221 131.148 218.853L130.865 218.22L135.783 219.776C135.783 219.776 138.118 220.779 139.682 219.435C139.682 219.435 141.132 218.682 138.809 217.076C138.809 217.076 128.859 209.149 121.743 205.245L105.922 195.37C105.922 195.37 104.257 194.176 105.061 195.983L105.073 195.993Z" fill="#DAB27A"/>
<path d="M97.0378 212.34C97.0378 212.34 100.347 222.525 107.112 225.827C107.112 225.827 113.855 229.159 117.3 227.924C117.3 227.924 121.187 227.122 116.767 224.532L104.948 215.742L98.2503 211.186C98.2503 211.186 95.3946 209.47 97.0378 212.34Z" fill="#DAB27A"/>
<path d="M76.8322 186.79C76.8322 186.79 80.5379 190.895 82.4757 192.079C82.4757 192.079 86.9747 194.668 88.8559 199.214C88.8559 199.214 90.0911 204.643 95.9953 207.774C95.9953 207.774 110.263 216.183 111.997 218.592C111.997 218.592 116.632 224.392 120.405 224.522C120.405 224.522 123.907 225.375 122.513 223.047C122.513 223.047 122.638 222.646 119.578 221.281C119.578 221.281 114.558 218.662 112.099 212.149C112.099 212.149 108.529 204.151 104.019 199.184C104.019 199.184 99.1344 192.872 97.5932 189.279C97.5932 189.279 95.8707 186.79 93.2982 185.365C93.2982 185.365 90.4991 183.218 89.6605 182.395C89.6605 182.395 87.836 180.308 86.6914 181.371C86.6914 181.371 85.4448 182.144 86.9067 183.609L90.5671 188.045C90.5671 188.045 89.8078 189.109 85.0255 184.653C85.0255 184.653 81.9205 180.318 79.7446 182.696C79.7446 182.696 78.5887 183.94 77.1155 184.292C77.1155 184.292 75.0077 185.315 76.8549 186.8L76.8322 186.79Z" fill="#DAB27A"/>
<path d="M78.3168 199.535C78.3168 199.535 74.9057 196.053 74.8943 195.22C74.8943 195.22 72.8432 192.099 71.132 191.567C71.132 191.567 70.4181 191.186 70.0668 192.139C69.7155 193.093 67.6189 195.451 68.0609 199.134C68.0609 199.134 67.449 202.124 71.6533 205.396C71.6533 205.396 80.8665 212.832 85.2068 214.628C85.2068 214.628 91.825 218.672 96.3579 220.268C96.3579 220.268 99.7236 222.064 98.2618 218.933L93.9555 213.494C93.9555 213.494 87.1674 203.338 87.3373 201.673C87.5073 200.007 81.5578 193.564 79.62 192.33C79.62 192.33 75.189 189.119 74.3391 187.764C74.3391 187.764 72.6845 186.831 72.6505 188.948C72.6505 188.948 73.9651 193.052 77.3195 196.525C77.3195 196.525 79.518 199.003 78.3281 199.545L78.3168 199.535Z" fill="#DAB27A"/>
<path d="M163.355 292.631C163.355 292.631 160.307 289.851 163.072 286.64H153.632C153.632 286.64 150.289 286.509 152.397 289.219L163.366 292.641L163.355 292.631Z" fill="#909B49"/>
<path d="M151.014 294.808C151.014 294.808 150.062 292.42 153.042 292.721L160.454 294.989C160.454 294.989 163.026 296.464 160.454 297.518C157.881 298.571 151.025 294.798 151.025 294.798L151.014 294.808Z" fill="#909B49"/>
<path d="M240.438 243.338C240.438 243.338 242.557 236.645 235.837 241.1C235.837 241.1 231.61 244.171 234.477 248.898C234.477 248.898 236.279 251.597 238.523 248.055C238.523 248.055 240.098 245.887 240.438 243.338Z" fill="#909B49"/>
<path d="M155.74 241.391L157.224 241.442C157.224 241.442 158.108 241.562 158.187 240.739L158.085 236.645C158.085 236.645 158.029 235.581 157.643 234.748C157.643 234.748 157.371 233.223 156.59 234.778L155.456 238.812L155.173 240.428C155.173 240.428 154.708 241.381 155.74 241.412V241.391Z" fill="#DAB27A"/>
<path d="M121.266 234.136C121.266 234.136 110.807 232.842 106.625 236.715C106.625 236.715 101.933 241.271 99.5876 241.773C99.5876 241.773 95.7912 243.479 98.2277 240.398L104.041 233.303L93.4681 232.601C93.4681 232.601 91.247 232.751 90.9976 232.219C90.9976 232.219 89.3658 230.463 92.4708 229.51C92.4708 229.51 105.922 228.276 110.761 228.777L118.535 229.299C118.535 229.299 119.215 229.41 119.113 230.112C119.113 230.112 119.227 231.025 117.561 231.005L108.042 230.333C108.042 230.333 105.832 230.323 106.33 231.105C106.33 231.105 106.115 231.617 108.382 231.607L120.938 231.918C120.938 231.918 124.791 231.958 124.508 233.213C124.508 233.213 123.726 234.377 121.244 234.136H121.266Z" fill="#DAB27A"/>
<path d="M97.5364 241.482L104.053 233.303L92.7655 232.38C92.7655 232.38 89.6377 232.591 91.1449 230.363C91.1449 230.363 92.7428 228.737 104.393 228.717C104.393 228.717 107.328 229.57 106.308 230.784C106.308 230.784 105.888 231.457 107.146 231.527C107.146 231.527 107.758 233.253 104.166 233.755C104.166 233.755 103.259 235.621 107.022 235.772C107.022 235.772 103.985 239.615 101.786 240.689C101.786 240.689 96.4825 243.318 97.5251 241.472L97.5364 241.482Z" fill="#909B49"/>
<path d="M108.178 187.152C108.178 187.152 110.297 180.458 103.577 184.914C103.577 184.914 99.3496 187.985 102.217 192.711C102.217 192.711 104.019 195.411 106.262 191.868C106.262 191.868 107.838 189.701 108.178 187.152Z" fill="#909B49"/>
</svg>
